M48
;Layer_Color=6321
;FILE_FORMAT=4:2
METRIC,LZ
;TYPE=PLATED
T1F00S00C0.70
T2F00S00C0.71
T3F00S00C0.90
%
T01
X00375Y002725
X004525
T02
X00275Y003725
X01201Y003265
X01201Y004265
X01201Y005265
X01201Y006265
X01201Y007265
X00275Y007575
Y006575
Y005575
X002725Y00455
X00275Y008575
Y009575
Y010575
Y011575
X012Y011125
X01201Y010265
X012015Y009265
X01201Y008265
X012075Y012075
T03
X002675Y003475
X002929
X003183
X0118Y011475
X012054
X012308
M30
