G04*
G04 #@! TF.GenerationSoftware,Altium Limited,CircuitStudio,1.5.2 (30)*
G04*
G04 Layer_Physical_Order=1*
G04 Layer_Color=11767835*
%FSLAX42Y42*%
%MOMM*%
G71*
G01*
G75*
%ADD10R,0.80X0.90*%
%ADD11R,1.50X0.90*%
%ADD12C,0.25*%
%ADD13R,1.50X1.50*%
%ADD14C,1.50*%
%ADD15R,1.20X1.20*%
%ADD16C,1.20*%
%ADD17C,1.27*%
G36*
X12375Y11564D02*
X12364Y11559D01*
X12359Y11563D01*
X12334Y11573D01*
X12308Y11576D01*
X12282Y11573D01*
X12264Y11566D01*
X12234Y11596D01*
Y11680D01*
X12260D01*
Y11820D01*
X12234D01*
Y11865D01*
X12345D01*
Y12005D01*
X12156D01*
X12156D01*
X12155Y12005D01*
X12151Y12005D01*
X12151D01*
X12150D01*
X12149Y12006D01*
X12149Y12007D01*
X12148Y12008D01*
X12144Y12015D01*
X12144Y12015D01*
X12143Y12017D01*
X12153Y12030D01*
X12162Y12052D01*
X12165Y12075D01*
X12162Y12098D01*
X12159Y12104D01*
X12250Y12195D01*
X12345D01*
Y12335D01*
X12145D01*
Y12200D01*
X12104Y12159D01*
X12098Y12162D01*
X12075Y12165D01*
X12052Y12162D01*
X12030Y12153D01*
X12012Y12138D01*
X11997Y12120D01*
X11988Y12098D01*
X11985Y12075D01*
X11988Y12052D01*
X11997Y12030D01*
X12012Y12012D01*
X12030Y11997D01*
X12052Y11988D01*
X12075Y11985D01*
X12098Y11988D01*
X12120Y11997D01*
X12133Y12007D01*
X12135Y12006D01*
X12135Y12006D01*
X12142Y12002D01*
X12143Y12001D01*
X12144Y12001D01*
X12145Y12000D01*
Y11999D01*
Y11999D01*
X12145Y11995D01*
Y11994D01*
Y11994D01*
Y11865D01*
X12156D01*
Y11820D01*
X12133D01*
X12130Y11820D01*
X12130Y11820D01*
X12120D01*
Y11820D01*
X12120Y11820D01*
X12068D01*
Y11750D01*
X12055D01*
Y11737D01*
X11990D01*
Y11680D01*
X12041D01*
X12048Y11667D01*
X12046Y11664D01*
X11311D01*
X11285Y11690D01*
Y11770D01*
X11274D01*
Y11865D01*
X11345D01*
Y12005D01*
X11145D01*
Y11865D01*
X11196D01*
Y11770D01*
X11158D01*
X11155Y11770D01*
X11155Y11770D01*
X11145D01*
Y11770D01*
X11145Y11770D01*
X11093D01*
Y11700D01*
Y11630D01*
X11093D01*
X11098Y11618D01*
X11019Y11539D01*
X10451D01*
X10285Y11705D01*
Y11770D01*
X10274D01*
Y11865D01*
X10345D01*
Y12005D01*
X10145D01*
Y11865D01*
X10196D01*
Y11770D01*
X10158D01*
X10155Y11770D01*
X10155Y11770D01*
X10145D01*
Y11770D01*
X10145Y11770D01*
X10093D01*
Y11700D01*
Y11630D01*
X10093D01*
X10098Y11618D01*
X10019Y11539D01*
X9451D01*
X9285Y11705D01*
Y11770D01*
X9274D01*
Y11865D01*
X9345D01*
Y12005D01*
X9145D01*
Y11865D01*
X9196D01*
Y11770D01*
X9158D01*
X9155Y11770D01*
X9155Y11770D01*
X9145D01*
Y11770D01*
X9145Y11770D01*
X9093D01*
Y11700D01*
Y11630D01*
X9093D01*
X9098Y11618D01*
X9019Y11539D01*
X8451D01*
X8285Y11705D01*
Y11770D01*
X8274D01*
Y11865D01*
X8345D01*
Y12005D01*
X8145D01*
Y11865D01*
X8196D01*
Y11770D01*
X8158D01*
X8155Y11770D01*
X8155Y11770D01*
X8145D01*
Y11770D01*
X8145Y11770D01*
X8093D01*
Y11700D01*
Y11630D01*
X8093D01*
X8098Y11618D01*
X8019Y11539D01*
X7451D01*
X7285Y11705D01*
Y11770D01*
X7274D01*
Y11865D01*
X7345D01*
Y12005D01*
X7145D01*
Y11865D01*
X7196D01*
Y11770D01*
X7158D01*
X7155Y11770D01*
X7155Y11770D01*
X7145D01*
Y11770D01*
X7145Y11770D01*
X7093D01*
Y11700D01*
Y11630D01*
X7093D01*
X7098Y11618D01*
X7019Y11539D01*
X6451D01*
X6285Y11705D01*
Y11770D01*
X6274D01*
Y11865D01*
X6345D01*
Y12005D01*
X6145D01*
Y11865D01*
X6196D01*
Y11770D01*
X6158D01*
X6155Y11770D01*
X6155Y11770D01*
X6145D01*
Y11770D01*
X6145Y11770D01*
X6093D01*
Y11700D01*
Y11630D01*
X6093D01*
X6098Y11618D01*
X6019Y11539D01*
X5451D01*
X5285Y11705D01*
Y11770D01*
X5274D01*
Y11865D01*
X5345D01*
Y12005D01*
X5145D01*
Y11865D01*
X5196D01*
Y11770D01*
X5158D01*
X5155Y11770D01*
X5155Y11770D01*
X5145D01*
Y11770D01*
X5145Y11770D01*
X5093D01*
Y11700D01*
Y11630D01*
X5093D01*
X5098Y11618D01*
X5019Y11539D01*
X4451D01*
X4285Y11705D01*
Y11770D01*
X4274D01*
Y11865D01*
X4345D01*
Y12005D01*
X4145D01*
Y11865D01*
X4196D01*
Y11770D01*
X4158D01*
X4155Y11770D01*
X4155Y11770D01*
X4145D01*
Y11770D01*
X4145Y11770D01*
X4093D01*
Y11700D01*
Y11630D01*
X4093D01*
X4098Y11618D01*
X4019Y11539D01*
X3451D01*
X3285Y11705D01*
Y11770D01*
X3274D01*
Y11865D01*
X3345D01*
Y12005D01*
X3145D01*
Y11865D01*
X3196D01*
Y11779D01*
X3187Y11770D01*
X3158D01*
X3155Y11770D01*
X3150D01*
X3145D01*
X3142Y11770D01*
X3093D01*
Y11700D01*
Y11630D01*
X3142D01*
X3145Y11630D01*
X3150D01*
X3155D01*
X3158Y11630D01*
X3250D01*
X3408Y11473D01*
X3420Y11464D01*
X3423Y11464D01*
X3435Y11461D01*
X4035D01*
X4050Y11464D01*
X4062Y11473D01*
X4220Y11630D01*
X4250D01*
X4408Y11473D01*
X4420Y11464D01*
X4423Y11464D01*
X4435Y11461D01*
X5035D01*
X5050Y11464D01*
X5062Y11473D01*
X5220Y11630D01*
X5250D01*
X5408Y11473D01*
X5420Y11464D01*
X5423Y11464D01*
X5435Y11461D01*
X6035D01*
X6050Y11464D01*
X6062Y11473D01*
X6220Y11630D01*
X6250D01*
X6408Y11473D01*
X6420Y11464D01*
X6423Y11464D01*
X6435Y11461D01*
X7035D01*
X7050Y11464D01*
X7062Y11473D01*
X7220Y11630D01*
X7250D01*
X7408Y11473D01*
X7420Y11464D01*
X7423Y11464D01*
X7435Y11461D01*
X8035D01*
X8050Y11464D01*
X8062Y11473D01*
X8220Y11630D01*
X8250D01*
X8408Y11473D01*
X8420Y11464D01*
X8423Y11464D01*
X8435Y11461D01*
X9035D01*
X9050Y11464D01*
X9062Y11473D01*
X9220Y11630D01*
X9250D01*
X9408Y11473D01*
X9420Y11464D01*
X9423Y11464D01*
X9435Y11461D01*
X10035D01*
X10050Y11464D01*
X10062Y11473D01*
X10220Y11630D01*
X10250D01*
X10408Y11473D01*
X10420Y11464D01*
X10423Y11464D01*
X10435Y11461D01*
X11035D01*
X11050Y11464D01*
X11062Y11473D01*
X11194Y11604D01*
X11206Y11600D01*
Y11477D01*
X11104Y11376D01*
X11096Y11363D01*
X11093Y11348D01*
Y11204D01*
X11096Y11189D01*
X11104Y11177D01*
X11206Y11075D01*
Y11005D01*
X11145D01*
Y10865D01*
X11196D01*
Y10770D01*
X11158D01*
X11155Y10770D01*
X11155Y10770D01*
X11145D01*
Y10770D01*
X11145Y10770D01*
X11093D01*
Y10700D01*
Y10630D01*
X11093D01*
X11098Y10618D01*
X11019Y10539D01*
X10451D01*
X10285Y10705D01*
Y10770D01*
X10274D01*
Y10865D01*
X10345D01*
Y11005D01*
X10145D01*
Y10865D01*
X10196D01*
Y10770D01*
X10158D01*
X10155Y10770D01*
X10155Y10770D01*
X10145D01*
Y10770D01*
X10145Y10770D01*
X10093D01*
Y10700D01*
Y10630D01*
X10093D01*
X10098Y10618D01*
X10019Y10539D01*
X9451D01*
X9285Y10705D01*
Y10770D01*
X9274D01*
Y10865D01*
X9345D01*
Y11005D01*
X9145D01*
Y10865D01*
X9196D01*
Y10770D01*
X9158D01*
X9155Y10770D01*
X9155Y10770D01*
X9145D01*
Y10770D01*
X9145Y10770D01*
X9093D01*
Y10700D01*
Y10630D01*
X9093D01*
X9098Y10618D01*
X9019Y10539D01*
X8451D01*
X8285Y10705D01*
Y10770D01*
X8274D01*
Y10865D01*
X8345D01*
Y11005D01*
X8145D01*
Y10865D01*
X8196D01*
Y10770D01*
X8158D01*
X8155Y10770D01*
X8155Y10770D01*
X8145D01*
Y10770D01*
X8145Y10770D01*
X8093D01*
Y10700D01*
Y10630D01*
X8093D01*
X8098Y10618D01*
X8019Y10539D01*
X7451D01*
X7285Y10705D01*
Y10770D01*
X7274D01*
Y10865D01*
X7345D01*
Y11005D01*
X7145D01*
Y10865D01*
X7196D01*
Y10770D01*
X7158D01*
X7155Y10770D01*
X7155Y10770D01*
X7145D01*
Y10770D01*
X7145Y10770D01*
X7093D01*
Y10700D01*
Y10630D01*
X7093D01*
X7098Y10618D01*
X7019Y10539D01*
X6451D01*
X6285Y10705D01*
Y10770D01*
X6274D01*
Y10865D01*
X6345D01*
Y11005D01*
X6145D01*
Y10865D01*
X6196D01*
Y10770D01*
X6158D01*
X6155Y10770D01*
X6155Y10770D01*
X6145D01*
Y10770D01*
X6145Y10770D01*
X6093D01*
Y10700D01*
Y10630D01*
X6093D01*
X6098Y10618D01*
X6019Y10539D01*
X5451D01*
X5285Y10705D01*
Y10770D01*
X5274D01*
Y10865D01*
X5345D01*
Y11005D01*
X5145D01*
Y10865D01*
X5196D01*
Y10770D01*
X5158D01*
X5155Y10770D01*
X5155Y10770D01*
X5145D01*
Y10770D01*
X5145Y10770D01*
X5093D01*
Y10700D01*
Y10630D01*
X5093D01*
X5098Y10618D01*
X5019Y10539D01*
X4451D01*
X4285Y10705D01*
Y10770D01*
X4274D01*
Y10865D01*
X4345D01*
Y11005D01*
X4145D01*
Y10865D01*
X4196D01*
Y10770D01*
X4158D01*
X4155Y10770D01*
X4155Y10770D01*
X4145D01*
Y10770D01*
X4145Y10770D01*
X4093D01*
Y10700D01*
Y10630D01*
X4093D01*
X4098Y10618D01*
X4019Y10539D01*
X3451D01*
X3285Y10705D01*
Y10770D01*
X3274D01*
Y10865D01*
X3345D01*
Y11005D01*
X3145D01*
Y10865D01*
X3196D01*
Y10779D01*
X3187Y10770D01*
X3158D01*
X3155Y10770D01*
X3150D01*
X3145D01*
X3142Y10770D01*
X3093D01*
Y10700D01*
Y10630D01*
X3142D01*
X3145Y10630D01*
X3150D01*
X3155D01*
X3158Y10630D01*
X3250D01*
X3408Y10473D01*
X3420Y10464D01*
X3435Y10461D01*
X4035D01*
X4050Y10464D01*
X4062Y10473D01*
X4220Y10630D01*
X4250D01*
X4408Y10473D01*
X4420Y10464D01*
X4435Y10461D01*
X5035D01*
X5050Y10464D01*
X5062Y10473D01*
X5220Y10630D01*
X5250D01*
X5408Y10473D01*
X5420Y10464D01*
X5435Y10461D01*
X6035D01*
X6050Y10464D01*
X6062Y10473D01*
X6220Y10630D01*
X6250D01*
X6408Y10473D01*
X6420Y10464D01*
X6435Y10461D01*
X7035D01*
X7050Y10464D01*
X7062Y10473D01*
X7220Y10630D01*
X7250D01*
X7408Y10473D01*
X7420Y10464D01*
X7435Y10461D01*
X8035D01*
X8050Y10464D01*
X8062Y10473D01*
X8220Y10630D01*
X8250D01*
X8408Y10473D01*
X8420Y10464D01*
X8435Y10461D01*
X9035D01*
X9050Y10464D01*
X9062Y10473D01*
X9220Y10630D01*
X9250D01*
X9408Y10473D01*
X9420Y10464D01*
X9435Y10461D01*
X10035D01*
X10050Y10464D01*
X10062Y10473D01*
X10220Y10630D01*
X10250D01*
X10408Y10473D01*
X10420Y10464D01*
X10435Y10461D01*
X11035D01*
X11050Y10464D01*
X11062Y10473D01*
X11220Y10630D01*
X11250D01*
X11408Y10473D01*
X11420Y10464D01*
X11435Y10461D01*
X12035D01*
X12050Y10464D01*
X12062Y10473D01*
X12220Y10630D01*
X12250D01*
X12319Y10561D01*
Y10335D01*
X12145D01*
Y10304D01*
X12090D01*
X12088Y10310D01*
X12073Y10328D01*
X12055Y10343D01*
X12033Y10352D01*
X12010Y10355D01*
X11987Y10352D01*
X11965Y10343D01*
X11947Y10328D01*
X11932Y10310D01*
X11923Y10288D01*
X11920Y10265D01*
X11923Y10242D01*
X11932Y10220D01*
X11947Y10202D01*
X11965Y10187D01*
X11987Y10178D01*
X12010Y10175D01*
X12033Y10178D01*
X12055Y10187D01*
X12073Y10202D01*
X12088Y10220D01*
X12090Y10226D01*
X12145D01*
Y10195D01*
X12277D01*
X12282Y10183D01*
X12218Y10119D01*
X12209Y10106D01*
X12206Y10091D01*
Y10005D01*
X12145D01*
Y9865D01*
X12196D01*
Y9770D01*
X12158D01*
X12155Y9770D01*
X12155Y9770D01*
X12145D01*
Y9770D01*
X12145Y9770D01*
X12093D01*
Y9700D01*
Y9630D01*
X12093D01*
X12098Y9618D01*
X12019Y9539D01*
X11451D01*
X11285Y9705D01*
Y9770D01*
X11274D01*
Y9865D01*
X11345D01*
Y10005D01*
X11145D01*
Y9865D01*
X11196D01*
Y9770D01*
X11158D01*
X11155Y9770D01*
X11155Y9770D01*
X11145D01*
Y9770D01*
X11145Y9770D01*
X11093D01*
Y9700D01*
Y9630D01*
X11093D01*
X11098Y9618D01*
X11019Y9539D01*
X10451D01*
X10285Y9705D01*
Y9770D01*
X10274D01*
Y9865D01*
X10345D01*
Y10005D01*
X10145D01*
Y9865D01*
X10196D01*
Y9770D01*
X10158D01*
X10155Y9770D01*
X10155Y9770D01*
X10145D01*
Y9770D01*
X10145Y9770D01*
X10093D01*
Y9700D01*
Y9630D01*
X10093D01*
X10098Y9618D01*
X10019Y9539D01*
X9451D01*
X9285Y9705D01*
Y9770D01*
X9274D01*
Y9865D01*
X9345D01*
Y10005D01*
X9145D01*
Y9865D01*
X9196D01*
Y9770D01*
X9158D01*
X9155Y9770D01*
X9155Y9770D01*
X9145D01*
Y9770D01*
X9145Y9770D01*
X9093D01*
Y9700D01*
Y9630D01*
X9093D01*
X9098Y9618D01*
X9019Y9539D01*
X8451D01*
X8285Y9705D01*
Y9770D01*
X8274D01*
Y9865D01*
X8345D01*
Y10005D01*
X8145D01*
Y9865D01*
X8196D01*
Y9770D01*
X8158D01*
X8155Y9770D01*
X8155Y9770D01*
X8145D01*
Y9770D01*
X8145Y9770D01*
X8093D01*
Y9700D01*
Y9630D01*
X8093D01*
X8098Y9618D01*
X8019Y9539D01*
X7451D01*
X7285Y9705D01*
Y9770D01*
X7274D01*
Y9865D01*
X7345D01*
Y10005D01*
X7145D01*
Y9865D01*
X7196D01*
Y9770D01*
X7158D01*
X7155Y9770D01*
X7155Y9770D01*
X7145D01*
Y9770D01*
X7145Y9770D01*
X7093D01*
Y9700D01*
Y9630D01*
X7093D01*
X7098Y9618D01*
X7019Y9539D01*
X6451D01*
X6285Y9705D01*
Y9770D01*
X6274D01*
Y9865D01*
X6345D01*
Y10005D01*
X6145D01*
Y9865D01*
X6196D01*
Y9770D01*
X6158D01*
X6155Y9770D01*
X6155Y9770D01*
X6145D01*
Y9770D01*
X6145Y9770D01*
X6093D01*
Y9700D01*
Y9630D01*
X6093D01*
X6098Y9618D01*
X6019Y9539D01*
X5451D01*
X5285Y9705D01*
Y9770D01*
X5274D01*
Y9865D01*
X5345D01*
Y10005D01*
X5145D01*
Y9865D01*
X5196D01*
Y9770D01*
X5158D01*
X5155Y9770D01*
X5155Y9770D01*
X5145D01*
Y9770D01*
X5145Y9770D01*
X5093D01*
Y9700D01*
Y9630D01*
X5093D01*
X5098Y9618D01*
X5019Y9539D01*
X4451D01*
X4285Y9705D01*
Y9770D01*
X4274D01*
Y9865D01*
X4345D01*
Y10005D01*
X4145D01*
Y9865D01*
X4196D01*
Y9770D01*
X4158D01*
X4155Y9770D01*
X4155Y9770D01*
X4145D01*
Y9770D01*
X4145Y9770D01*
X4093D01*
Y9700D01*
Y9630D01*
X4093D01*
X4098Y9618D01*
X4019Y9539D01*
X3451D01*
X3285Y9705D01*
Y9770D01*
X3274D01*
Y9865D01*
X3345D01*
Y10005D01*
X3145D01*
Y9865D01*
X3196D01*
Y9779D01*
X3187Y9770D01*
X3158D01*
X3155Y9770D01*
X3150D01*
X3145D01*
X3142Y9770D01*
X3093D01*
Y9700D01*
Y9630D01*
X3142D01*
X3145Y9630D01*
X3150D01*
X3155D01*
X3158Y9630D01*
X3250D01*
X3408Y9473D01*
X3420Y9464D01*
X3435Y9461D01*
X4035D01*
X4050Y9464D01*
X4062Y9473D01*
X4220Y9630D01*
X4250D01*
X4408Y9473D01*
X4420Y9464D01*
X4435Y9461D01*
X5035D01*
X5050Y9464D01*
X5062Y9473D01*
X5220Y9630D01*
X5250D01*
X5408Y9473D01*
X5420Y9464D01*
X5435Y9461D01*
X6035D01*
X6050Y9464D01*
X6062Y9473D01*
X6220Y9630D01*
X6250D01*
X6408Y9473D01*
X6420Y9464D01*
X6435Y9461D01*
X7035D01*
X7050Y9464D01*
X7062Y9473D01*
X7220Y9630D01*
X7250D01*
X7408Y9473D01*
X7420Y9464D01*
X7435Y9461D01*
X8035D01*
X8050Y9464D01*
X8062Y9473D01*
X8220Y9630D01*
X8250D01*
X8408Y9473D01*
X8420Y9464D01*
X8435Y9461D01*
X9035D01*
X9050Y9464D01*
X9062Y9473D01*
X9220Y9630D01*
X9250D01*
X9408Y9473D01*
X9420Y9464D01*
X9435Y9461D01*
X10035D01*
X10050Y9464D01*
X10062Y9473D01*
X10220Y9630D01*
X10250D01*
X10408Y9473D01*
X10420Y9464D01*
X10435Y9461D01*
X11035D01*
X11050Y9464D01*
X11062Y9473D01*
X11220Y9630D01*
X11250D01*
X11408Y9473D01*
X11420Y9464D01*
X11435Y9461D01*
X12035D01*
X12050Y9464D01*
X12062Y9473D01*
X12220Y9630D01*
X12250D01*
X12319Y9561D01*
Y9335D01*
X12145D01*
Y9304D01*
X12095D01*
X12093Y9310D01*
X12078Y9328D01*
X12060Y9343D01*
X12038Y9352D01*
X12015Y9355D01*
X11992Y9352D01*
X11970Y9343D01*
X11952Y9328D01*
X11937Y9310D01*
X11928Y9288D01*
X11925Y9265D01*
X11928Y9242D01*
X11937Y9220D01*
X11952Y9202D01*
X11970Y9187D01*
X11992Y9178D01*
X12015Y9175D01*
X12038Y9178D01*
X12060Y9187D01*
X12078Y9202D01*
X12093Y9220D01*
X12095Y9226D01*
X12145D01*
Y9195D01*
X12277D01*
X12282Y9183D01*
X12218Y9119D01*
X12209Y9106D01*
X12206Y9091D01*
Y9005D01*
X12145D01*
Y8865D01*
X12196D01*
Y8770D01*
X12158D01*
X12155Y8770D01*
X12155Y8770D01*
X12145D01*
Y8770D01*
X12145Y8770D01*
X12093D01*
Y8700D01*
Y8630D01*
X12093D01*
X12098Y8618D01*
X12019Y8539D01*
X11451D01*
X11285Y8705D01*
Y8770D01*
X11274D01*
Y8865D01*
X11345D01*
Y9005D01*
X11145D01*
Y8865D01*
X11196D01*
Y8770D01*
X11158D01*
X11155Y8770D01*
X11155Y8770D01*
X11145D01*
Y8770D01*
X11145Y8770D01*
X11093D01*
Y8700D01*
Y8630D01*
X11093D01*
X11098Y8618D01*
X11019Y8539D01*
X10451D01*
X10285Y8705D01*
Y8770D01*
X10274D01*
Y8865D01*
X10345D01*
Y9005D01*
X10145D01*
Y8865D01*
X10196D01*
Y8770D01*
X10158D01*
X10155Y8770D01*
X10155Y8770D01*
X10145D01*
Y8770D01*
X10145Y8770D01*
X10093D01*
Y8700D01*
Y8630D01*
X10093D01*
X10098Y8618D01*
X10019Y8539D01*
X9451D01*
X9285Y8705D01*
Y8770D01*
X9274D01*
Y8865D01*
X9345D01*
Y9005D01*
X9145D01*
Y8865D01*
X9196D01*
Y8770D01*
X9158D01*
X9155Y8770D01*
X9155Y8770D01*
X9145D01*
Y8770D01*
X9145Y8770D01*
X9093D01*
Y8700D01*
Y8630D01*
X9093D01*
X9098Y8618D01*
X9019Y8539D01*
X8451D01*
X8285Y8705D01*
Y8770D01*
X8274D01*
Y8865D01*
X8345D01*
Y9005D01*
X8145D01*
Y8865D01*
X8196D01*
Y8770D01*
X8158D01*
X8155Y8770D01*
X8155Y8770D01*
X8145D01*
Y8770D01*
X8145Y8770D01*
X8093D01*
Y8700D01*
Y8630D01*
X8093D01*
X8098Y8618D01*
X8019Y8539D01*
X7451D01*
X7285Y8705D01*
Y8770D01*
X7274D01*
Y8865D01*
X7345D01*
Y9005D01*
X7145D01*
Y8865D01*
X7196D01*
Y8770D01*
X7158D01*
X7155Y8770D01*
X7155Y8770D01*
X7145D01*
Y8770D01*
X7145Y8770D01*
X7093D01*
Y8700D01*
Y8630D01*
X7093D01*
X7098Y8618D01*
X7019Y8539D01*
X6451D01*
X6285Y8705D01*
Y8770D01*
X6274D01*
Y8865D01*
X6345D01*
Y9005D01*
X6145D01*
Y8865D01*
X6196D01*
Y8770D01*
X6158D01*
X6155Y8770D01*
X6155Y8770D01*
X6145D01*
Y8770D01*
X6145Y8770D01*
X6093D01*
Y8700D01*
Y8630D01*
X6093D01*
X6098Y8618D01*
X6019Y8539D01*
X5451D01*
X5285Y8705D01*
Y8770D01*
X5274D01*
Y8865D01*
X5345D01*
Y9005D01*
X5145D01*
Y8865D01*
X5196D01*
Y8770D01*
X5158D01*
X5155Y8770D01*
X5155Y8770D01*
X5145D01*
Y8770D01*
X5145Y8770D01*
X5093D01*
Y8700D01*
Y8630D01*
X5093D01*
X5098Y8618D01*
X5019Y8539D01*
X4451D01*
X4285Y8705D01*
Y8770D01*
X4274D01*
Y8865D01*
X4345D01*
Y9005D01*
X4145D01*
Y8865D01*
X4196D01*
Y8770D01*
X4158D01*
X4155Y8770D01*
X4155Y8770D01*
X4145D01*
Y8770D01*
X4145Y8770D01*
X4093D01*
Y8700D01*
Y8630D01*
X4093D01*
X4098Y8618D01*
X4019Y8539D01*
X3451D01*
X3285Y8705D01*
Y8770D01*
X3274D01*
Y8865D01*
X3345D01*
Y9005D01*
X3145D01*
Y8865D01*
X3196D01*
Y8779D01*
X3187Y8770D01*
X3158D01*
X3155Y8770D01*
X3150D01*
X3145D01*
X3142Y8770D01*
X3093D01*
Y8700D01*
Y8630D01*
X3142D01*
X3145Y8630D01*
X3150D01*
X3155D01*
X3158Y8630D01*
X3250D01*
X3408Y8473D01*
X3420Y8464D01*
X3435Y8461D01*
X4035D01*
X4050Y8464D01*
X4062Y8473D01*
X4220Y8630D01*
X4250D01*
X4408Y8473D01*
X4420Y8464D01*
X4435Y8461D01*
X5035D01*
X5050Y8464D01*
X5062Y8473D01*
X5220Y8630D01*
X5250D01*
X5408Y8473D01*
X5420Y8464D01*
X5435Y8461D01*
X6035D01*
X6050Y8464D01*
X6062Y8473D01*
X6220Y8630D01*
X6250D01*
X6408Y8473D01*
X6420Y8464D01*
X6435Y8461D01*
X7035D01*
X7050Y8464D01*
X7062Y8473D01*
X7220Y8630D01*
X7250D01*
X7408Y8473D01*
X7420Y8464D01*
X7435Y8461D01*
X8035D01*
X8050Y8464D01*
X8062Y8473D01*
X8220Y8630D01*
X8250D01*
X8408Y8473D01*
X8420Y8464D01*
X8435Y8461D01*
X9035D01*
X9050Y8464D01*
X9062Y8473D01*
X9220Y8630D01*
X9250D01*
X9408Y8473D01*
X9420Y8464D01*
X9435Y8461D01*
X10035D01*
X10050Y8464D01*
X10062Y8473D01*
X10220Y8630D01*
X10250D01*
X10408Y8473D01*
X10420Y8464D01*
X10435Y8461D01*
X11035D01*
X11050Y8464D01*
X11062Y8473D01*
X11220Y8630D01*
X11250D01*
X11408Y8473D01*
X11420Y8464D01*
X11435Y8461D01*
X12035D01*
X12050Y8464D01*
X12062Y8473D01*
X12220Y8630D01*
X12250D01*
X12319Y8561D01*
Y8335D01*
X12145D01*
Y8304D01*
X12090D01*
X12088Y8310D01*
X12073Y8328D01*
X12055Y8343D01*
X12033Y8352D01*
X12010Y8355D01*
X11987Y8352D01*
X11965Y8343D01*
X11947Y8328D01*
X11932Y8310D01*
X11923Y8288D01*
X11920Y8265D01*
X11923Y8242D01*
X11932Y8220D01*
X11947Y8202D01*
X11965Y8187D01*
X11987Y8178D01*
X12010Y8175D01*
X12033Y8178D01*
X12055Y8187D01*
X12073Y8202D01*
X12088Y8220D01*
X12090Y8226D01*
X12145D01*
Y8195D01*
X12277D01*
X12282Y8183D01*
X12218Y8119D01*
X12209Y8106D01*
X12206Y8091D01*
Y8005D01*
X12145D01*
Y7865D01*
X12196D01*
Y7770D01*
X12158D01*
X12155Y7770D01*
X12155Y7770D01*
X12145D01*
Y7770D01*
X12145Y7770D01*
X12093D01*
Y7700D01*
Y7630D01*
X12093D01*
X12098Y7618D01*
X12019Y7539D01*
X11451D01*
X11285Y7705D01*
Y7770D01*
X11274D01*
Y7865D01*
X11345D01*
Y8005D01*
X11145D01*
Y7865D01*
X11196D01*
Y7770D01*
X11158D01*
X11155Y7770D01*
X11155Y7770D01*
X11145D01*
Y7770D01*
X11145Y7770D01*
X11093D01*
Y7700D01*
Y7630D01*
X11093D01*
X11098Y7618D01*
X11019Y7539D01*
X10451D01*
X10285Y7705D01*
Y7770D01*
X10274D01*
Y7865D01*
X10345D01*
Y8005D01*
X10145D01*
Y7865D01*
X10196D01*
Y7770D01*
X10158D01*
X10155Y7770D01*
X10155Y7770D01*
X10145D01*
Y7770D01*
X10145Y7770D01*
X10093D01*
Y7700D01*
Y7630D01*
X10093D01*
X10098Y7618D01*
X10019Y7539D01*
X9451D01*
X9285Y7705D01*
Y7770D01*
X9274D01*
Y7865D01*
X9345D01*
Y8005D01*
X9145D01*
Y7865D01*
X9196D01*
Y7770D01*
X9158D01*
X9155Y7770D01*
X9155Y7770D01*
X9145D01*
Y7770D01*
X9145Y7770D01*
X9093D01*
Y7700D01*
Y7630D01*
X9093D01*
X9098Y7618D01*
X9019Y7539D01*
X8451D01*
X8285Y7705D01*
Y7770D01*
X8274D01*
Y7865D01*
X8345D01*
Y8005D01*
X8145D01*
Y7865D01*
X8196D01*
Y7770D01*
X8158D01*
X8155Y7770D01*
X8155Y7770D01*
X8145D01*
Y7770D01*
X8145Y7770D01*
X8093D01*
Y7700D01*
Y7630D01*
X8093D01*
X8098Y7618D01*
X8019Y7539D01*
X7451D01*
X7285Y7705D01*
Y7770D01*
X7274D01*
Y7865D01*
X7345D01*
Y8005D01*
X7145D01*
Y7865D01*
X7196D01*
Y7770D01*
X7158D01*
X7155Y7770D01*
X7155Y7770D01*
X7145D01*
Y7770D01*
X7145Y7770D01*
X7093D01*
Y7700D01*
Y7630D01*
X7093D01*
X7098Y7618D01*
X7019Y7539D01*
X6451D01*
X6285Y7705D01*
Y7770D01*
X6274D01*
Y7865D01*
X6345D01*
Y8005D01*
X6145D01*
Y7865D01*
X6196D01*
Y7770D01*
X6158D01*
X6155Y7770D01*
X6155Y7770D01*
X6145D01*
Y7770D01*
X6145Y7770D01*
X6093D01*
Y7700D01*
Y7630D01*
X6093D01*
X6098Y7618D01*
X6019Y7539D01*
X5451D01*
X5285Y7705D01*
Y7770D01*
X5274D01*
Y7865D01*
X5345D01*
Y8005D01*
X5145D01*
Y7865D01*
X5196D01*
Y7770D01*
X5158D01*
X5155Y7770D01*
X5155Y7770D01*
X5145D01*
Y7770D01*
X5145Y7770D01*
X5093D01*
Y7700D01*
Y7630D01*
X5093D01*
X5098Y7618D01*
X5019Y7539D01*
X4451D01*
X4285Y7705D01*
Y7770D01*
X4274D01*
Y7865D01*
X4345D01*
Y8005D01*
X4145D01*
Y7865D01*
X4196D01*
Y7770D01*
X4158D01*
X4155Y7770D01*
X4155Y7770D01*
X4145D01*
Y7770D01*
X4145Y7770D01*
X4093D01*
Y7700D01*
Y7630D01*
X4093D01*
X4098Y7618D01*
X4019Y7539D01*
X3451D01*
X3285Y7705D01*
Y7770D01*
X3274D01*
Y7865D01*
X3345D01*
Y8005D01*
X3145D01*
Y7865D01*
X3196D01*
Y7779D01*
X3187Y7770D01*
X3158D01*
X3155Y7770D01*
X3150D01*
X3145D01*
X3142Y7770D01*
X3093D01*
Y7700D01*
Y7630D01*
X3142D01*
X3145Y7630D01*
X3150D01*
X3155D01*
X3158Y7630D01*
X3250D01*
X3408Y7473D01*
X3420Y7464D01*
X3435Y7461D01*
X4035D01*
X4050Y7464D01*
X4062Y7473D01*
X4220Y7630D01*
X4250D01*
X4408Y7473D01*
X4420Y7464D01*
X4435Y7461D01*
X5035D01*
X5050Y7464D01*
X5062Y7473D01*
X5220Y7630D01*
X5250D01*
X5408Y7473D01*
X5420Y7464D01*
X5435Y7461D01*
X6035D01*
X6050Y7464D01*
X6062Y7473D01*
X6220Y7630D01*
X6250D01*
X6408Y7473D01*
X6420Y7464D01*
X6435Y7461D01*
X7035D01*
X7050Y7464D01*
X7062Y7473D01*
X7220Y7630D01*
X7250D01*
X7408Y7473D01*
X7420Y7464D01*
X7435Y7461D01*
X8035D01*
X8050Y7464D01*
X8062Y7473D01*
X8220Y7630D01*
X8250D01*
X8408Y7473D01*
X8420Y7464D01*
X8435Y7461D01*
X9035D01*
X9050Y7464D01*
X9062Y7473D01*
X9220Y7630D01*
X9250D01*
X9408Y7473D01*
X9420Y7464D01*
X9435Y7461D01*
X10035D01*
X10050Y7464D01*
X10062Y7473D01*
X10220Y7630D01*
X10250D01*
X10408Y7473D01*
X10420Y7464D01*
X10435Y7461D01*
X11035D01*
X11050Y7464D01*
X11062Y7473D01*
X11220Y7630D01*
X11250D01*
X11408Y7473D01*
X11420Y7464D01*
X11435Y7461D01*
X12035D01*
X12050Y7464D01*
X12062Y7473D01*
X12220Y7630D01*
X12250D01*
X12319Y7561D01*
Y7335D01*
X12145D01*
Y7304D01*
X12090D01*
X12088Y7310D01*
X12073Y7328D01*
X12055Y7343D01*
X12033Y7352D01*
X12010Y7355D01*
X11987Y7352D01*
X11965Y7343D01*
X11947Y7328D01*
X11932Y7310D01*
X11923Y7288D01*
X11920Y7265D01*
X11923Y7242D01*
X11932Y7220D01*
X11947Y7202D01*
X11965Y7187D01*
X11987Y7178D01*
X12010Y7175D01*
X12033Y7178D01*
X12055Y7187D01*
X12073Y7202D01*
X12088Y7220D01*
X12090Y7226D01*
X12145D01*
Y7195D01*
X12277D01*
X12282Y7183D01*
X12218Y7119D01*
X12209Y7106D01*
X12206Y7091D01*
Y7005D01*
X12145D01*
Y6865D01*
X12206D01*
Y6770D01*
X12158D01*
X12155Y6770D01*
X12155Y6770D01*
X12145D01*
Y6770D01*
X12145Y6770D01*
X12093D01*
Y6700D01*
Y6630D01*
X12093D01*
X12098Y6618D01*
X12019Y6539D01*
X11451D01*
X11285Y6705D01*
Y6770D01*
X11274D01*
Y6865D01*
X11345D01*
Y7005D01*
X11145D01*
Y6865D01*
X11196D01*
Y6770D01*
X11158D01*
X11155Y6770D01*
X11155Y6770D01*
X11145D01*
Y6770D01*
X11145Y6770D01*
X11093D01*
Y6700D01*
Y6630D01*
X11093D01*
X11098Y6618D01*
X11019Y6539D01*
X10451D01*
X10285Y6705D01*
Y6770D01*
X10274D01*
Y6865D01*
X10345D01*
Y7005D01*
X10145D01*
Y6865D01*
X10196D01*
Y6770D01*
X10158D01*
X10155Y6770D01*
X10155Y6770D01*
X10145D01*
Y6770D01*
X10145Y6770D01*
X10093D01*
Y6700D01*
Y6630D01*
X10093D01*
X10098Y6618D01*
X10019Y6539D01*
X9451D01*
X9285Y6705D01*
Y6770D01*
X9274D01*
Y6865D01*
X9345D01*
Y7005D01*
X9145D01*
Y6865D01*
X9196D01*
Y6770D01*
X9158D01*
X9155Y6770D01*
X9155Y6770D01*
X9145D01*
Y6770D01*
X9145Y6770D01*
X9093D01*
Y6700D01*
Y6630D01*
X9093D01*
X9098Y6618D01*
X9019Y6539D01*
X8451D01*
X8285Y6705D01*
Y6770D01*
X8274D01*
Y6865D01*
X8345D01*
Y7005D01*
X8145D01*
Y6865D01*
X8196D01*
Y6770D01*
X8158D01*
X8155Y6770D01*
X8155Y6770D01*
X8145D01*
Y6770D01*
X8145Y6770D01*
X8093D01*
Y6700D01*
Y6630D01*
X8093D01*
X8098Y6618D01*
X8019Y6539D01*
X7451D01*
X7285Y6705D01*
Y6770D01*
X7274D01*
Y6865D01*
X7345D01*
Y7005D01*
X7145D01*
Y6865D01*
X7196D01*
Y6770D01*
X7158D01*
X7155Y6770D01*
X7155Y6770D01*
X7145D01*
Y6770D01*
X7145Y6770D01*
X7093D01*
Y6700D01*
Y6630D01*
X7093D01*
X7098Y6618D01*
X7019Y6539D01*
X6451D01*
X6285Y6705D01*
Y6770D01*
X6274D01*
Y6865D01*
X6345D01*
Y7005D01*
X6145D01*
Y6865D01*
X6196D01*
Y6770D01*
X6158D01*
X6155Y6770D01*
X6155Y6770D01*
X6145D01*
Y6770D01*
X6145Y6770D01*
X6093D01*
Y6700D01*
Y6630D01*
X6093D01*
X6098Y6618D01*
X6019Y6539D01*
X5451D01*
X5285Y6705D01*
Y6770D01*
X5274D01*
Y6865D01*
X5345D01*
Y7005D01*
X5145D01*
Y6865D01*
X5196D01*
Y6770D01*
X5158D01*
X5155Y6770D01*
X5155Y6770D01*
X5145D01*
Y6770D01*
X5145Y6770D01*
X5093D01*
Y6700D01*
Y6630D01*
X5093D01*
X5098Y6618D01*
X5019Y6539D01*
X4451D01*
X4285Y6705D01*
Y6770D01*
X4274D01*
Y6865D01*
X4345D01*
Y7005D01*
X4145D01*
Y6865D01*
X4196D01*
Y6770D01*
X4158D01*
X4155Y6770D01*
X4155Y6770D01*
X4145D01*
Y6770D01*
X4145Y6770D01*
X4093D01*
Y6700D01*
Y6630D01*
X4093D01*
X4098Y6618D01*
X4019Y6539D01*
X3451D01*
X3285Y6705D01*
Y6770D01*
X3274D01*
Y6865D01*
X3345D01*
Y7005D01*
X3145D01*
Y6865D01*
X3196D01*
Y6779D01*
X3187Y6770D01*
X3158D01*
X3155Y6770D01*
X3150D01*
X3145D01*
X3142Y6770D01*
X3093D01*
Y6700D01*
Y6630D01*
X3142D01*
X3145Y6630D01*
X3150D01*
X3155D01*
X3158Y6630D01*
X3250D01*
X3408Y6473D01*
X3420Y6464D01*
X3435Y6461D01*
X4035D01*
X4050Y6464D01*
X4062Y6473D01*
X4220Y6630D01*
X4250D01*
X4408Y6473D01*
X4420Y6464D01*
X4435Y6461D01*
X5035D01*
X5050Y6464D01*
X5062Y6473D01*
X5220Y6630D01*
X5250D01*
X5408Y6473D01*
X5420Y6464D01*
X5435Y6461D01*
X6035D01*
X6050Y6464D01*
X6062Y6473D01*
X6220Y6630D01*
X6250D01*
X6408Y6473D01*
X6420Y6464D01*
X6435Y6461D01*
X7035D01*
X7050Y6464D01*
X7062Y6473D01*
X7220Y6630D01*
X7250D01*
X7408Y6473D01*
X7420Y6464D01*
X7435Y6461D01*
X8035D01*
X8050Y6464D01*
X8062Y6473D01*
X8220Y6630D01*
X8250D01*
X8408Y6473D01*
X8420Y6464D01*
X8435Y6461D01*
X9035D01*
X9050Y6464D01*
X9062Y6473D01*
X9220Y6630D01*
X9250D01*
X9408Y6473D01*
X9420Y6464D01*
X9435Y6461D01*
X10035D01*
X10050Y6464D01*
X10062Y6473D01*
X10220Y6630D01*
X10250D01*
X10408Y6473D01*
X10420Y6464D01*
X10435Y6461D01*
X11035D01*
X11050Y6464D01*
X11062Y6473D01*
X11220Y6630D01*
X11250D01*
X11408Y6473D01*
X11420Y6464D01*
X11435Y6461D01*
X12035D01*
X12050Y6464D01*
X12062Y6473D01*
X12220Y6630D01*
X12250D01*
X12319Y6561D01*
Y6335D01*
X12145D01*
Y6304D01*
X12090D01*
X12088Y6310D01*
X12073Y6328D01*
X12055Y6343D01*
X12033Y6352D01*
X12010Y6355D01*
X11987Y6352D01*
X11965Y6343D01*
X11947Y6328D01*
X11932Y6310D01*
X11923Y6288D01*
X11920Y6265D01*
X11923Y6242D01*
X11932Y6220D01*
X11947Y6202D01*
X11965Y6187D01*
X11987Y6178D01*
X12010Y6175D01*
X12033Y6178D01*
X12055Y6187D01*
X12073Y6202D01*
X12088Y6220D01*
X12090Y6226D01*
X12145D01*
Y6195D01*
X12277D01*
X12282Y6183D01*
X12218Y6119D01*
X12209Y6106D01*
X12206Y6091D01*
Y6005D01*
X12145D01*
Y5865D01*
X12206D01*
Y5770D01*
X12158D01*
X12155Y5770D01*
X12155Y5770D01*
X12145D01*
Y5770D01*
X12145Y5770D01*
X12093D01*
Y5700D01*
Y5630D01*
X12093D01*
X12098Y5618D01*
X12019Y5539D01*
X11451D01*
X11285Y5705D01*
Y5770D01*
X11274D01*
Y5865D01*
X11345D01*
Y6005D01*
X11145D01*
Y5865D01*
X11196D01*
Y5770D01*
X11158D01*
X11155Y5770D01*
X11155Y5770D01*
X11145D01*
Y5770D01*
X11145Y5770D01*
X11093D01*
Y5700D01*
Y5630D01*
X11093D01*
X11098Y5618D01*
X11019Y5539D01*
X10451D01*
X10285Y5705D01*
Y5770D01*
X10274D01*
Y5865D01*
X10345D01*
Y6005D01*
X10145D01*
Y5865D01*
X10196D01*
Y5770D01*
X10158D01*
X10155Y5770D01*
X10155Y5770D01*
X10145D01*
Y5770D01*
X10145Y5770D01*
X10093D01*
Y5700D01*
Y5630D01*
X10093D01*
X10098Y5618D01*
X10019Y5539D01*
X9451D01*
X9285Y5705D01*
Y5770D01*
X9274D01*
Y5865D01*
X9345D01*
Y6005D01*
X9145D01*
Y5865D01*
X9196D01*
Y5770D01*
X9158D01*
X9155Y5770D01*
X9155Y5770D01*
X9145D01*
Y5770D01*
X9145Y5770D01*
X9093D01*
Y5700D01*
Y5630D01*
X9093D01*
X9098Y5618D01*
X9019Y5539D01*
X8451D01*
X8285Y5705D01*
Y5770D01*
X8274D01*
Y5865D01*
X8345D01*
Y6005D01*
X8145D01*
Y5865D01*
X8196D01*
Y5770D01*
X8158D01*
X8155Y5770D01*
X8155Y5770D01*
X8145D01*
Y5770D01*
X8145Y5770D01*
X8093D01*
Y5700D01*
Y5630D01*
X8093D01*
X8098Y5618D01*
X8019Y5539D01*
X7451D01*
X7285Y5705D01*
Y5770D01*
X7274D01*
Y5865D01*
X7345D01*
Y6005D01*
X7145D01*
Y5865D01*
X7196D01*
Y5770D01*
X7158D01*
X7155Y5770D01*
X7155Y5770D01*
X7145D01*
Y5770D01*
X7145Y5770D01*
X7093D01*
Y5700D01*
Y5630D01*
X7093D01*
X7098Y5618D01*
X7019Y5539D01*
X6451D01*
X6285Y5705D01*
Y5770D01*
X6274D01*
Y5865D01*
X6345D01*
Y6005D01*
X6145D01*
Y5865D01*
X6196D01*
Y5770D01*
X6158D01*
X6155Y5770D01*
X6155Y5770D01*
X6145D01*
Y5770D01*
X6145Y5770D01*
X6093D01*
Y5700D01*
Y5630D01*
X6093D01*
X6098Y5618D01*
X6019Y5539D01*
X5451D01*
X5285Y5705D01*
Y5770D01*
X5274D01*
Y5865D01*
X5345D01*
Y6005D01*
X5145D01*
Y5865D01*
X5196D01*
Y5770D01*
X5158D01*
X5155Y5770D01*
X5155Y5770D01*
X5145D01*
Y5770D01*
X5145Y5770D01*
X5093D01*
Y5700D01*
Y5630D01*
X5093D01*
X5098Y5618D01*
X5019Y5539D01*
X4451D01*
X4285Y5705D01*
Y5770D01*
X4274D01*
Y5865D01*
X4345D01*
Y6005D01*
X4145D01*
Y5865D01*
X4196D01*
Y5770D01*
X4158D01*
X4155Y5770D01*
X4155Y5770D01*
X4145D01*
Y5770D01*
X4145Y5770D01*
X4093D01*
Y5700D01*
Y5630D01*
X4093D01*
X4098Y5618D01*
X4019Y5539D01*
X3451D01*
X3285Y5705D01*
Y5770D01*
X3274D01*
Y5865D01*
X3345D01*
Y6005D01*
X3145D01*
Y5865D01*
X3196D01*
Y5779D01*
X3187Y5770D01*
X3158D01*
X3155Y5770D01*
X3150D01*
X3145D01*
X3142Y5770D01*
X3093D01*
Y5700D01*
Y5630D01*
X3142D01*
X3145Y5630D01*
X3150D01*
X3155D01*
X3158Y5630D01*
X3250D01*
X3408Y5473D01*
X3420Y5464D01*
X3435Y5461D01*
X4035D01*
X4050Y5464D01*
X4062Y5473D01*
X4220Y5630D01*
X4250D01*
X4408Y5473D01*
X4420Y5464D01*
X4435Y5461D01*
X5035D01*
X5050Y5464D01*
X5062Y5473D01*
X5220Y5630D01*
X5250D01*
X5408Y5473D01*
X5420Y5464D01*
X5435Y5461D01*
X6035D01*
X6050Y5464D01*
X6062Y5473D01*
X6220Y5630D01*
X6250D01*
X6408Y5473D01*
X6420Y5464D01*
X6435Y5461D01*
X7035D01*
X7050Y5464D01*
X7062Y5473D01*
X7220Y5630D01*
X7250D01*
X7408Y5473D01*
X7420Y5464D01*
X7435Y5461D01*
X8035D01*
X8050Y5464D01*
X8062Y5473D01*
X8220Y5630D01*
X8250D01*
X8408Y5473D01*
X8420Y5464D01*
X8435Y5461D01*
X9035D01*
X9050Y5464D01*
X9062Y5473D01*
X9220Y5630D01*
X9250D01*
X9408Y5473D01*
X9420Y5464D01*
X9435Y5461D01*
X10035D01*
X10050Y5464D01*
X10062Y5473D01*
X10220Y5630D01*
X10250D01*
X10408Y5473D01*
X10420Y5464D01*
X10435Y5461D01*
X11035D01*
X11050Y5464D01*
X11062Y5473D01*
X11220Y5630D01*
X11250D01*
X11408Y5473D01*
X11420Y5464D01*
X11435Y5461D01*
X12035D01*
X12050Y5464D01*
X12062Y5473D01*
X12220Y5630D01*
X12250D01*
X12319Y5561D01*
Y5335D01*
X12145D01*
Y5304D01*
X12090D01*
X12088Y5310D01*
X12073Y5328D01*
X12055Y5343D01*
X12033Y5352D01*
X12010Y5355D01*
X11987Y5352D01*
X11965Y5343D01*
X11947Y5328D01*
X11932Y5310D01*
X11923Y5288D01*
X11920Y5265D01*
X11923Y5242D01*
X11932Y5220D01*
X11947Y5202D01*
X11965Y5187D01*
X11987Y5178D01*
X12010Y5175D01*
X12033Y5178D01*
X12055Y5187D01*
X12073Y5202D01*
X12088Y5220D01*
X12090Y5226D01*
X12145D01*
Y5195D01*
X12277D01*
X12282Y5183D01*
X12218Y5119D01*
X12209Y5106D01*
X12206Y5091D01*
Y5005D01*
X12145D01*
Y4865D01*
X12196D01*
Y4770D01*
X12158D01*
X12155Y4770D01*
X12155Y4770D01*
X12145D01*
Y4770D01*
X12145Y4770D01*
X12093D01*
Y4700D01*
Y4630D01*
X12093D01*
X12098Y4618D01*
X12019Y4539D01*
X11451D01*
X11285Y4705D01*
Y4770D01*
X11274D01*
Y4865D01*
X11345D01*
Y5005D01*
X11145D01*
Y4865D01*
X11196D01*
Y4770D01*
X11158D01*
X11155Y4770D01*
X11155Y4770D01*
X11145D01*
Y4770D01*
X11145Y4770D01*
X11093D01*
Y4700D01*
Y4630D01*
X11093D01*
X11098Y4618D01*
X11019Y4539D01*
X10451D01*
X10285Y4705D01*
Y4770D01*
X10274D01*
Y4865D01*
X10345D01*
Y5005D01*
X10145D01*
Y4865D01*
X10196D01*
Y4770D01*
X10158D01*
X10155Y4770D01*
X10155Y4770D01*
X10145D01*
Y4770D01*
X10145Y4770D01*
X10093D01*
Y4700D01*
Y4630D01*
X10093D01*
X10098Y4618D01*
X10019Y4539D01*
X9451D01*
X9285Y4705D01*
Y4770D01*
X9274D01*
Y4865D01*
X9345D01*
Y5005D01*
X9145D01*
Y4865D01*
X9196D01*
Y4770D01*
X9158D01*
X9155Y4770D01*
X9155Y4770D01*
X9145D01*
Y4770D01*
X9145Y4770D01*
X9093D01*
Y4700D01*
Y4630D01*
X9093D01*
X9098Y4618D01*
X9019Y4539D01*
X8451D01*
X8285Y4705D01*
Y4770D01*
X8274D01*
Y4865D01*
X8345D01*
Y5005D01*
X8145D01*
Y4865D01*
X8196D01*
Y4770D01*
X8158D01*
X8155Y4770D01*
X8155Y4770D01*
X8145D01*
Y4770D01*
X8145Y4770D01*
X8093D01*
Y4700D01*
Y4630D01*
X8093D01*
X8098Y4618D01*
X8019Y4539D01*
X7451D01*
X7285Y4705D01*
Y4770D01*
X7274D01*
Y4865D01*
X7345D01*
Y5005D01*
X7145D01*
Y4865D01*
X7196D01*
Y4770D01*
X7158D01*
X7155Y4770D01*
X7155Y4770D01*
X7145D01*
Y4770D01*
X7145Y4770D01*
X7093D01*
Y4700D01*
Y4630D01*
X7093D01*
X7098Y4618D01*
X7019Y4539D01*
X6451D01*
X6285Y4705D01*
Y4770D01*
X6274D01*
Y4865D01*
X6345D01*
Y5005D01*
X6145D01*
Y4865D01*
X6196D01*
Y4770D01*
X6158D01*
X6155Y4770D01*
X6155Y4770D01*
X6145D01*
Y4770D01*
X6145Y4770D01*
X6093D01*
Y4700D01*
Y4630D01*
X6093D01*
X6098Y4618D01*
X6019Y4539D01*
X5451D01*
X5285Y4705D01*
Y4770D01*
X5274D01*
Y4865D01*
X5345D01*
Y5005D01*
X5145D01*
Y4865D01*
X5196D01*
Y4770D01*
X5158D01*
X5155Y4770D01*
X5155Y4770D01*
X5145D01*
Y4770D01*
X5145Y4770D01*
X5093D01*
Y4700D01*
Y4630D01*
X5093D01*
X5098Y4618D01*
X5019Y4539D01*
X4451D01*
X4285Y4705D01*
Y4770D01*
X4274D01*
Y4865D01*
X4345D01*
Y5005D01*
X4145D01*
Y4865D01*
X4196D01*
Y4770D01*
X4158D01*
X4155Y4770D01*
X4155Y4770D01*
X4145D01*
Y4770D01*
X4145Y4770D01*
X4093D01*
Y4700D01*
Y4630D01*
X4093D01*
X4098Y4618D01*
X4019Y4539D01*
X3451D01*
X3285Y4705D01*
Y4770D01*
X3274D01*
Y4865D01*
X3345D01*
Y5005D01*
X3145D01*
Y4865D01*
X3196D01*
Y4779D01*
X3187Y4770D01*
X3158D01*
X3155Y4770D01*
X3150D01*
X3145D01*
X3142Y4770D01*
X3093D01*
Y4700D01*
Y4630D01*
X3142D01*
X3145Y4630D01*
X3150D01*
X3155D01*
X3158Y4630D01*
X3250D01*
X3408Y4473D01*
X3420Y4464D01*
X3423Y4464D01*
X3435Y4461D01*
X4035D01*
X4050Y4464D01*
X4062Y4473D01*
X4220Y4630D01*
X4250D01*
X4408Y4473D01*
X4420Y4464D01*
X4423Y4464D01*
X4435Y4461D01*
X5035D01*
X5050Y4464D01*
X5062Y4473D01*
X5220Y4630D01*
X5250D01*
X5408Y4473D01*
X5420Y4464D01*
X5423Y4464D01*
X5435Y4461D01*
X6035D01*
X6050Y4464D01*
X6062Y4473D01*
X6220Y4630D01*
X6250D01*
X6408Y4473D01*
X6420Y4464D01*
X6423Y4464D01*
X6435Y4461D01*
X7035D01*
X7050Y4464D01*
X7062Y4473D01*
X7220Y4630D01*
X7250D01*
X7408Y4473D01*
X7420Y4464D01*
X7423Y4464D01*
X7435Y4461D01*
X8035D01*
X8050Y4464D01*
X8062Y4473D01*
X8220Y4630D01*
X8250D01*
X8408Y4473D01*
X8420Y4464D01*
X8423Y4464D01*
X8435Y4461D01*
X9035D01*
X9050Y4464D01*
X9062Y4473D01*
X9220Y4630D01*
X9250D01*
X9408Y4473D01*
X9420Y4464D01*
X9423Y4464D01*
X9435Y4461D01*
X10035D01*
X10050Y4464D01*
X10062Y4473D01*
X10220Y4630D01*
X10250D01*
X10408Y4473D01*
X10420Y4464D01*
X10423Y4464D01*
X10435Y4461D01*
X11035D01*
X11050Y4464D01*
X11062Y4473D01*
X11220Y4630D01*
X11250D01*
X11408Y4473D01*
X11420Y4464D01*
X11423Y4464D01*
X11435Y4461D01*
X12035D01*
X12050Y4464D01*
X12062Y4473D01*
X12220Y4630D01*
X12250D01*
X12319Y4561D01*
Y4335D01*
X12145D01*
Y4304D01*
X12090D01*
X12088Y4310D01*
X12073Y4328D01*
X12055Y4343D01*
X12033Y4352D01*
X12010Y4355D01*
X11987Y4352D01*
X11965Y4343D01*
X11947Y4328D01*
X11932Y4310D01*
X11923Y4288D01*
X11920Y4265D01*
X11923Y4242D01*
X11932Y4220D01*
X11947Y4202D01*
X11965Y4187D01*
X11987Y4178D01*
X12010Y4175D01*
X12033Y4178D01*
X12055Y4187D01*
X12073Y4202D01*
X12088Y4220D01*
X12090Y4226D01*
X12145D01*
Y4195D01*
X12277D01*
X12282Y4183D01*
X12218Y4119D01*
X12209Y4106D01*
X12206Y4091D01*
Y4005D01*
X12145D01*
Y3865D01*
X12206D01*
Y3770D01*
X12158D01*
X12155Y3770D01*
X12155Y3770D01*
X12145D01*
Y3770D01*
X12145Y3770D01*
X12093D01*
Y3700D01*
Y3630D01*
X12093D01*
X12098Y3618D01*
X12019Y3539D01*
X11451D01*
X11285Y3705D01*
Y3770D01*
X11284D01*
Y3865D01*
X11345D01*
Y4005D01*
X11145D01*
Y3865D01*
X11206D01*
Y3770D01*
X11158D01*
X11155Y3770D01*
X11155Y3770D01*
X11145D01*
Y3770D01*
X11145Y3770D01*
X11093D01*
Y3700D01*
Y3630D01*
X11093D01*
X11098Y3618D01*
X11019Y3539D01*
X10451D01*
X10285Y3705D01*
Y3770D01*
X10284D01*
Y3865D01*
X10345D01*
Y4005D01*
X10145D01*
Y3865D01*
X10206D01*
Y3770D01*
X10158D01*
X10155Y3770D01*
X10155Y3770D01*
X10145D01*
Y3770D01*
X10145Y3770D01*
X10093D01*
Y3700D01*
Y3630D01*
X10093D01*
X10098Y3618D01*
X10019Y3539D01*
X9451D01*
X9285Y3705D01*
Y3770D01*
X9284D01*
Y3865D01*
X9345D01*
Y4005D01*
X9145D01*
Y3865D01*
X9206D01*
Y3770D01*
X9158D01*
X9155Y3770D01*
X9155Y3770D01*
X9145D01*
Y3770D01*
X9145Y3770D01*
X9093D01*
Y3700D01*
Y3630D01*
X9093D01*
X9098Y3618D01*
X9019Y3539D01*
X8451D01*
X8285Y3705D01*
Y3770D01*
X8284D01*
Y3865D01*
X8345D01*
Y4005D01*
X8145D01*
Y3865D01*
X8206D01*
Y3770D01*
X8158D01*
X8155Y3770D01*
X8155Y3770D01*
X8145D01*
Y3770D01*
X8145Y3770D01*
X8093D01*
Y3700D01*
Y3630D01*
X8093D01*
X8098Y3618D01*
X8019Y3539D01*
X7451D01*
X7285Y3705D01*
Y3770D01*
X7284D01*
Y3865D01*
X7345D01*
Y4005D01*
X7145D01*
Y3865D01*
X7206D01*
Y3770D01*
X7158D01*
X7155Y3770D01*
X7155Y3770D01*
X7145D01*
Y3770D01*
X7145Y3770D01*
X7093D01*
Y3700D01*
Y3630D01*
X7093D01*
X7098Y3618D01*
X7019Y3539D01*
X6451D01*
X6285Y3705D01*
Y3770D01*
X6284D01*
Y3865D01*
X6345D01*
Y4005D01*
X6145D01*
Y3865D01*
X6206D01*
Y3770D01*
X6158D01*
X6155Y3770D01*
X6155Y3770D01*
X6145D01*
Y3770D01*
X6145Y3770D01*
X6093D01*
Y3700D01*
Y3630D01*
X6093D01*
X6098Y3618D01*
X6019Y3539D01*
X5451D01*
X5285Y3705D01*
Y3770D01*
X5284D01*
Y3865D01*
X5345D01*
Y4005D01*
X5145D01*
Y3865D01*
X5206D01*
Y3770D01*
X5158D01*
X5155Y3770D01*
X5155Y3770D01*
X5145D01*
Y3770D01*
X5145Y3770D01*
X5093D01*
Y3700D01*
Y3630D01*
X5093D01*
X5098Y3618D01*
X5019Y3539D01*
X4451D01*
X4285Y3705D01*
Y3770D01*
X4284D01*
Y3865D01*
X4345D01*
Y4005D01*
X4145D01*
Y3865D01*
X4206D01*
Y3770D01*
X4158D01*
X4155Y3770D01*
X4155Y3770D01*
X4145D01*
Y3770D01*
X4145Y3770D01*
X4093D01*
Y3700D01*
Y3630D01*
X4093D01*
X4098Y3618D01*
X4019Y3539D01*
X3451D01*
X3285Y3705D01*
Y3770D01*
X3274D01*
Y3865D01*
X3345D01*
Y4005D01*
X3145D01*
Y3865D01*
X3196D01*
Y3770D01*
X3158D01*
X3155Y3770D01*
X3155Y3770D01*
X3145D01*
Y3770D01*
X3145Y3770D01*
X3093D01*
Y3700D01*
Y3630D01*
X3093D01*
X3100Y3617D01*
X3097Y3613D01*
X3094Y3598D01*
Y3523D01*
X3085Y3501D01*
X3082Y3475D01*
X3085Y3449D01*
X3095Y3424D01*
X3111Y3403D01*
X3132Y3387D01*
X3157Y3377D01*
X3183Y3374D01*
X3209Y3377D01*
X3234Y3387D01*
X3255Y3403D01*
X3271Y3424D01*
X3281Y3449D01*
X3284Y3475D01*
X3281Y3501D01*
X3271Y3526D01*
X3255Y3547D01*
X3234Y3563D01*
X3209Y3573D01*
X3184Y3576D01*
X3182Y3579D01*
X3178Y3588D01*
X3220Y3630D01*
X3250D01*
X3408Y3473D01*
X3420Y3464D01*
X3423Y3464D01*
X3435Y3461D01*
X4035D01*
X4050Y3464D01*
X4062Y3473D01*
X4220Y3630D01*
X4250D01*
X4408Y3473D01*
X4420Y3464D01*
X4423Y3464D01*
X4435Y3461D01*
X5035D01*
X5050Y3464D01*
X5062Y3473D01*
X5220Y3630D01*
X5250D01*
X5408Y3473D01*
X5420Y3464D01*
X5423Y3464D01*
X5435Y3461D01*
X6035D01*
X6050Y3464D01*
X6062Y3473D01*
X6220Y3630D01*
X6250D01*
X6408Y3473D01*
X6420Y3464D01*
X6423Y3464D01*
X6435Y3461D01*
X7035D01*
X7050Y3464D01*
X7062Y3473D01*
X7220Y3630D01*
X7250D01*
X7408Y3473D01*
X7420Y3464D01*
X7423Y3464D01*
X7435Y3461D01*
X8035D01*
X8050Y3464D01*
X8062Y3473D01*
X8220Y3630D01*
X8250D01*
X8408Y3473D01*
X8420Y3464D01*
X8423Y3464D01*
X8435Y3461D01*
X9035D01*
X9050Y3464D01*
X9062Y3473D01*
X9220Y3630D01*
X9250D01*
X9408Y3473D01*
X9420Y3464D01*
X9423Y3464D01*
X9435Y3461D01*
X10035D01*
X10050Y3464D01*
X10062Y3473D01*
X10220Y3630D01*
X10250D01*
X10408Y3473D01*
X10420Y3464D01*
X10423Y3464D01*
X10435Y3461D01*
X11035D01*
X11050Y3464D01*
X11062Y3473D01*
X11220Y3630D01*
X11250D01*
X11408Y3473D01*
X11420Y3464D01*
X11423Y3464D01*
X11435Y3461D01*
X12035D01*
X12050Y3464D01*
X12062Y3473D01*
X12220Y3630D01*
X12250D01*
X12319Y3561D01*
Y3335D01*
X12145D01*
Y3304D01*
X12090D01*
X12088Y3310D01*
X12073Y3328D01*
X12055Y3343D01*
X12033Y3352D01*
X12010Y3355D01*
X11987Y3352D01*
X11965Y3343D01*
X11947Y3328D01*
X11932Y3310D01*
X11923Y3288D01*
X11920Y3265D01*
X11923Y3242D01*
X11932Y3220D01*
X11947Y3202D01*
X11965Y3187D01*
X11987Y3178D01*
X12010Y3175D01*
X12033Y3178D01*
X12055Y3187D01*
X12073Y3202D01*
X12088Y3220D01*
X12090Y3226D01*
X12145D01*
Y3195D01*
X12277D01*
X12282Y3183D01*
X12218Y3119D01*
X12209Y3106D01*
X12206Y3091D01*
Y3005D01*
X12145D01*
Y2865D01*
X12196D01*
Y2770D01*
X12158D01*
X12155Y2770D01*
X12155Y2770D01*
X12145D01*
Y2770D01*
X12145Y2770D01*
X12093D01*
Y2700D01*
X12080D01*
Y2687D01*
X12015D01*
Y2639D01*
X11351D01*
X11285Y2705D01*
Y2770D01*
X11284D01*
Y2865D01*
X11345D01*
Y3005D01*
X11145D01*
Y2865D01*
X11206D01*
Y2770D01*
X11158D01*
X11155Y2770D01*
X11155Y2770D01*
X11145D01*
Y2770D01*
X11145Y2770D01*
X11093D01*
Y2700D01*
X11080D01*
Y2687D01*
X11015D01*
Y2639D01*
X10351D01*
X10285Y2705D01*
Y2770D01*
X10284D01*
Y2865D01*
X10345D01*
Y3005D01*
X10145D01*
Y2865D01*
X10206D01*
Y2770D01*
X10158D01*
X10155Y2770D01*
X10155Y2770D01*
X10145D01*
Y2770D01*
X10145Y2770D01*
X10093D01*
Y2700D01*
X10080D01*
Y2687D01*
X10015D01*
Y2639D01*
X9351D01*
X9285Y2705D01*
Y2770D01*
X9284D01*
Y2865D01*
X9345D01*
Y3005D01*
X9145D01*
Y2865D01*
X9206D01*
Y2770D01*
X9158D01*
X9155Y2770D01*
X9155Y2770D01*
X9145D01*
Y2770D01*
X9145Y2770D01*
X9093D01*
Y2700D01*
X9080D01*
Y2687D01*
X9015D01*
Y2639D01*
X8351D01*
X8285Y2705D01*
Y2770D01*
X8284D01*
Y2865D01*
X8345D01*
Y3005D01*
X8145D01*
Y2865D01*
X8206D01*
Y2770D01*
X8158D01*
X8155Y2770D01*
X8155Y2770D01*
X8145D01*
Y2770D01*
X8145Y2770D01*
X8093D01*
Y2700D01*
X8080D01*
Y2687D01*
X8015D01*
Y2639D01*
X7351D01*
X7285Y2705D01*
Y2770D01*
X7274D01*
Y2865D01*
X7345D01*
Y3005D01*
X7145D01*
Y2865D01*
X7196D01*
Y2770D01*
X7158D01*
X7155Y2770D01*
X7155Y2770D01*
X7145D01*
Y2770D01*
X7145Y2770D01*
X7093D01*
Y2700D01*
X7080D01*
Y2687D01*
X7015D01*
Y2639D01*
X6351D01*
X6285Y2705D01*
Y2770D01*
X6274D01*
Y2865D01*
X6345D01*
Y3005D01*
X6145D01*
Y2865D01*
X6196D01*
Y2770D01*
X6158D01*
X6155Y2770D01*
X6155Y2770D01*
X6145D01*
Y2770D01*
X6145Y2770D01*
X6093D01*
Y2700D01*
X6080D01*
Y2687D01*
X6015D01*
Y2639D01*
X5351D01*
X5285Y2705D01*
Y2770D01*
X5274D01*
Y2865D01*
X5345D01*
Y3005D01*
X5145D01*
Y2865D01*
X5196D01*
Y2770D01*
X5158D01*
X5155Y2770D01*
X5155Y2770D01*
X5145D01*
Y2770D01*
X5145Y2770D01*
X5093D01*
Y2700D01*
X5080D01*
Y2687D01*
X5015D01*
Y2639D01*
X4623D01*
X4610Y2640D01*
Y2810D01*
X4440D01*
Y2739D01*
X4296Y2694D01*
X4285Y2705D01*
Y2770D01*
X4274D01*
Y2865D01*
X4345D01*
Y3005D01*
X4145D01*
Y2865D01*
X4196D01*
Y2770D01*
X4158D01*
X4155Y2770D01*
X4155Y2770D01*
X4145D01*
Y2770D01*
X4145Y2770D01*
X4093D01*
Y2700D01*
X4080D01*
Y2687D01*
X4015D01*
Y2639D01*
X3798D01*
X3795Y2646D01*
X3795Y2652D01*
X3811Y2664D01*
X3825Y2682D01*
X3833Y2703D01*
X3834Y2712D01*
X3666D01*
X3667Y2703D01*
X3675Y2682D01*
X3689Y2664D01*
X3705Y2652D01*
X3705Y2646D01*
X3702Y2639D01*
X3351D01*
X3285Y2705D01*
Y2770D01*
X3274D01*
Y2865D01*
X3345D01*
Y3005D01*
X3145D01*
Y2865D01*
X3196D01*
Y2779D01*
X3187Y2770D01*
X3158D01*
X3155Y2770D01*
X3150D01*
X3145D01*
X3142Y2770D01*
X3093D01*
Y2700D01*
X3080D01*
Y2687D01*
X3015D01*
Y2638D01*
X3015Y2630D01*
X3004Y2625D01*
X3004D01*
X2625D01*
Y3375D01*
X2662D01*
Y3475D01*
Y3575D01*
X2625D01*
Y4531D01*
X2638Y4532D01*
X2638Y4527D01*
X2647Y4505D01*
X2662Y4487D01*
X2680Y4472D01*
X2702Y4463D01*
X2725Y4460D01*
X2748Y4463D01*
X2770Y4472D01*
X2788Y4487D01*
X2803Y4505D01*
X2812Y4527D01*
X2815Y4550D01*
X2812Y4573D01*
X2803Y4595D01*
X2788Y4613D01*
X2770Y4628D01*
X2764Y4630D01*
Y4865D01*
X2855D01*
Y5005D01*
X2655D01*
Y4865D01*
X2686D01*
Y4630D01*
X2680Y4628D01*
X2662Y4613D01*
X2647Y4595D01*
X2638Y4573D01*
X2638Y4568D01*
X2625Y4569D01*
Y12375D01*
X12375D01*
Y11564D01*
D02*
G37*
G36*
X12156Y11640D02*
Y11580D01*
X12159Y11565D01*
X12168Y11553D01*
X12213Y11507D01*
X12210Y11501D01*
X12207Y11475D01*
X12210Y11449D01*
X12220Y11424D01*
X12236Y11403D01*
X12257Y11387D01*
X12282Y11377D01*
X12308Y11374D01*
X12310Y11374D01*
X12319Y11366D01*
Y11335D01*
X12145D01*
Y11304D01*
X12140D01*
X12125Y11301D01*
X12113Y11292D01*
X12029Y11209D01*
X12023Y11212D01*
X12000Y11215D01*
X11977Y11212D01*
X11955Y11203D01*
X11937Y11188D01*
X11922Y11170D01*
X11913Y11148D01*
X11910Y11125D01*
X11913Y11102D01*
X11922Y11080D01*
X11937Y11062D01*
X11955Y11047D01*
X11977Y11038D01*
X12000Y11035D01*
X12023Y11038D01*
X12045Y11047D01*
X12063Y11062D01*
X12078Y11080D01*
X12087Y11102D01*
X12090Y11125D01*
X12087Y11148D01*
X12084Y11154D01*
X12133Y11203D01*
X12145Y11198D01*
Y11195D01*
X12277D01*
X12282Y11183D01*
X12218Y11119D01*
X12209Y11106D01*
X12206Y11091D01*
Y11005D01*
X12145D01*
Y10865D01*
X12196D01*
Y10770D01*
X12158D01*
X12155Y10770D01*
X12155Y10770D01*
X12145D01*
Y10770D01*
X12145Y10770D01*
X12093D01*
Y10700D01*
Y10630D01*
X12093D01*
X12098Y10618D01*
X12019Y10539D01*
X11451D01*
X11285Y10705D01*
Y10770D01*
X11274D01*
Y10865D01*
X11345D01*
Y11005D01*
X11284D01*
Y11091D01*
X11281Y11106D01*
X11272Y11119D01*
X11208Y11183D01*
X11213Y11195D01*
X11345D01*
Y11226D01*
X11409D01*
X11655Y10980D01*
Y10865D01*
X11855D01*
Y11005D01*
X11740D01*
X11452Y11292D01*
X11440Y11301D01*
X11425Y11304D01*
X11345D01*
Y11335D01*
X11191D01*
X11186Y11347D01*
X11272Y11434D01*
X11281Y11446D01*
X11284Y11461D01*
Y11578D01*
X11294Y11586D01*
X11295Y11586D01*
X11695D01*
X11700Y11575D01*
X11700Y11573D01*
Y11488D01*
X11900D01*
Y11573D01*
X11900Y11575D01*
X11905Y11586D01*
X12032D01*
X12033Y11573D01*
X12028Y11573D01*
X12003Y11563D01*
X11982Y11547D01*
X11966Y11526D01*
X11956Y11501D01*
X11953Y11475D01*
X11956Y11449D01*
X11966Y11424D01*
X11982Y11403D01*
X12003Y11387D01*
X12028Y11377D01*
X12054Y11374D01*
X12080Y11377D01*
X12105Y11387D01*
X12126Y11403D01*
X12142Y11424D01*
X12152Y11449D01*
X12155Y11475D01*
X12152Y11501D01*
X12142Y11526D01*
X12126Y11547D01*
X12105Y11563D01*
X12080Y11573D01*
X12073Y11574D01*
X12072Y11587D01*
X12085Y11589D01*
X12097Y11598D01*
X12144Y11644D01*
X12156Y11640D01*
D02*
G37*
%LPC*%
G36*
X2855Y6252D02*
X2768D01*
Y6195D01*
X2855D01*
Y6252D01*
D02*
G37*
G36*
X10345Y6335D02*
X10145D01*
Y6195D01*
X10345D01*
Y6226D01*
X10409D01*
X10655Y5980D01*
Y5865D01*
X10855D01*
Y6005D01*
X10740D01*
X10452Y6292D01*
X10440Y6301D01*
X10425Y6304D01*
X10345D01*
Y6335D01*
D02*
G37*
G36*
X11345D02*
X11145D01*
Y6195D01*
X11345D01*
Y6226D01*
X11409D01*
X11655Y5980D01*
Y5865D01*
X11855D01*
Y6005D01*
X11740D01*
X11452Y6292D01*
X11440Y6301D01*
X11425Y6304D01*
X11345D01*
Y6335D01*
D02*
G37*
G36*
X2742Y6252D02*
X2655D01*
Y6195D01*
X2742D01*
Y6252D01*
D02*
G37*
G36*
X4855D02*
X4768D01*
Y6195D01*
X4855D01*
Y6252D01*
D02*
G37*
G36*
X5742D02*
X5655D01*
Y6195D01*
X5742D01*
Y6252D01*
D02*
G37*
G36*
X4742D02*
X4655D01*
Y6195D01*
X4742D01*
Y6252D01*
D02*
G37*
G36*
X3742D02*
X3655D01*
Y6195D01*
X3742D01*
Y6252D01*
D02*
G37*
G36*
X3855D02*
X3768D01*
Y6195D01*
X3855D01*
Y6252D01*
D02*
G37*
G36*
X9345Y6335D02*
X9145D01*
Y6195D01*
X9345D01*
Y6226D01*
X9409D01*
X9655Y5980D01*
Y5865D01*
X9855D01*
Y6005D01*
X9740D01*
X9452Y6292D01*
X9440Y6301D01*
X9425Y6304D01*
X9345D01*
Y6335D01*
D02*
G37*
G36*
X11067Y5770D02*
X11015D01*
Y5713D01*
X11067D01*
Y5770D01*
D02*
G37*
G36*
X12067D02*
X12015D01*
Y5713D01*
X12067D01*
Y5770D01*
D02*
G37*
G36*
X10067D02*
X10015D01*
Y5713D01*
X10067D01*
Y5770D01*
D02*
G37*
G36*
X8067D02*
X8015D01*
Y5713D01*
X8067D01*
Y5770D01*
D02*
G37*
G36*
X9067D02*
X9015D01*
Y5713D01*
X9067D01*
Y5770D01*
D02*
G37*
G36*
X3345Y6335D02*
X3145D01*
Y6195D01*
X3345D01*
Y6226D01*
X3409D01*
X3655Y5980D01*
Y5865D01*
X3855D01*
Y6005D01*
X3740D01*
X3452Y6292D01*
X3440Y6301D01*
X3425Y6304D01*
X3345D01*
Y6335D01*
D02*
G37*
G36*
X7345D02*
X7145D01*
Y6195D01*
X7345D01*
Y6226D01*
X7409D01*
X7655Y5980D01*
Y5865D01*
X7855D01*
Y6005D01*
X7740D01*
X7452Y6292D01*
X7440Y6301D01*
X7425Y6304D01*
X7345D01*
Y6335D01*
D02*
G37*
G36*
X8345D02*
X8145D01*
Y6195D01*
X8345D01*
Y6226D01*
X8409D01*
X8655Y5980D01*
Y5865D01*
X8855D01*
Y6005D01*
X8740D01*
X8452Y6292D01*
X8440Y6301D01*
X8425Y6304D01*
X8345D01*
Y6335D01*
D02*
G37*
G36*
X6345D02*
X6145D01*
Y6195D01*
X6345D01*
Y6226D01*
X6409D01*
X6655Y5980D01*
Y5865D01*
X6855D01*
Y6005D01*
X6740D01*
X6452Y6292D01*
X6440Y6301D01*
X6425Y6304D01*
X6345D01*
Y6335D01*
D02*
G37*
G36*
X4345D02*
X4145D01*
Y6195D01*
X4345D01*
Y6226D01*
X4409D01*
X4655Y5980D01*
Y5865D01*
X4855D01*
Y6005D01*
X4740D01*
X4452Y6292D01*
X4440Y6301D01*
X4425Y6304D01*
X4345D01*
Y6335D01*
D02*
G37*
G36*
X5345D02*
X5145D01*
Y6195D01*
X5345D01*
Y6226D01*
X5409D01*
X5655Y5980D01*
Y5865D01*
X5855D01*
Y6005D01*
X5740D01*
X5452Y6292D01*
X5440Y6301D01*
X5425Y6304D01*
X5345D01*
Y6335D01*
D02*
G37*
G36*
X4742D02*
X4655D01*
Y6278D01*
X4742D01*
Y6335D01*
D02*
G37*
G36*
X5742D02*
X5655D01*
Y6278D01*
X5742D01*
Y6335D01*
D02*
G37*
G36*
X2742D02*
X2655D01*
Y6278D01*
X2742D01*
Y6335D01*
D02*
G37*
G36*
X11742Y6252D02*
X11655D01*
Y6195D01*
X11742D01*
Y6252D01*
D02*
G37*
G36*
X11855D02*
X11768D01*
Y6195D01*
X11855D01*
Y6252D01*
D02*
G37*
G36*
X10742Y6335D02*
X10655D01*
Y6278D01*
X10742D01*
Y6335D01*
D02*
G37*
G36*
X6742D02*
X6655D01*
Y6278D01*
X6742D01*
Y6335D01*
D02*
G37*
G36*
X8742D02*
X8655D01*
Y6278D01*
X8742D01*
Y6335D01*
D02*
G37*
G36*
X3742D02*
X3655D01*
Y6278D01*
X3742D01*
Y6335D01*
D02*
G37*
G36*
X7742D02*
X7655D01*
Y6278D01*
X7742D01*
Y6335D01*
D02*
G37*
G36*
X10855Y6252D02*
X10768D01*
Y6195D01*
X10855D01*
Y6252D01*
D02*
G37*
G36*
X7742D02*
X7655D01*
Y6195D01*
X7742D01*
Y6252D01*
D02*
G37*
G36*
X7855D02*
X7768D01*
Y6195D01*
X7855D01*
Y6252D01*
D02*
G37*
G36*
X6855D02*
X6768D01*
Y6195D01*
X6855D01*
Y6252D01*
D02*
G37*
G36*
X5855D02*
X5768D01*
Y6195D01*
X5855D01*
Y6252D01*
D02*
G37*
G36*
X6742D02*
X6655D01*
Y6195D01*
X6742D01*
Y6252D01*
D02*
G37*
G36*
X9855D02*
X9768D01*
Y6195D01*
X9855D01*
Y6252D01*
D02*
G37*
G36*
X10742D02*
X10655D01*
Y6195D01*
X10742D01*
Y6252D01*
D02*
G37*
G36*
X9742D02*
X9655D01*
Y6195D01*
X9742D01*
Y6252D01*
D02*
G37*
G36*
X8742D02*
X8655D01*
Y6195D01*
X8742D01*
Y6252D01*
D02*
G37*
G36*
X8855D02*
X8768D01*
Y6195D01*
X8855D01*
Y6252D01*
D02*
G37*
G36*
X10742Y5335D02*
X10655D01*
Y5278D01*
X10742D01*
Y5335D01*
D02*
G37*
G36*
X2742D02*
X2655D01*
Y5278D01*
X2742D01*
Y5335D01*
D02*
G37*
G36*
X8742D02*
X8655D01*
Y5278D01*
X8742D01*
Y5335D01*
D02*
G37*
G36*
X7742D02*
X7655D01*
Y5278D01*
X7742D01*
Y5335D01*
D02*
G37*
G36*
X3742D02*
X3655D01*
Y5278D01*
X3742D01*
Y5335D01*
D02*
G37*
G36*
X9742D02*
X9655D01*
Y5278D01*
X9742D01*
Y5335D01*
D02*
G37*
G36*
X7855D02*
X7768D01*
Y5278D01*
X7855D01*
Y5335D01*
D02*
G37*
G36*
X3855D02*
X3768D01*
Y5278D01*
X3855D01*
Y5335D01*
D02*
G37*
G36*
X5855D02*
X5768D01*
Y5278D01*
X5855D01*
Y5335D01*
D02*
G37*
G36*
X11742D02*
X11655D01*
Y5278D01*
X11742D01*
Y5335D01*
D02*
G37*
G36*
X4855D02*
X4768D01*
Y5278D01*
X4855D01*
Y5335D01*
D02*
G37*
G36*
X9855Y5252D02*
X9768D01*
Y5195D01*
X9855D01*
Y5252D01*
D02*
G37*
G36*
X10742D02*
X10655D01*
Y5195D01*
X10742D01*
Y5252D01*
D02*
G37*
G36*
X9742D02*
X9655D01*
Y5195D01*
X9742D01*
Y5252D01*
D02*
G37*
G36*
X8742D02*
X8655D01*
Y5195D01*
X8742D01*
Y5252D01*
D02*
G37*
G36*
X8855D02*
X8768D01*
Y5195D01*
X8855D01*
Y5252D01*
D02*
G37*
G36*
X10855D02*
X10768D01*
Y5195D01*
X10855D01*
Y5252D01*
D02*
G37*
G36*
X5742Y5335D02*
X5655D01*
Y5278D01*
X5742D01*
Y5335D01*
D02*
G37*
G36*
X6742D02*
X6655D01*
Y5278D01*
X6742D01*
Y5335D01*
D02*
G37*
G36*
X4742D02*
X4655D01*
Y5278D01*
X4742D01*
Y5335D01*
D02*
G37*
G36*
X11742Y5252D02*
X11655D01*
Y5195D01*
X11742D01*
Y5252D01*
D02*
G37*
G36*
X11855D02*
X11768D01*
Y5195D01*
X11855D01*
Y5252D01*
D02*
G37*
G36*
X10067Y5687D02*
X10015D01*
Y5630D01*
X10067D01*
Y5687D01*
D02*
G37*
G36*
X11067D02*
X11015D01*
Y5630D01*
X11067D01*
Y5687D01*
D02*
G37*
G36*
X9067D02*
X9015D01*
Y5630D01*
X9067D01*
Y5687D01*
D02*
G37*
G36*
X7067Y5687D02*
X7015D01*
Y5630D01*
X7067D01*
Y5687D01*
D02*
G37*
G36*
X8067Y5687D02*
X8015D01*
Y5630D01*
X8067D01*
Y5687D01*
D02*
G37*
G36*
X12067D02*
X12015D01*
Y5630D01*
X12067D01*
Y5687D01*
D02*
G37*
G36*
X6067Y5770D02*
X6015D01*
Y5713D01*
X6067D01*
Y5770D01*
D02*
G37*
G36*
X7067D02*
X7015D01*
Y5713D01*
X7067D01*
Y5770D01*
D02*
G37*
G36*
X5067D02*
X5015D01*
Y5713D01*
X5067D01*
Y5770D01*
D02*
G37*
G36*
X3067D02*
X3015D01*
Y5713D01*
X3067D01*
Y5770D01*
D02*
G37*
G36*
X4067D02*
X4015D01*
Y5713D01*
X4067D01*
Y5770D01*
D02*
G37*
G36*
X9855Y5335D02*
X9768D01*
Y5278D01*
X9855D01*
Y5335D01*
D02*
G37*
G36*
X10855D02*
X10768D01*
Y5278D01*
X10855D01*
Y5335D01*
D02*
G37*
G36*
X2855D02*
X2768D01*
Y5278D01*
X2855D01*
Y5335D01*
D02*
G37*
G36*
X6855D02*
X6768D01*
Y5278D01*
X6855D01*
Y5335D01*
D02*
G37*
G36*
X8855D02*
X8768D01*
Y5278D01*
X8855D01*
Y5335D01*
D02*
G37*
G36*
X11855D02*
X11768D01*
Y5278D01*
X11855D01*
Y5335D01*
D02*
G37*
G36*
X5067Y5687D02*
X5015D01*
Y5630D01*
X5067D01*
Y5687D01*
D02*
G37*
G36*
X6067D02*
X6015D01*
Y5630D01*
X6067D01*
Y5687D01*
D02*
G37*
G36*
X4067D02*
X4015D01*
Y5630D01*
X4067D01*
Y5687D01*
D02*
G37*
G36*
X2855Y6005D02*
X2655D01*
Y5865D01*
X2711D01*
Y5655D01*
X2705Y5653D01*
X2687Y5638D01*
X2672Y5620D01*
X2663Y5598D01*
X2660Y5575D01*
X2663Y5552D01*
X2672Y5530D01*
X2687Y5512D01*
X2705Y5497D01*
X2727Y5488D01*
X2750Y5485D01*
X2773Y5488D01*
X2795Y5497D01*
X2813Y5512D01*
X2828Y5530D01*
X2837Y5552D01*
X2840Y5575D01*
X2837Y5598D01*
X2828Y5620D01*
X2813Y5638D01*
X2795Y5653D01*
X2789Y5655D01*
Y5865D01*
X2855D01*
Y6005D01*
D02*
G37*
G36*
X3067Y5687D02*
X3015D01*
Y5630D01*
X3067D01*
Y5687D01*
D02*
G37*
G36*
X9855Y7252D02*
X9768D01*
Y7195D01*
X9855D01*
Y7252D01*
D02*
G37*
G36*
X10742D02*
X10655D01*
Y7195D01*
X10742D01*
Y7252D01*
D02*
G37*
G36*
X9742D02*
X9655D01*
Y7195D01*
X9742D01*
Y7252D01*
D02*
G37*
G36*
X8742D02*
X8655D01*
Y7195D01*
X8742D01*
Y7252D01*
D02*
G37*
G36*
X8855D02*
X8768D01*
Y7195D01*
X8855D01*
Y7252D01*
D02*
G37*
G36*
X2742Y7335D02*
X2655D01*
Y7278D01*
X2742D01*
Y7335D01*
D02*
G37*
G36*
X4742D02*
X4655D01*
Y7278D01*
X4742D01*
Y7335D01*
D02*
G37*
G36*
X11855Y7252D02*
X11768D01*
Y7195D01*
X11855D01*
Y7252D01*
D02*
G37*
G36*
X10855D02*
X10768D01*
Y7195D01*
X10855D01*
Y7252D01*
D02*
G37*
G36*
X11742D02*
X11655D01*
Y7195D01*
X11742D01*
Y7252D01*
D02*
G37*
G36*
X7855D02*
X7768D01*
Y7195D01*
X7855D01*
Y7252D01*
D02*
G37*
G36*
X4742D02*
X4655D01*
Y7195D01*
X4742D01*
Y7252D01*
D02*
G37*
G36*
X4855D02*
X4768D01*
Y7195D01*
X4855D01*
Y7252D01*
D02*
G37*
G36*
X3855D02*
X3768D01*
Y7195D01*
X3855D01*
Y7252D01*
D02*
G37*
G36*
X2855D02*
X2768D01*
Y7195D01*
X2855D01*
Y7252D01*
D02*
G37*
G36*
X3742D02*
X3655D01*
Y7195D01*
X3742D01*
Y7252D01*
D02*
G37*
G36*
X6855D02*
X6768D01*
Y7195D01*
X6855D01*
Y7252D01*
D02*
G37*
G36*
X7742D02*
X7655D01*
Y7195D01*
X7742D01*
Y7252D01*
D02*
G37*
G36*
X6742D02*
X6655D01*
Y7195D01*
X6742D01*
Y7252D01*
D02*
G37*
G36*
X5742D02*
X5655D01*
Y7195D01*
X5742D01*
Y7252D01*
D02*
G37*
G36*
X5855D02*
X5768D01*
Y7195D01*
X5855D01*
Y7252D01*
D02*
G37*
G36*
X11742Y7335D02*
X11655D01*
Y7278D01*
X11742D01*
Y7335D01*
D02*
G37*
G36*
X6855D02*
X6768D01*
Y7278D01*
X6855D01*
Y7335D01*
D02*
G37*
G36*
X9855D02*
X9768D01*
Y7278D01*
X9855D01*
Y7335D01*
D02*
G37*
G36*
X8855D02*
X8768D01*
Y7278D01*
X8855D01*
Y7335D01*
D02*
G37*
G36*
X5855D02*
X5768D01*
Y7278D01*
X5855D01*
Y7335D01*
D02*
G37*
G36*
X7855D02*
X7768D01*
Y7278D01*
X7855D01*
Y7335D01*
D02*
G37*
G36*
X4067Y7687D02*
X4015D01*
Y7630D01*
X4067D01*
Y7687D01*
D02*
G37*
G36*
X5067D02*
X5015D01*
Y7630D01*
X5067D01*
Y7687D01*
D02*
G37*
G36*
X3067D02*
X3015D01*
Y7630D01*
X3067D01*
Y7687D01*
D02*
G37*
G36*
X10855Y7335D02*
X10768D01*
Y7278D01*
X10855D01*
Y7335D01*
D02*
G37*
G36*
X2855Y8005D02*
X2655D01*
Y7865D01*
X2711D01*
Y7655D01*
X2705Y7653D01*
X2687Y7638D01*
X2672Y7620D01*
X2663Y7598D01*
X2660Y7575D01*
X2663Y7552D01*
X2672Y7530D01*
X2687Y7512D01*
X2705Y7497D01*
X2727Y7488D01*
X2750Y7485D01*
X2773Y7488D01*
X2795Y7497D01*
X2813Y7512D01*
X2828Y7530D01*
X2837Y7552D01*
X2840Y7575D01*
X2837Y7598D01*
X2828Y7620D01*
X2813Y7638D01*
X2795Y7653D01*
X2789Y7655D01*
Y7865D01*
X2855D01*
Y8005D01*
D02*
G37*
G36*
X3855Y7335D02*
X3768D01*
Y7278D01*
X3855D01*
Y7335D01*
D02*
G37*
G36*
X8742D02*
X8655D01*
Y7278D01*
X8742D01*
Y7335D01*
D02*
G37*
G36*
X10742D02*
X10655D01*
Y7278D01*
X10742D01*
Y7335D01*
D02*
G37*
G36*
X7742D02*
X7655D01*
Y7278D01*
X7742D01*
Y7335D01*
D02*
G37*
G36*
X3742D02*
X3655D01*
Y7278D01*
X3742D01*
Y7335D01*
D02*
G37*
G36*
X5742D02*
X5655D01*
Y7278D01*
X5742D01*
Y7335D01*
D02*
G37*
G36*
X4855D02*
X4768D01*
Y7278D01*
X4855D01*
Y7335D01*
D02*
G37*
G36*
X11855D02*
X11768D01*
Y7278D01*
X11855D01*
Y7335D01*
D02*
G37*
G36*
X2855D02*
X2768D01*
Y7278D01*
X2855D01*
Y7335D01*
D02*
G37*
G36*
X6742D02*
X6655D01*
Y7278D01*
X6742D01*
Y7335D01*
D02*
G37*
G36*
X9742D02*
X9655D01*
Y7278D01*
X9742D01*
Y7335D01*
D02*
G37*
G36*
X4067Y6687D02*
X4015D01*
Y6630D01*
X4067D01*
Y6687D01*
D02*
G37*
G36*
X5067D02*
X5015D01*
Y6630D01*
X5067D01*
Y6687D01*
D02*
G37*
G36*
X3067D02*
X3015D01*
Y6630D01*
X3067D01*
Y6687D01*
D02*
G37*
G36*
X11855Y6335D02*
X11768D01*
Y6278D01*
X11855D01*
Y6335D01*
D02*
G37*
G36*
X2855Y7005D02*
X2655D01*
Y6865D01*
X2711D01*
Y6655D01*
X2705Y6653D01*
X2687Y6638D01*
X2672Y6620D01*
X2663Y6598D01*
X2660Y6575D01*
X2663Y6552D01*
X2672Y6530D01*
X2687Y6512D01*
X2705Y6497D01*
X2727Y6488D01*
X2750Y6485D01*
X2773Y6488D01*
X2795Y6497D01*
X2813Y6512D01*
X2828Y6530D01*
X2837Y6552D01*
X2840Y6575D01*
X2837Y6598D01*
X2828Y6620D01*
X2813Y6638D01*
X2795Y6653D01*
X2789Y6655D01*
Y6865D01*
X2855D01*
Y7005D01*
D02*
G37*
G36*
X9067Y6687D02*
X9015D01*
Y6630D01*
X9067D01*
Y6687D01*
D02*
G37*
G36*
X10067D02*
X10015D01*
Y6630D01*
X10067D01*
Y6687D01*
D02*
G37*
G36*
X8067D02*
X8015D01*
Y6630D01*
X8067D01*
Y6687D01*
D02*
G37*
G36*
X6067Y6687D02*
X6015D01*
Y6630D01*
X6067D01*
Y6687D01*
D02*
G37*
G36*
X7067D02*
X7015D01*
Y6630D01*
X7067D01*
Y6687D01*
D02*
G37*
G36*
X10855Y6335D02*
X10768D01*
Y6278D01*
X10855D01*
Y6335D01*
D02*
G37*
G36*
X4855D02*
X4768D01*
Y6278D01*
X4855D01*
Y6335D01*
D02*
G37*
G36*
X5855D02*
X5768D01*
Y6278D01*
X5855D01*
Y6335D01*
D02*
G37*
G36*
X2855D02*
X2768D01*
Y6278D01*
X2855D01*
Y6335D01*
D02*
G37*
G36*
X9742D02*
X9655D01*
Y6278D01*
X9742D01*
Y6335D01*
D02*
G37*
G36*
X11742D02*
X11655D01*
Y6278D01*
X11742D01*
Y6335D01*
D02*
G37*
G36*
X6855D02*
X6768D01*
Y6278D01*
X6855D01*
Y6335D01*
D02*
G37*
G36*
X9855D02*
X9768D01*
Y6278D01*
X9855D01*
Y6335D01*
D02*
G37*
G36*
X8855D02*
X8768D01*
Y6278D01*
X8855D01*
Y6335D01*
D02*
G37*
G36*
X3855D02*
X3768D01*
Y6278D01*
X3855D01*
Y6335D01*
D02*
G37*
G36*
X7855D02*
X7768D01*
Y6278D01*
X7855D01*
Y6335D01*
D02*
G37*
G36*
X11067Y6687D02*
X11015D01*
Y6630D01*
X11067D01*
Y6687D01*
D02*
G37*
G36*
X6345Y7335D02*
X6145D01*
Y7195D01*
X6345D01*
Y7226D01*
X6409D01*
X6655Y6980D01*
Y6865D01*
X6855D01*
Y7005D01*
X6740D01*
X6452Y7292D01*
X6440Y7301D01*
X6425Y7304D01*
X6345D01*
Y7335D01*
D02*
G37*
G36*
X7345D02*
X7145D01*
Y7195D01*
X7345D01*
Y7226D01*
X7409D01*
X7655Y6980D01*
Y6865D01*
X7855D01*
Y7005D01*
X7740D01*
X7452Y7292D01*
X7440Y7301D01*
X7425Y7304D01*
X7345D01*
Y7335D01*
D02*
G37*
G36*
X5345D02*
X5145D01*
Y7195D01*
X5345D01*
Y7226D01*
X5409D01*
X5655Y6980D01*
Y6865D01*
X5855D01*
Y7005D01*
X5740D01*
X5452Y7292D01*
X5440Y7301D01*
X5425Y7304D01*
X5345D01*
Y7335D01*
D02*
G37*
G36*
X3345D02*
X3145D01*
Y7195D01*
X3345D01*
Y7226D01*
X3409D01*
X3655Y6980D01*
Y6865D01*
X3855D01*
Y7005D01*
X3740D01*
X3452Y7292D01*
X3440Y7301D01*
X3425Y7304D01*
X3345D01*
Y7335D01*
D02*
G37*
G36*
X4345D02*
X4145D01*
Y7195D01*
X4345D01*
Y7226D01*
X4409D01*
X4655Y6980D01*
Y6865D01*
X4855D01*
Y7005D01*
X4740D01*
X4452Y7292D01*
X4440Y7301D01*
X4425Y7304D01*
X4345D01*
Y7335D01*
D02*
G37*
G36*
X11345D02*
X11145D01*
Y7195D01*
X11345D01*
Y7226D01*
X11409D01*
X11655Y6980D01*
Y6865D01*
X11855D01*
Y7005D01*
X11740D01*
X11452Y7292D01*
X11440Y7301D01*
X11425Y7304D01*
X11345D01*
Y7335D01*
D02*
G37*
G36*
X2742Y7252D02*
X2655D01*
Y7195D01*
X2742D01*
Y7252D01*
D02*
G37*
G36*
X10345Y7335D02*
X10145D01*
Y7195D01*
X10345D01*
Y7226D01*
X10409D01*
X10655Y6980D01*
Y6865D01*
X10855D01*
Y7005D01*
X10740D01*
X10452Y7292D01*
X10440Y7301D01*
X10425Y7304D01*
X10345D01*
Y7335D01*
D02*
G37*
G36*
X8345D02*
X8145D01*
Y7195D01*
X8345D01*
Y7226D01*
X8409D01*
X8655Y6980D01*
Y6865D01*
X8855D01*
Y7005D01*
X8740D01*
X8452Y7292D01*
X8440Y7301D01*
X8425Y7304D01*
X8345D01*
Y7335D01*
D02*
G37*
G36*
X9345D02*
X9145D01*
Y7195D01*
X9345D01*
Y7226D01*
X9409D01*
X9655Y6980D01*
Y6865D01*
X9855D01*
Y7005D01*
X9740D01*
X9452Y7292D01*
X9440Y7301D01*
X9425Y7304D01*
X9345D01*
Y7335D01*
D02*
G37*
G36*
X12067Y6770D02*
X12015D01*
Y6713D01*
X12067D01*
Y6770D01*
D02*
G37*
G36*
X5067D02*
X5015D01*
Y6713D01*
X5067D01*
Y6770D01*
D02*
G37*
G36*
X6067D02*
X6015D01*
Y6713D01*
X6067D01*
Y6770D01*
D02*
G37*
G36*
X4067D02*
X4015D01*
Y6713D01*
X4067D01*
Y6770D01*
D02*
G37*
G36*
X12067Y6687D02*
X12015D01*
Y6630D01*
X12067D01*
Y6687D01*
D02*
G37*
G36*
X3067Y6770D02*
X3015D01*
Y6713D01*
X3067D01*
Y6770D01*
D02*
G37*
G36*
X10067D02*
X10015D01*
Y6713D01*
X10067D01*
Y6770D01*
D02*
G37*
G36*
X11067D02*
X11015D01*
Y6713D01*
X11067D01*
Y6770D01*
D02*
G37*
G36*
X9067D02*
X9015D01*
Y6713D01*
X9067D01*
Y6770D01*
D02*
G37*
G36*
X7067D02*
X7015D01*
Y6713D01*
X7067D01*
Y6770D01*
D02*
G37*
G36*
X8067D02*
X8015D01*
Y6713D01*
X8067D01*
Y6770D01*
D02*
G37*
G36*
X7855Y5252D02*
X7768D01*
Y5195D01*
X7855D01*
Y5252D01*
D02*
G37*
G36*
X5855Y3335D02*
X5768D01*
Y3278D01*
X5855D01*
Y3335D01*
D02*
G37*
G36*
X10855D02*
X10768D01*
Y3278D01*
X10855D01*
Y3335D01*
D02*
G37*
G36*
X11855D02*
X11768D01*
Y3278D01*
X11855D01*
Y3335D01*
D02*
G37*
G36*
X8855D02*
X8768D01*
Y3278D01*
X8855D01*
Y3335D01*
D02*
G37*
G36*
X9855D02*
X9768D01*
Y3278D01*
X9855D01*
Y3335D01*
D02*
G37*
G36*
X3067Y3687D02*
X3015D01*
Y3630D01*
X3067D01*
Y3687D01*
D02*
G37*
G36*
X4067D02*
X4015D01*
Y3630D01*
X4067D01*
Y3687D01*
D02*
G37*
G36*
X2775Y3575D02*
X2688D01*
Y3488D01*
X2775D01*
Y3575D01*
D02*
G37*
G36*
X2929Y3576D02*
X2903Y3573D01*
X2878Y3563D01*
X2857Y3547D01*
X2841Y3526D01*
X2831Y3501D01*
X2828Y3475D01*
X2831Y3449D01*
X2840Y3427D01*
Y3335D01*
X2768D01*
Y3265D01*
Y3195D01*
X2840D01*
Y3075D01*
X2770Y3005D01*
X2655D01*
Y2865D01*
X2855D01*
Y2980D01*
X2906Y3032D01*
X2915Y3044D01*
X2915Y3047D01*
X2918Y3059D01*
Y3366D01*
X2927Y3374D01*
X2929Y3374D01*
X2955Y3377D01*
X2980Y3387D01*
X3001Y3403D01*
X3017Y3424D01*
X3027Y3449D01*
X3030Y3475D01*
X3027Y3501D01*
X3017Y3526D01*
X3001Y3547D01*
X2980Y3563D01*
X2955Y3573D01*
X2929Y3576D01*
D02*
G37*
G36*
X2775Y3462D02*
X2688D01*
Y3375D01*
X2775D01*
Y3462D01*
D02*
G37*
G36*
X7855Y3335D02*
X7768D01*
Y3278D01*
X7855D01*
Y3335D01*
D02*
G37*
G36*
X8742D02*
X8655D01*
Y3278D01*
X8742D01*
Y3335D01*
D02*
G37*
G36*
X9742D02*
X9655D01*
Y3278D01*
X9742D01*
Y3335D01*
D02*
G37*
G36*
X7742D02*
X7655D01*
Y3278D01*
X7742D01*
Y3335D01*
D02*
G37*
G36*
X3742D02*
X3655D01*
Y3278D01*
X3742D01*
Y3335D01*
D02*
G37*
G36*
X4742D02*
X4655D01*
Y3278D01*
X4742D01*
Y3335D01*
D02*
G37*
G36*
X3855D02*
X3768D01*
Y3278D01*
X3855D01*
Y3335D01*
D02*
G37*
G36*
X4855D02*
X4768D01*
Y3278D01*
X4855D01*
Y3335D01*
D02*
G37*
G36*
X6855D02*
X6768D01*
Y3278D01*
X6855D01*
Y3335D01*
D02*
G37*
G36*
X5742D02*
X5655D01*
Y3278D01*
X5742D01*
Y3335D01*
D02*
G37*
G36*
X10742D02*
X10655D01*
Y3278D01*
X10742D01*
Y3335D01*
D02*
G37*
G36*
X5067Y3687D02*
X5015D01*
Y3630D01*
X5067D01*
Y3687D01*
D02*
G37*
G36*
X9067Y3770D02*
X9015D01*
Y3713D01*
X9067D01*
Y3770D01*
D02*
G37*
G36*
X10067D02*
X10015D01*
Y3713D01*
X10067D01*
Y3770D01*
D02*
G37*
G36*
X8067D02*
X8015D01*
Y3713D01*
X8067D01*
Y3770D01*
D02*
G37*
G36*
X6067D02*
X6015D01*
Y3713D01*
X6067D01*
Y3770D01*
D02*
G37*
G36*
X7067D02*
X7015D01*
Y3713D01*
X7067D01*
Y3770D01*
D02*
G37*
G36*
X4345Y4335D02*
X4145D01*
Y4195D01*
X4345D01*
Y4226D01*
X4409D01*
X4655Y3980D01*
Y3865D01*
X4855D01*
Y4005D01*
X4740D01*
X4452Y4292D01*
X4440Y4301D01*
X4425Y4304D01*
X4345D01*
Y4335D01*
D02*
G37*
G36*
X5345D02*
X5145D01*
Y4195D01*
X5345D01*
Y4226D01*
X5409D01*
X5655Y3980D01*
Y3865D01*
X5855D01*
Y4005D01*
X5740D01*
X5452Y4292D01*
X5440Y4301D01*
X5425Y4304D01*
X5345D01*
Y4335D01*
D02*
G37*
G36*
X3345D02*
X3145D01*
Y4195D01*
X3345D01*
Y4226D01*
X3409D01*
X3655Y3980D01*
Y3865D01*
X3855D01*
Y4005D01*
X3740D01*
X3452Y4292D01*
X3440Y4301D01*
X3425Y4304D01*
X3345D01*
Y4335D01*
D02*
G37*
G36*
X11067Y3770D02*
X11015D01*
Y3713D01*
X11067D01*
Y3770D01*
D02*
G37*
G36*
X12067D02*
X12015D01*
Y3713D01*
X12067D01*
Y3770D01*
D02*
G37*
G36*
X5067D02*
X5015D01*
Y3713D01*
X5067D01*
Y3770D01*
D02*
G37*
G36*
X9067Y3687D02*
X9015D01*
Y3630D01*
X9067D01*
Y3687D01*
D02*
G37*
G36*
X10067D02*
X10015D01*
Y3630D01*
X10067D01*
Y3687D01*
D02*
G37*
G36*
X8067D02*
X8015D01*
Y3630D01*
X8067D01*
Y3687D01*
D02*
G37*
G36*
X6067Y3687D02*
X6015D01*
Y3630D01*
X6067D01*
Y3687D01*
D02*
G37*
G36*
X7067D02*
X7015D01*
Y3630D01*
X7067D01*
Y3687D01*
D02*
G37*
G36*
X3067Y3770D02*
X3015D01*
Y3713D01*
X3067D01*
Y3770D01*
D02*
G37*
G36*
X4067D02*
X4015D01*
Y3713D01*
X4067D01*
Y3770D01*
D02*
G37*
G36*
X2855Y4005D02*
X2655D01*
Y3865D01*
X2711D01*
Y3805D01*
X2705Y3803D01*
X2687Y3788D01*
X2672Y3770D01*
X2663Y3748D01*
X2660Y3725D01*
X2663Y3702D01*
X2672Y3680D01*
X2687Y3662D01*
X2705Y3647D01*
X2727Y3638D01*
X2750Y3635D01*
X2773Y3638D01*
X2795Y3647D01*
X2813Y3662D01*
X2828Y3680D01*
X2837Y3702D01*
X2840Y3725D01*
X2837Y3748D01*
X2828Y3770D01*
X2813Y3788D01*
X2795Y3803D01*
X2789Y3805D01*
Y3865D01*
X2855D01*
Y4005D01*
D02*
G37*
G36*
X11067Y3687D02*
X11015D01*
Y3630D01*
X11067D01*
Y3687D01*
D02*
G37*
G36*
X12067D02*
X12015D01*
Y3630D01*
X12067D01*
Y3687D01*
D02*
G37*
G36*
X5345Y3335D02*
X5145D01*
Y3195D01*
X5345D01*
Y3226D01*
X5409D01*
X5655Y2980D01*
Y2865D01*
X5855D01*
Y3005D01*
X5740D01*
X5452Y3292D01*
X5448Y3295D01*
X5440Y3301D01*
X5425Y3304D01*
X5345D01*
Y3335D01*
D02*
G37*
G36*
X6345D02*
X6145D01*
Y3195D01*
X6345D01*
Y3226D01*
X6409D01*
X6655Y2980D01*
Y2865D01*
X6855D01*
Y3005D01*
X6740D01*
X6452Y3292D01*
X6440Y3301D01*
X6425Y3304D01*
X6345D01*
Y3335D01*
D02*
G37*
G36*
X4345D02*
X4145D01*
Y3195D01*
X4345D01*
Y3226D01*
X4409D01*
X4655Y2980D01*
Y2865D01*
X4855D01*
Y3005D01*
X4740D01*
X4452Y3292D01*
X4440Y3301D01*
X4425Y3304D01*
X4345D01*
Y3335D01*
D02*
G37*
G36*
X3763Y2809D02*
Y2738D01*
X3834D01*
X3833Y2747D01*
X3825Y2768D01*
X3811Y2786D01*
X3793Y2800D01*
X3772Y2808D01*
X3763Y2809D01*
D02*
G37*
G36*
X3345Y3335D02*
X3145D01*
Y3195D01*
X3345D01*
Y3226D01*
X3409D01*
X3655Y2980D01*
Y2865D01*
X3855D01*
Y3005D01*
X3740D01*
X3452Y3292D01*
X3448Y3295D01*
X3440Y3301D01*
X3425Y3304D01*
X3345D01*
Y3335D01*
D02*
G37*
G36*
X10345D02*
X10145D01*
Y3195D01*
X10345D01*
Y3226D01*
X10409D01*
X10655Y2980D01*
Y2865D01*
X10855D01*
Y3005D01*
X10740D01*
X10452Y3292D01*
X10440Y3301D01*
X10425Y3304D01*
X10345D01*
Y3335D01*
D02*
G37*
G36*
X11345D02*
X11145D01*
Y3195D01*
X11345D01*
Y3226D01*
X11409D01*
X11655Y2980D01*
Y2865D01*
X11855D01*
Y3005D01*
X11740D01*
X11452Y3292D01*
X11440Y3301D01*
X11425Y3304D01*
X11345D01*
Y3335D01*
D02*
G37*
G36*
X9345D02*
X9145D01*
Y3195D01*
X9345D01*
Y3226D01*
X9409D01*
X9655Y2980D01*
Y2865D01*
X9855D01*
Y3005D01*
X9740D01*
X9452Y3292D01*
X9440Y3301D01*
X9425Y3304D01*
X9345D01*
Y3335D01*
D02*
G37*
G36*
X7345D02*
X7145D01*
Y3195D01*
X7345D01*
Y3226D01*
X7409D01*
X7655Y2980D01*
Y2865D01*
X7855D01*
Y3005D01*
X7740D01*
X7452Y3292D01*
X7448Y3295D01*
X7440Y3301D01*
X7425Y3304D01*
X7345D01*
Y3335D01*
D02*
G37*
G36*
X8345D02*
X8145D01*
Y3195D01*
X8345D01*
Y3226D01*
X8409D01*
X8655Y2980D01*
Y2865D01*
X8855D01*
Y3005D01*
X8740D01*
X8452Y3292D01*
X8440Y3301D01*
X8425Y3304D01*
X8345D01*
Y3335D01*
D02*
G37*
G36*
X3737Y2809D02*
X3728Y2808D01*
X3707Y2800D01*
X3689Y2786D01*
X3675Y2768D01*
X3667Y2747D01*
X3666Y2738D01*
X3737D01*
Y2809D01*
D02*
G37*
G36*
X4067Y2770D02*
X4015D01*
Y2713D01*
X4067D01*
Y2770D01*
D02*
G37*
G36*
X5067D02*
X5015D01*
Y2713D01*
X5067D01*
Y2770D01*
D02*
G37*
G36*
X3067D02*
X3015D01*
Y2713D01*
X3067D01*
Y2770D01*
D02*
G37*
G36*
X6067D02*
X6015D01*
Y2713D01*
X6067D01*
Y2770D01*
D02*
G37*
G36*
X7067D02*
X7015D01*
Y2713D01*
X7067D01*
Y2770D01*
D02*
G37*
G36*
X11067D02*
X11015D01*
Y2713D01*
X11067D01*
Y2770D01*
D02*
G37*
G36*
X12067D02*
X12015D01*
Y2713D01*
X12067D01*
Y2770D01*
D02*
G37*
G36*
X10067D02*
X10015D01*
Y2713D01*
X10067D01*
Y2770D01*
D02*
G37*
G36*
X8067D02*
X8015D01*
Y2713D01*
X8067D01*
Y2770D01*
D02*
G37*
G36*
X9067D02*
X9015D01*
Y2713D01*
X9067D01*
Y2770D01*
D02*
G37*
G36*
X2742Y3252D02*
X2655D01*
Y3195D01*
X2742D01*
Y3252D01*
D02*
G37*
G36*
X10742D02*
X10655D01*
Y3195D01*
X10742D01*
Y3252D01*
D02*
G37*
G36*
X10855D02*
X10768D01*
Y3195D01*
X10855D01*
Y3252D01*
D02*
G37*
G36*
X9855D02*
X9768D01*
Y3195D01*
X9855D01*
Y3252D01*
D02*
G37*
G36*
X8855D02*
X8768D01*
Y3195D01*
X8855D01*
Y3252D01*
D02*
G37*
G36*
X9742D02*
X9655D01*
Y3195D01*
X9742D01*
Y3252D01*
D02*
G37*
G36*
X11742Y3335D02*
X11655D01*
Y3278D01*
X11742D01*
Y3335D01*
D02*
G37*
G36*
X2742D02*
X2655D01*
Y3278D01*
X2742D01*
Y3335D01*
D02*
G37*
G36*
X6742D02*
X6655D01*
Y3278D01*
X6742D01*
Y3335D01*
D02*
G37*
G36*
X11742Y3252D02*
X11655D01*
Y3195D01*
X11742D01*
Y3252D01*
D02*
G37*
G36*
X11855D02*
X11768D01*
Y3195D01*
X11855D01*
Y3252D01*
D02*
G37*
G36*
X8742D02*
X8655D01*
Y3195D01*
X8742D01*
Y3252D01*
D02*
G37*
G36*
X4855D02*
X4768D01*
Y3195D01*
X4855D01*
Y3252D01*
D02*
G37*
G36*
X5742D02*
X5655D01*
Y3195D01*
X5742D01*
Y3252D01*
D02*
G37*
G36*
X4742D02*
X4655D01*
Y3195D01*
X4742D01*
Y3252D01*
D02*
G37*
G36*
X3742D02*
X3655D01*
Y3195D01*
X3742D01*
Y3252D01*
D02*
G37*
G36*
X3855D02*
X3768D01*
Y3195D01*
X3855D01*
Y3252D01*
D02*
G37*
G36*
X7742D02*
X7655D01*
Y3195D01*
X7742D01*
Y3252D01*
D02*
G37*
G36*
X7855D02*
X7768D01*
Y3195D01*
X7855D01*
Y3252D01*
D02*
G37*
G36*
X6855D02*
X6768D01*
Y3195D01*
X6855D01*
Y3252D01*
D02*
G37*
G36*
X5855D02*
X5768D01*
Y3195D01*
X5855D01*
Y3252D01*
D02*
G37*
G36*
X6742D02*
X6655D01*
Y3195D01*
X6742D01*
Y3252D01*
D02*
G37*
G36*
X4067Y4770D02*
X4015D01*
Y4713D01*
X4067D01*
Y4770D01*
D02*
G37*
G36*
X5067D02*
X5015D01*
Y4713D01*
X5067D01*
Y4770D01*
D02*
G37*
G36*
X3067D02*
X3015D01*
Y4713D01*
X3067D01*
Y4770D01*
D02*
G37*
G36*
X11067Y4687D02*
X11015D01*
Y4630D01*
X11067D01*
Y4687D01*
D02*
G37*
G36*
X12067D02*
X12015D01*
Y4630D01*
X12067D01*
Y4687D01*
D02*
G37*
G36*
X9067Y4770D02*
X9015D01*
Y4713D01*
X9067D01*
Y4770D01*
D02*
G37*
G36*
X10067D02*
X10015D01*
Y4713D01*
X10067D01*
Y4770D01*
D02*
G37*
G36*
X8067D02*
X8015D01*
Y4713D01*
X8067D01*
Y4770D01*
D02*
G37*
G36*
X6067D02*
X6015D01*
Y4713D01*
X6067D01*
Y4770D01*
D02*
G37*
G36*
X7067D02*
X7015D01*
Y4713D01*
X7067D01*
Y4770D01*
D02*
G37*
G36*
X10067Y4687D02*
X10015D01*
Y4630D01*
X10067D01*
Y4687D01*
D02*
G37*
G36*
X3067Y4687D02*
X3015D01*
Y4630D01*
X3067D01*
Y4687D01*
D02*
G37*
G36*
X4067D02*
X4015D01*
Y4630D01*
X4067D01*
Y4687D01*
D02*
G37*
G36*
X10855Y4335D02*
X10768D01*
Y4278D01*
X10855D01*
Y4335D01*
D02*
G37*
G36*
X2855D02*
X2768D01*
Y4278D01*
X2855D01*
Y4335D01*
D02*
G37*
G36*
X9855D02*
X9768D01*
Y4278D01*
X9855D01*
Y4335D01*
D02*
G37*
G36*
X8067Y4687D02*
X8015D01*
Y4630D01*
X8067D01*
Y4687D01*
D02*
G37*
G36*
X9067D02*
X9015D01*
Y4630D01*
X9067D01*
Y4687D01*
D02*
G37*
G36*
X7067Y4687D02*
X7015D01*
Y4630D01*
X7067D01*
Y4687D01*
D02*
G37*
G36*
X5067D02*
X5015D01*
Y4630D01*
X5067D01*
Y4687D01*
D02*
G37*
G36*
X6067D02*
X6015D01*
Y4630D01*
X6067D01*
Y4687D01*
D02*
G37*
G36*
X11067Y4770D02*
X11015D01*
Y4713D01*
X11067D01*
Y4770D01*
D02*
G37*
G36*
X4742Y5252D02*
X4655D01*
Y5195D01*
X4742D01*
Y5252D01*
D02*
G37*
G36*
X4855D02*
X4768D01*
Y5195D01*
X4855D01*
Y5252D01*
D02*
G37*
G36*
X3855D02*
X3768D01*
Y5195D01*
X3855D01*
Y5252D01*
D02*
G37*
G36*
X2855D02*
X2768D01*
Y5195D01*
X2855D01*
Y5252D01*
D02*
G37*
G36*
X3742D02*
X3655D01*
Y5195D01*
X3742D01*
Y5252D01*
D02*
G37*
G36*
X6855D02*
X6768D01*
Y5195D01*
X6855D01*
Y5252D01*
D02*
G37*
G36*
X7742D02*
X7655D01*
Y5195D01*
X7742D01*
Y5252D01*
D02*
G37*
G36*
X6742D02*
X6655D01*
Y5195D01*
X6742D01*
Y5252D01*
D02*
G37*
G36*
X5742D02*
X5655D01*
Y5195D01*
X5742D01*
Y5252D01*
D02*
G37*
G36*
X5855D02*
X5768D01*
Y5195D01*
X5855D01*
Y5252D01*
D02*
G37*
G36*
X2742D02*
X2655D01*
Y5195D01*
X2742D01*
Y5252D01*
D02*
G37*
G36*
X5345Y5335D02*
X5145D01*
Y5195D01*
X5345D01*
Y5226D01*
X5409D01*
X5655Y4980D01*
Y4865D01*
X5855D01*
Y5005D01*
X5740D01*
X5452Y5292D01*
X5440Y5301D01*
X5425Y5304D01*
X5345D01*
Y5335D01*
D02*
G37*
G36*
X6345D02*
X6145D01*
Y5195D01*
X6345D01*
Y5226D01*
X6409D01*
X6655Y4980D01*
Y4865D01*
X6855D01*
Y5005D01*
X6740D01*
X6452Y5292D01*
X6440Y5301D01*
X6425Y5304D01*
X6345D01*
Y5335D01*
D02*
G37*
G36*
X4345D02*
X4145D01*
Y5195D01*
X4345D01*
Y5226D01*
X4409D01*
X4655Y4980D01*
Y4865D01*
X4855D01*
Y5005D01*
X4740D01*
X4452Y5292D01*
X4440Y5301D01*
X4425Y5304D01*
X4345D01*
Y5335D01*
D02*
G37*
G36*
X12067Y4770D02*
X12015D01*
Y4713D01*
X12067D01*
Y4770D01*
D02*
G37*
G36*
X3345Y5335D02*
X3145D01*
Y5195D01*
X3345D01*
Y5226D01*
X3409D01*
X3655Y4980D01*
Y4865D01*
X3855D01*
Y5005D01*
X3740D01*
X3452Y5292D01*
X3440Y5301D01*
X3425Y5304D01*
X3345D01*
Y5335D01*
D02*
G37*
G36*
X10345D02*
X10145D01*
Y5195D01*
X10345D01*
Y5226D01*
X10409D01*
X10655Y4980D01*
Y4865D01*
X10855D01*
Y5005D01*
X10740D01*
X10452Y5292D01*
X10440Y5301D01*
X10425Y5304D01*
X10345D01*
Y5335D01*
D02*
G37*
G36*
X11345D02*
X11145D01*
Y5195D01*
X11345D01*
Y5226D01*
X11409D01*
X11655Y4980D01*
Y4865D01*
X11855D01*
Y5005D01*
X11740D01*
X11452Y5292D01*
X11440Y5301D01*
X11425Y5304D01*
X11345D01*
Y5335D01*
D02*
G37*
G36*
X9345D02*
X9145D01*
Y5195D01*
X9345D01*
Y5226D01*
X9409D01*
X9655Y4980D01*
Y4865D01*
X9855D01*
Y5005D01*
X9740D01*
X9452Y5292D01*
X9440Y5301D01*
X9425Y5304D01*
X9345D01*
Y5335D01*
D02*
G37*
G36*
X7345D02*
X7145D01*
Y5195D01*
X7345D01*
Y5226D01*
X7409D01*
X7655Y4980D01*
Y4865D01*
X7855D01*
Y5005D01*
X7740D01*
X7452Y5292D01*
X7440Y5301D01*
X7425Y5304D01*
X7345D01*
Y5335D01*
D02*
G37*
G36*
X8345D02*
X8145D01*
Y5195D01*
X8345D01*
Y5226D01*
X8409D01*
X8655Y4980D01*
Y4865D01*
X8855D01*
Y5005D01*
X8740D01*
X8452Y5292D01*
X8440Y5301D01*
X8425Y5304D01*
X8345D01*
Y5335D01*
D02*
G37*
G36*
X6742Y4252D02*
X6655D01*
Y4195D01*
X6742D01*
Y4252D01*
D02*
G37*
G36*
X6855D02*
X6768D01*
Y4195D01*
X6855D01*
Y4252D01*
D02*
G37*
G36*
X5855D02*
X5768D01*
Y4195D01*
X5855D01*
Y4252D01*
D02*
G37*
G36*
X4855D02*
X4768D01*
Y4195D01*
X4855D01*
Y4252D01*
D02*
G37*
G36*
X5742D02*
X5655D01*
Y4195D01*
X5742D01*
Y4252D01*
D02*
G37*
G36*
X8855D02*
X8768D01*
Y4195D01*
X8855D01*
Y4252D01*
D02*
G37*
G36*
X9742D02*
X9655D01*
Y4195D01*
X9742D01*
Y4252D01*
D02*
G37*
G36*
X8742D02*
X8655D01*
Y4195D01*
X8742D01*
Y4252D01*
D02*
G37*
G36*
X7742D02*
X7655D01*
Y4195D01*
X7742D01*
Y4252D01*
D02*
G37*
G36*
X7855D02*
X7768D01*
Y4195D01*
X7855D01*
Y4252D01*
D02*
G37*
G36*
X4742D02*
X4655D01*
Y4195D01*
X4742D01*
Y4252D01*
D02*
G37*
G36*
X9345Y4335D02*
X9145D01*
Y4195D01*
X9345D01*
Y4226D01*
X9409D01*
X9655Y3980D01*
Y3865D01*
X9855D01*
Y4005D01*
X9740D01*
X9452Y4292D01*
X9440Y4301D01*
X9425Y4304D01*
X9345D01*
Y4335D01*
D02*
G37*
G36*
X10345D02*
X10145D01*
Y4195D01*
X10345D01*
Y4226D01*
X10409D01*
X10655Y3980D01*
Y3865D01*
X10855D01*
Y4005D01*
X10740D01*
X10452Y4292D01*
X10440Y4301D01*
X10425Y4304D01*
X10345D01*
Y4335D01*
D02*
G37*
G36*
X8345D02*
X8145D01*
Y4195D01*
X8345D01*
Y4226D01*
X8409D01*
X8655Y3980D01*
Y3865D01*
X8855D01*
Y4005D01*
X8740D01*
X8452Y4292D01*
X8440Y4301D01*
X8425Y4304D01*
X8345D01*
Y4335D01*
D02*
G37*
G36*
X6345D02*
X6145D01*
Y4195D01*
X6345D01*
Y4226D01*
X6409D01*
X6655Y3980D01*
Y3865D01*
X6855D01*
Y4005D01*
X6740D01*
X6452Y4292D01*
X6440Y4301D01*
X6425Y4304D01*
X6345D01*
Y4335D01*
D02*
G37*
G36*
X7345D02*
X7145D01*
Y4195D01*
X7345D01*
Y4226D01*
X7409D01*
X7655Y3980D01*
Y3865D01*
X7855D01*
Y4005D01*
X7740D01*
X7452Y4292D01*
X7440Y4301D01*
X7425Y4304D01*
X7345D01*
Y4335D01*
D02*
G37*
G36*
X3742Y4252D02*
X3655D01*
Y4195D01*
X3742D01*
Y4252D01*
D02*
G37*
G36*
X3855D02*
X3768D01*
Y4195D01*
X3855D01*
Y4252D01*
D02*
G37*
G36*
X2855D02*
X2768D01*
Y4195D01*
X2855D01*
Y4252D01*
D02*
G37*
G36*
X11345Y4335D02*
X11145D01*
Y4195D01*
X11345D01*
Y4226D01*
X11409D01*
X11655Y3980D01*
Y3865D01*
X11855D01*
Y4005D01*
X11740D01*
X11452Y4292D01*
X11440Y4301D01*
X11425Y4304D01*
X11345D01*
Y4335D01*
D02*
G37*
G36*
X2742Y4252D02*
X2655D01*
Y4195D01*
X2742D01*
Y4252D01*
D02*
G37*
G36*
X9855D02*
X9768D01*
Y4195D01*
X9855D01*
Y4252D01*
D02*
G37*
G36*
X4855Y4335D02*
X4768D01*
Y4278D01*
X4855D01*
Y4335D01*
D02*
G37*
G36*
X5855D02*
X5768D01*
Y4278D01*
X5855D01*
Y4335D01*
D02*
G37*
G36*
X9742D02*
X9655D01*
Y4278D01*
X9742D01*
Y4335D01*
D02*
G37*
G36*
X10742D02*
X10655D01*
Y4278D01*
X10742D01*
Y4335D01*
D02*
G37*
G36*
X2742D02*
X2655D01*
Y4278D01*
X2742D01*
Y4335D01*
D02*
G37*
G36*
X6855D02*
X6768D01*
Y4278D01*
X6855D01*
Y4335D01*
D02*
G37*
G36*
X8855D02*
X8768D01*
Y4278D01*
X8855D01*
Y4335D01*
D02*
G37*
G36*
X3855D02*
X3768D01*
Y4278D01*
X3855D01*
Y4335D01*
D02*
G37*
G36*
X7855D02*
X7768D01*
Y4278D01*
X7855D01*
Y4335D01*
D02*
G37*
G36*
X11855D02*
X11768D01*
Y4278D01*
X11855D01*
Y4335D01*
D02*
G37*
G36*
X8742D02*
X8655D01*
Y4278D01*
X8742D01*
Y4335D01*
D02*
G37*
G36*
X11855Y4252D02*
X11768D01*
Y4195D01*
X11855D01*
Y4252D01*
D02*
G37*
G36*
X4742Y4335D02*
X4655D01*
Y4278D01*
X4742D01*
Y4335D01*
D02*
G37*
G36*
X11742Y4252D02*
X11655D01*
Y4195D01*
X11742D01*
Y4252D01*
D02*
G37*
G36*
X10742D02*
X10655D01*
Y4195D01*
X10742D01*
Y4252D01*
D02*
G37*
G36*
X10855D02*
X10768D01*
Y4195D01*
X10855D01*
Y4252D01*
D02*
G37*
G36*
X11742Y4335D02*
X11655D01*
Y4278D01*
X11742D01*
Y4335D01*
D02*
G37*
G36*
X3742D02*
X3655D01*
Y4278D01*
X3742D01*
Y4335D01*
D02*
G37*
G36*
X7742D02*
X7655D01*
Y4278D01*
X7742D01*
Y4335D01*
D02*
G37*
G36*
X5742D02*
X5655D01*
Y4278D01*
X5742D01*
Y4335D01*
D02*
G37*
G36*
X6742D02*
X6655D01*
Y4278D01*
X6742D01*
Y4335D01*
D02*
G37*
G36*
X6067Y7687D02*
X6015D01*
Y7630D01*
X6067D01*
Y7687D01*
D02*
G37*
G36*
X7345Y11335D02*
X7145D01*
Y11195D01*
X7345D01*
Y11226D01*
X7409D01*
X7655Y10980D01*
Y10865D01*
X7855D01*
Y11005D01*
X7740D01*
X7452Y11292D01*
X7440Y11301D01*
X7425Y11304D01*
X7345D01*
Y11335D01*
D02*
G37*
G36*
X8345D02*
X8145D01*
Y11195D01*
X8345D01*
Y11226D01*
X8409D01*
X8655Y10980D01*
Y10865D01*
X8855D01*
Y11005D01*
X8740D01*
X8452Y11292D01*
X8440Y11301D01*
X8425Y11304D01*
X8345D01*
Y11335D01*
D02*
G37*
G36*
X6345D02*
X6145D01*
Y11195D01*
X6345D01*
Y11226D01*
X6409D01*
X6655Y10980D01*
Y10865D01*
X6855D01*
Y11005D01*
X6740D01*
X6452Y11292D01*
X6440Y11301D01*
X6425Y11304D01*
X6345D01*
Y11335D01*
D02*
G37*
G36*
X4345D02*
X4145D01*
Y11195D01*
X4345D01*
Y11226D01*
X4409D01*
X4655Y10980D01*
Y10865D01*
X4855D01*
Y11005D01*
X4740D01*
X4452Y11292D01*
X4440Y11301D01*
X4425Y11304D01*
X4345D01*
Y11335D01*
D02*
G37*
G36*
X5345D02*
X5145D01*
Y11195D01*
X5345D01*
Y11226D01*
X5409D01*
X5655Y10980D01*
Y10865D01*
X5855D01*
Y11005D01*
X5740D01*
X5452Y11292D01*
X5440Y11301D01*
X5425Y11304D01*
X5345D01*
Y11335D01*
D02*
G37*
G36*
X2855Y11252D02*
X2768D01*
Y11195D01*
X2855D01*
Y11252D01*
D02*
G37*
G36*
X3742D02*
X3655D01*
Y11195D01*
X3742D01*
Y11252D01*
D02*
G37*
G36*
X2742D02*
X2655D01*
Y11195D01*
X2742D01*
Y11252D01*
D02*
G37*
G36*
X9345Y11335D02*
X9145D01*
Y11195D01*
X9345D01*
Y11226D01*
X9409D01*
X9655Y10980D01*
Y10865D01*
X9855D01*
Y11005D01*
X9740D01*
X9452Y11292D01*
X9440Y11301D01*
X9425Y11304D01*
X9345D01*
Y11335D01*
D02*
G37*
G36*
X10345D02*
X10145D01*
Y11195D01*
X10345D01*
Y11226D01*
X10409D01*
X10655Y10980D01*
Y10865D01*
X10855D01*
Y11005D01*
X10740D01*
X10452Y11292D01*
X10440Y11301D01*
X10425Y11304D01*
X10345D01*
Y11335D01*
D02*
G37*
G36*
X3345D02*
X3145D01*
Y11195D01*
X3345D01*
Y11226D01*
X3409D01*
X3655Y10980D01*
Y10865D01*
X3855D01*
Y11005D01*
X3740D01*
X3452Y11292D01*
X3440Y11301D01*
X3425Y11304D01*
X3345D01*
Y11335D01*
D02*
G37*
G36*
X6067Y10770D02*
X6015D01*
Y10713D01*
X6067D01*
Y10770D01*
D02*
G37*
G36*
X7067D02*
X7015D01*
Y10713D01*
X7067D01*
Y10770D01*
D02*
G37*
G36*
X5067D02*
X5015D01*
Y10713D01*
X5067D01*
Y10770D01*
D02*
G37*
G36*
X3067D02*
X3015D01*
Y10713D01*
X3067D01*
Y10770D01*
D02*
G37*
G36*
X4067D02*
X4015D01*
Y10713D01*
X4067D01*
Y10770D01*
D02*
G37*
G36*
X11067D02*
X11015D01*
Y10713D01*
X11067D01*
Y10770D01*
D02*
G37*
G36*
X12067D02*
X12015D01*
Y10713D01*
X12067D01*
Y10770D01*
D02*
G37*
G36*
X10067D02*
X10015D01*
Y10713D01*
X10067D01*
Y10770D01*
D02*
G37*
G36*
X8067D02*
X8015D01*
Y10713D01*
X8067D01*
Y10770D01*
D02*
G37*
G36*
X9067D02*
X9015D01*
Y10713D01*
X9067D01*
Y10770D01*
D02*
G37*
G36*
X3855Y11252D02*
X3768D01*
Y11195D01*
X3855D01*
Y11252D01*
D02*
G37*
G36*
X11742D02*
X11655D01*
Y11195D01*
X11742D01*
Y11252D01*
D02*
G37*
G36*
X11855D02*
X11768D01*
Y11195D01*
X11855D01*
Y11252D01*
D02*
G37*
G36*
X10855D02*
X10768D01*
Y11195D01*
X10855D01*
Y11252D01*
D02*
G37*
G36*
X9855D02*
X9768D01*
Y11195D01*
X9855D01*
Y11252D01*
D02*
G37*
G36*
X10742D02*
X10655D01*
Y11195D01*
X10742D01*
Y11252D01*
D02*
G37*
G36*
X4742Y11335D02*
X4655D01*
Y11278D01*
X4742D01*
Y11335D01*
D02*
G37*
G36*
X5742D02*
X5655D01*
Y11278D01*
X5742D01*
Y11335D01*
D02*
G37*
G36*
X3742D02*
X3655D01*
Y11278D01*
X3742D01*
Y11335D01*
D02*
G37*
G36*
X10742D02*
X10655D01*
Y11278D01*
X10742D01*
Y11335D01*
D02*
G37*
G36*
X2742D02*
X2655D01*
Y11278D01*
X2742D01*
Y11335D01*
D02*
G37*
G36*
X9742Y11252D02*
X9655D01*
Y11195D01*
X9742D01*
Y11252D01*
D02*
G37*
G36*
X5855D02*
X5768D01*
Y11195D01*
X5855D01*
Y11252D01*
D02*
G37*
G36*
X6742D02*
X6655D01*
Y11195D01*
X6742D01*
Y11252D01*
D02*
G37*
G36*
X5742D02*
X5655D01*
Y11195D01*
X5742D01*
Y11252D01*
D02*
G37*
G36*
X4742D02*
X4655D01*
Y11195D01*
X4742D01*
Y11252D01*
D02*
G37*
G36*
X4855D02*
X4768D01*
Y11195D01*
X4855D01*
Y11252D01*
D02*
G37*
G36*
X8742D02*
X8655D01*
Y11195D01*
X8742D01*
Y11252D01*
D02*
G37*
G36*
X8855D02*
X8768D01*
Y11195D01*
X8855D01*
Y11252D01*
D02*
G37*
G36*
X7855D02*
X7768D01*
Y11195D01*
X7855D01*
Y11252D01*
D02*
G37*
G36*
X6855D02*
X6768D01*
Y11195D01*
X6855D01*
Y11252D01*
D02*
G37*
G36*
X7742D02*
X7655D01*
Y11195D01*
X7742D01*
Y11252D01*
D02*
G37*
G36*
X3742Y10335D02*
X3655D01*
Y10278D01*
X3742D01*
Y10335D01*
D02*
G37*
G36*
X4742D02*
X4655D01*
Y10278D01*
X4742D01*
Y10335D01*
D02*
G37*
G36*
X2742D02*
X2655D01*
Y10278D01*
X2742D01*
Y10335D01*
D02*
G37*
G36*
X11855Y10252D02*
X11768D01*
Y10195D01*
X11855D01*
Y10252D01*
D02*
G37*
G36*
X10742Y10335D02*
X10655D01*
Y10278D01*
X10742D01*
Y10335D01*
D02*
G37*
G36*
X7742D02*
X7655D01*
Y10278D01*
X7742D01*
Y10335D01*
D02*
G37*
G36*
X8742D02*
X8655D01*
Y10278D01*
X8742D01*
Y10335D01*
D02*
G37*
G36*
X11742D02*
X11655D01*
Y10278D01*
X11742D01*
Y10335D01*
D02*
G37*
G36*
X5742D02*
X5655D01*
Y10278D01*
X5742D01*
Y10335D01*
D02*
G37*
G36*
X6742D02*
X6655D01*
Y10278D01*
X6742D01*
Y10335D01*
D02*
G37*
G36*
X11742Y10252D02*
X11655D01*
Y10195D01*
X11742D01*
Y10252D01*
D02*
G37*
G36*
X7855D02*
X7768D01*
Y10195D01*
X7855D01*
Y10252D01*
D02*
G37*
G36*
X8742D02*
X8655D01*
Y10195D01*
X8742D01*
Y10252D01*
D02*
G37*
G36*
X7742D02*
X7655D01*
Y10195D01*
X7742D01*
Y10252D01*
D02*
G37*
G36*
X6742D02*
X6655D01*
Y10195D01*
X6742D01*
Y10252D01*
D02*
G37*
G36*
X6855D02*
X6768D01*
Y10195D01*
X6855D01*
Y10252D01*
D02*
G37*
G36*
X10742D02*
X10655D01*
Y10195D01*
X10742D01*
Y10252D01*
D02*
G37*
G36*
X10855D02*
X10768D01*
Y10195D01*
X10855D01*
Y10252D01*
D02*
G37*
G36*
X9855D02*
X9768D01*
Y10195D01*
X9855D01*
Y10252D01*
D02*
G37*
G36*
X8855D02*
X8768D01*
Y10195D01*
X8855D01*
Y10252D01*
D02*
G37*
G36*
X9742D02*
X9655D01*
Y10195D01*
X9742D01*
Y10252D01*
D02*
G37*
G36*
Y10335D02*
X9655D01*
Y10278D01*
X9742D01*
Y10335D01*
D02*
G37*
G36*
X6067Y10687D02*
X6015D01*
Y10630D01*
X6067D01*
Y10687D01*
D02*
G37*
G36*
X7067D02*
X7015D01*
Y10630D01*
X7067D01*
Y10687D01*
D02*
G37*
G36*
X5067D02*
X5015D01*
Y10630D01*
X5067D01*
Y10687D01*
D02*
G37*
G36*
X3067D02*
X3015D01*
Y10630D01*
X3067D01*
Y10687D01*
D02*
G37*
G36*
X4067D02*
X4015D01*
Y10630D01*
X4067D01*
Y10687D01*
D02*
G37*
G36*
X11067Y10687D02*
X11015D01*
Y10630D01*
X11067D01*
Y10687D01*
D02*
G37*
G36*
X12067D02*
X12015D01*
Y10630D01*
X12067D01*
Y10687D01*
D02*
G37*
G36*
X10067D02*
X10015D01*
Y10630D01*
X10067D01*
Y10687D01*
D02*
G37*
G36*
X8067D02*
X8015D01*
Y10630D01*
X8067D01*
Y10687D01*
D02*
G37*
G36*
X9067D02*
X9015D01*
Y10630D01*
X9067D01*
Y10687D01*
D02*
G37*
G36*
X2855Y11005D02*
X2655D01*
Y10865D01*
X2711D01*
Y10655D01*
X2705Y10653D01*
X2687Y10638D01*
X2672Y10620D01*
X2663Y10598D01*
X2660Y10575D01*
X2663Y10552D01*
X2672Y10530D01*
X2687Y10512D01*
X2705Y10497D01*
X2727Y10488D01*
X2750Y10485D01*
X2773Y10488D01*
X2795Y10497D01*
X2813Y10512D01*
X2828Y10530D01*
X2837Y10552D01*
X2840Y10575D01*
X2837Y10598D01*
X2828Y10620D01*
X2813Y10638D01*
X2795Y10653D01*
X2789Y10655D01*
Y10865D01*
X2855D01*
Y11005D01*
D02*
G37*
G36*
X3855Y10335D02*
X3768D01*
Y10278D01*
X3855D01*
Y10335D01*
D02*
G37*
G36*
X4855D02*
X4768D01*
Y10278D01*
X4855D01*
Y10335D01*
D02*
G37*
G36*
X11855D02*
X11768D01*
Y10278D01*
X11855D01*
Y10335D01*
D02*
G37*
G36*
X2855D02*
X2768D01*
Y10278D01*
X2855D01*
Y10335D01*
D02*
G37*
G36*
X10855D02*
X10768D01*
Y10278D01*
X10855D01*
Y10335D01*
D02*
G37*
G36*
X9855D02*
X9768D01*
Y10278D01*
X9855D01*
Y10335D01*
D02*
G37*
G36*
X8855D02*
X8768D01*
Y10278D01*
X8855D01*
Y10335D01*
D02*
G37*
G36*
X7855D02*
X7768D01*
Y10278D01*
X7855D01*
Y10335D01*
D02*
G37*
G36*
X5855D02*
X5768D01*
Y10278D01*
X5855D01*
Y10335D01*
D02*
G37*
G36*
X6855D02*
X6768D01*
Y10278D01*
X6855D01*
Y10335D01*
D02*
G37*
G36*
X7855Y12252D02*
X7768D01*
Y12195D01*
X7855D01*
Y12252D01*
D02*
G37*
G36*
X8742D02*
X8655D01*
Y12195D01*
X8742D01*
Y12252D01*
D02*
G37*
G36*
X7742D02*
X7655D01*
Y12195D01*
X7742D01*
Y12252D01*
D02*
G37*
G36*
X6742D02*
X6655D01*
Y12195D01*
X6742D01*
Y12252D01*
D02*
G37*
G36*
X6855D02*
X6768D01*
Y12195D01*
X6855D01*
Y12252D01*
D02*
G37*
G36*
X10742D02*
X10655D01*
Y12195D01*
X10742D01*
Y12252D01*
D02*
G37*
G36*
X10855D02*
X10768D01*
Y12195D01*
X10855D01*
Y12252D01*
D02*
G37*
G36*
X9855D02*
X9768D01*
Y12195D01*
X9855D01*
Y12252D01*
D02*
G37*
G36*
X8855D02*
X8768D01*
Y12195D01*
X8855D01*
Y12252D01*
D02*
G37*
G36*
X9742D02*
X9655D01*
Y12195D01*
X9742D01*
Y12252D01*
D02*
G37*
G36*
X5855D02*
X5768D01*
Y12195D01*
X5855D01*
Y12252D01*
D02*
G37*
G36*
X2742D02*
X2655D01*
Y12195D01*
X2742D01*
Y12252D01*
D02*
G37*
G36*
X2855D02*
X2768D01*
Y12195D01*
X2855D01*
Y12252D01*
D02*
G37*
G36*
X11345Y12335D02*
X11145D01*
Y12195D01*
X11345D01*
Y12226D01*
X11409D01*
X11655Y11980D01*
Y11865D01*
X11855D01*
Y12005D01*
X11740D01*
X11452Y12292D01*
X11440Y12301D01*
X11425Y12304D01*
X11345D01*
Y12335D01*
D02*
G37*
G36*
X9345D02*
X9145D01*
Y12195D01*
X9345D01*
Y12226D01*
X9409D01*
X9655Y11980D01*
Y11865D01*
X9855D01*
Y12005D01*
X9740D01*
X9452Y12292D01*
X9440Y12301D01*
X9425Y12304D01*
X9345D01*
Y12335D01*
D02*
G37*
G36*
X10345D02*
X10145D01*
Y12195D01*
X10345D01*
Y12226D01*
X10409D01*
X10655Y11980D01*
Y11865D01*
X10855D01*
Y12005D01*
X10740D01*
X10452Y12292D01*
X10440Y12301D01*
X10425Y12304D01*
X10345D01*
Y12335D01*
D02*
G37*
G36*
X4855Y12252D02*
X4768D01*
Y12195D01*
X4855D01*
Y12252D01*
D02*
G37*
G36*
X5742D02*
X5655D01*
Y12195D01*
X5742D01*
Y12252D01*
D02*
G37*
G36*
X4742D02*
X4655D01*
Y12195D01*
X4742D01*
Y12252D01*
D02*
G37*
G36*
X3742D02*
X3655D01*
Y12195D01*
X3742D01*
Y12252D01*
D02*
G37*
G36*
X3855D02*
X3768D01*
Y12195D01*
X3855D01*
Y12252D01*
D02*
G37*
G36*
X11742D02*
X11655D01*
Y12195D01*
X11742D01*
Y12252D01*
D02*
G37*
G36*
X3855Y12335D02*
X3768D01*
Y12278D01*
X3855D01*
Y12335D01*
D02*
G37*
G36*
X4855D02*
X4768D01*
Y12278D01*
X4855D01*
Y12335D01*
D02*
G37*
G36*
X11855D02*
X11768D01*
Y12278D01*
X11855D01*
Y12335D01*
D02*
G37*
G36*
X2855D02*
X2768D01*
Y12278D01*
X2855D01*
Y12335D01*
D02*
G37*
G36*
X10855D02*
X10768D01*
Y12278D01*
X10855D01*
Y12335D01*
D02*
G37*
G36*
X9855D02*
X9768D01*
Y12278D01*
X9855D01*
Y12335D01*
D02*
G37*
G36*
X8855D02*
X8768D01*
Y12278D01*
X8855D01*
Y12335D01*
D02*
G37*
G36*
X7855D02*
X7768D01*
Y12278D01*
X7855D01*
Y12335D01*
D02*
G37*
G36*
X5855D02*
X5768D01*
Y12278D01*
X5855D01*
Y12335D01*
D02*
G37*
G36*
X6855D02*
X6768D01*
Y12278D01*
X6855D01*
Y12335D01*
D02*
G37*
G36*
X9742D02*
X9655D01*
Y12278D01*
X9742D01*
Y12335D01*
D02*
G37*
G36*
X3742D02*
X3655D01*
Y12278D01*
X3742D01*
Y12335D01*
D02*
G37*
G36*
X4742D02*
X4655D01*
Y12278D01*
X4742D01*
Y12335D01*
D02*
G37*
G36*
X2742D02*
X2655D01*
Y12278D01*
X2742D01*
Y12335D01*
D02*
G37*
G36*
X11855Y12252D02*
X11768D01*
Y12195D01*
X11855D01*
Y12252D01*
D02*
G37*
G36*
X10742Y12335D02*
X10655D01*
Y12278D01*
X10742D01*
Y12335D01*
D02*
G37*
G36*
X7742D02*
X7655D01*
Y12278D01*
X7742D01*
Y12335D01*
D02*
G37*
G36*
X8742D02*
X8655D01*
Y12278D01*
X8742D01*
Y12335D01*
D02*
G37*
G36*
X6742D02*
X6655D01*
Y12278D01*
X6742D01*
Y12335D01*
D02*
G37*
G36*
X5742D02*
X5655D01*
Y12278D01*
X5742D01*
Y12335D01*
D02*
G37*
G36*
X11742D02*
X11655D01*
Y12278D01*
X11742D01*
Y12335D01*
D02*
G37*
G36*
X11855Y11335D02*
X11768D01*
Y11278D01*
X11855D01*
Y11335D01*
D02*
G37*
G36*
X11787Y11462D02*
X11700D01*
Y11375D01*
X11787D01*
Y11462D01*
D02*
G37*
G36*
X8855Y11335D02*
X8768D01*
Y11278D01*
X8855D01*
Y11335D01*
D02*
G37*
G36*
X7855D02*
X7768D01*
Y11278D01*
X7855D01*
Y11335D01*
D02*
G37*
G36*
X9855D02*
X9768D01*
Y11278D01*
X9855D01*
Y11335D01*
D02*
G37*
G36*
X4067Y11687D02*
X4015D01*
Y11630D01*
X4067D01*
Y11687D01*
D02*
G37*
G36*
X5067D02*
X5015D01*
Y11630D01*
X5067D01*
Y11687D01*
D02*
G37*
G36*
X3067D02*
X3015D01*
Y11630D01*
X3067D01*
Y11687D01*
D02*
G37*
G36*
X11900Y11462D02*
X11813D01*
Y11375D01*
X11900D01*
Y11462D01*
D02*
G37*
G36*
X2855Y12005D02*
X2655D01*
Y11865D01*
X2711D01*
Y11655D01*
X2705Y11653D01*
X2687Y11638D01*
X2672Y11620D01*
X2663Y11598D01*
X2660Y11575D01*
X2663Y11552D01*
X2672Y11530D01*
X2687Y11512D01*
X2705Y11497D01*
X2727Y11488D01*
X2750Y11485D01*
X2773Y11488D01*
X2795Y11497D01*
X2813Y11512D01*
X2828Y11530D01*
X2837Y11552D01*
X2840Y11575D01*
X2837Y11598D01*
X2828Y11620D01*
X2813Y11638D01*
X2795Y11653D01*
X2789Y11655D01*
Y11865D01*
X2855D01*
Y12005D01*
D02*
G37*
G36*
X6855Y11335D02*
X6768D01*
Y11278D01*
X6855D01*
Y11335D01*
D02*
G37*
G36*
X9742D02*
X9655D01*
Y11278D01*
X9742D01*
Y11335D01*
D02*
G37*
G36*
X11742D02*
X11655D01*
Y11278D01*
X11742D01*
Y11335D01*
D02*
G37*
G36*
X8742D02*
X8655D01*
Y11278D01*
X8742D01*
Y11335D01*
D02*
G37*
G36*
X6742D02*
X6655D01*
Y11278D01*
X6742D01*
Y11335D01*
D02*
G37*
G36*
X7742D02*
X7655D01*
Y11278D01*
X7742D01*
Y11335D01*
D02*
G37*
G36*
X4855D02*
X4768D01*
Y11278D01*
X4855D01*
Y11335D01*
D02*
G37*
G36*
X5855D02*
X5768D01*
Y11278D01*
X5855D01*
Y11335D01*
D02*
G37*
G36*
X3855D02*
X3768D01*
Y11278D01*
X3855D01*
Y11335D01*
D02*
G37*
G36*
X2855D02*
X2768D01*
Y11278D01*
X2855D01*
Y11335D01*
D02*
G37*
G36*
X10855D02*
X10768D01*
Y11278D01*
X10855D01*
Y11335D01*
D02*
G37*
G36*
X6067Y11687D02*
X6015D01*
Y11630D01*
X6067D01*
Y11687D01*
D02*
G37*
G36*
X12042Y11820D02*
X11990D01*
Y11763D01*
X12042D01*
Y11820D01*
D02*
G37*
G36*
X3345Y12335D02*
X3145D01*
Y12195D01*
X3345D01*
Y12226D01*
X3409D01*
X3655Y11980D01*
Y11865D01*
X3855D01*
Y12005D01*
X3740D01*
X3452Y12292D01*
X3440Y12301D01*
X3425Y12304D01*
X3345D01*
Y12335D01*
D02*
G37*
G36*
X11067Y11770D02*
X11015D01*
Y11713D01*
X11067D01*
Y11770D01*
D02*
G37*
G36*
X9067D02*
X9015D01*
Y11713D01*
X9067D01*
Y11770D01*
D02*
G37*
G36*
X10067D02*
X10015D01*
Y11713D01*
X10067D01*
Y11770D01*
D02*
G37*
G36*
X7345Y12335D02*
X7145D01*
Y12195D01*
X7345D01*
Y12226D01*
X7409D01*
X7655Y11980D01*
Y11865D01*
X7855D01*
Y12005D01*
X7740D01*
X7452Y12292D01*
X7440Y12301D01*
X7425Y12304D01*
X7345D01*
Y12335D01*
D02*
G37*
G36*
X8345D02*
X8145D01*
Y12195D01*
X8345D01*
Y12226D01*
X8409D01*
X8655Y11980D01*
Y11865D01*
X8855D01*
Y12005D01*
X8740D01*
X8452Y12292D01*
X8440Y12301D01*
X8425Y12304D01*
X8345D01*
Y12335D01*
D02*
G37*
G36*
X6345D02*
X6145D01*
Y12195D01*
X6345D01*
Y12226D01*
X6409D01*
X6655Y11980D01*
Y11865D01*
X6855D01*
Y12005D01*
X6740D01*
X6452Y12292D01*
X6440Y12301D01*
X6425Y12304D01*
X6345D01*
Y12335D01*
D02*
G37*
G36*
X4345D02*
X4145D01*
Y12195D01*
X4345D01*
Y12226D01*
X4409D01*
X4655Y11980D01*
Y11865D01*
X4855D01*
Y12005D01*
X4740D01*
X4452Y12292D01*
X4440Y12301D01*
X4425Y12304D01*
X4345D01*
Y12335D01*
D02*
G37*
G36*
X5345D02*
X5145D01*
Y12195D01*
X5345D01*
Y12226D01*
X5409D01*
X5655Y11980D01*
Y11865D01*
X5855D01*
Y12005D01*
X5740D01*
X5452Y12292D01*
X5440Y12301D01*
X5425Y12304D01*
X5345D01*
Y12335D01*
D02*
G37*
G36*
X8067Y11770D02*
X8015D01*
Y11713D01*
X8067D01*
Y11770D01*
D02*
G37*
G36*
X10067Y11687D02*
X10015D01*
Y11630D01*
X10067D01*
Y11687D01*
D02*
G37*
G36*
X11067D02*
X11015D01*
Y11630D01*
X11067D01*
Y11687D01*
D02*
G37*
G36*
X9067D02*
X9015D01*
Y11630D01*
X9067D01*
Y11687D01*
D02*
G37*
G36*
X7067Y11687D02*
X7015D01*
Y11630D01*
X7067D01*
Y11687D01*
D02*
G37*
G36*
X8067Y11687D02*
X8015D01*
Y11630D01*
X8067D01*
Y11687D01*
D02*
G37*
G36*
X6067Y11770D02*
X6015D01*
Y11713D01*
X6067D01*
Y11770D01*
D02*
G37*
G36*
X7067D02*
X7015D01*
Y11713D01*
X7067D01*
Y11770D01*
D02*
G37*
G36*
X5067D02*
X5015D01*
Y11713D01*
X5067D01*
Y11770D01*
D02*
G37*
G36*
X3067D02*
X3015D01*
Y11713D01*
X3067D01*
Y11770D01*
D02*
G37*
G36*
X4067D02*
X4015D01*
Y11713D01*
X4067D01*
Y11770D01*
D02*
G37*
G36*
X5855Y10252D02*
X5768D01*
Y10195D01*
X5855D01*
Y10252D01*
D02*
G37*
G36*
X5855Y8335D02*
X5768D01*
Y8278D01*
X5855D01*
Y8335D01*
D02*
G37*
G36*
X3855D02*
X3768D01*
Y8278D01*
X3855D01*
Y8335D01*
D02*
G37*
G36*
X4855D02*
X4768D01*
Y8278D01*
X4855D01*
Y8335D01*
D02*
G37*
G36*
X11742D02*
X11655D01*
Y8278D01*
X11742D01*
Y8335D01*
D02*
G37*
G36*
X2855D02*
X2768D01*
Y8278D01*
X2855D01*
Y8335D01*
D02*
G37*
G36*
X9855D02*
X9768D01*
Y8278D01*
X9855D01*
Y8335D01*
D02*
G37*
G36*
X10855D02*
X10768D01*
Y8278D01*
X10855D01*
Y8335D01*
D02*
G37*
G36*
X8855D02*
X8768D01*
Y8278D01*
X8855D01*
Y8335D01*
D02*
G37*
G36*
X6855D02*
X6768D01*
Y8278D01*
X6855D01*
Y8335D01*
D02*
G37*
G36*
X7855D02*
X7768D01*
Y8278D01*
X7855D01*
Y8335D01*
D02*
G37*
G36*
X9742D02*
X9655D01*
Y8278D01*
X9742D01*
Y8335D01*
D02*
G37*
G36*
X4742D02*
X4655D01*
Y8278D01*
X4742D01*
Y8335D01*
D02*
G37*
G36*
X5742D02*
X5655D01*
Y8278D01*
X5742D01*
Y8335D01*
D02*
G37*
G36*
X2742D02*
X2655D01*
Y8278D01*
X2742D01*
Y8335D01*
D02*
G37*
G36*
X11742Y8252D02*
X11655D01*
Y8195D01*
X11742D01*
Y8252D01*
D02*
G37*
G36*
X11855D02*
X11768D01*
Y8195D01*
X11855D01*
Y8252D01*
D02*
G37*
G36*
X8742Y8335D02*
X8655D01*
Y8278D01*
X8742D01*
Y8335D01*
D02*
G37*
G36*
X10742D02*
X10655D01*
Y8278D01*
X10742D01*
Y8335D01*
D02*
G37*
G36*
X7742D02*
X7655D01*
Y8278D01*
X7742D01*
Y8335D01*
D02*
G37*
G36*
X6742D02*
X6655D01*
Y8278D01*
X6742D01*
Y8335D01*
D02*
G37*
G36*
X3742D02*
X3655D01*
Y8278D01*
X3742D01*
Y8335D01*
D02*
G37*
G36*
X11855D02*
X11768D01*
Y8278D01*
X11855D01*
Y8335D01*
D02*
G37*
G36*
X6067Y8770D02*
X6015D01*
Y8713D01*
X6067D01*
Y8770D01*
D02*
G37*
G36*
X7067D02*
X7015D01*
Y8713D01*
X7067D01*
Y8770D01*
D02*
G37*
G36*
X5067D02*
X5015D01*
Y8713D01*
X5067D01*
Y8770D01*
D02*
G37*
G36*
X3067D02*
X3015D01*
Y8713D01*
X3067D01*
Y8770D01*
D02*
G37*
G36*
X4067D02*
X4015D01*
Y8713D01*
X4067D01*
Y8770D01*
D02*
G37*
G36*
X11067D02*
X11015D01*
Y8713D01*
X11067D01*
Y8770D01*
D02*
G37*
G36*
X12067D02*
X12015D01*
Y8713D01*
X12067D01*
Y8770D01*
D02*
G37*
G36*
X10067D02*
X10015D01*
Y8713D01*
X10067D01*
Y8770D01*
D02*
G37*
G36*
X8067D02*
X8015D01*
Y8713D01*
X8067D01*
Y8770D01*
D02*
G37*
G36*
X9067D02*
X9015D01*
Y8713D01*
X9067D01*
Y8770D01*
D02*
G37*
G36*
X12067Y8687D02*
X12015D01*
Y8630D01*
X12067D01*
Y8687D01*
D02*
G37*
G36*
X5067Y8687D02*
X5015D01*
Y8630D01*
X5067D01*
Y8687D01*
D02*
G37*
G36*
X6067D02*
X6015D01*
Y8630D01*
X6067D01*
Y8687D01*
D02*
G37*
G36*
X4067D02*
X4015D01*
Y8630D01*
X4067D01*
Y8687D01*
D02*
G37*
G36*
X2855Y9005D02*
X2655D01*
Y8865D01*
X2711D01*
Y8655D01*
X2705Y8653D01*
X2687Y8638D01*
X2672Y8620D01*
X2663Y8598D01*
X2660Y8575D01*
X2663Y8552D01*
X2672Y8530D01*
X2687Y8512D01*
X2705Y8497D01*
X2727Y8488D01*
X2750Y8485D01*
X2773Y8488D01*
X2795Y8497D01*
X2813Y8512D01*
X2828Y8530D01*
X2837Y8552D01*
X2840Y8575D01*
X2837Y8598D01*
X2828Y8620D01*
X2813Y8638D01*
X2795Y8653D01*
X2789Y8655D01*
Y8865D01*
X2855D01*
Y9005D01*
D02*
G37*
G36*
X3067Y8687D02*
X3015D01*
Y8630D01*
X3067D01*
Y8687D01*
D02*
G37*
G36*
X10067Y8687D02*
X10015D01*
Y8630D01*
X10067D01*
Y8687D01*
D02*
G37*
G36*
X11067D02*
X11015D01*
Y8630D01*
X11067D01*
Y8687D01*
D02*
G37*
G36*
X9067D02*
X9015D01*
Y8630D01*
X9067D01*
Y8687D01*
D02*
G37*
G36*
X7067Y8687D02*
X7015D01*
Y8630D01*
X7067D01*
Y8687D01*
D02*
G37*
G36*
X8067Y8687D02*
X8015D01*
Y8630D01*
X8067D01*
Y8687D01*
D02*
G37*
G36*
X9067Y7770D02*
X9015D01*
Y7713D01*
X9067D01*
Y7770D01*
D02*
G37*
G36*
X8067D02*
X8015D01*
Y7713D01*
X8067D01*
Y7770D01*
D02*
G37*
G36*
X12067D02*
X12015D01*
Y7713D01*
X12067D01*
Y7770D01*
D02*
G37*
G36*
X10067D02*
X10015D01*
Y7713D01*
X10067D01*
Y7770D01*
D02*
G37*
G36*
X11067D02*
X11015D01*
Y7713D01*
X11067D01*
Y7770D01*
D02*
G37*
G36*
X6345Y8335D02*
X6145D01*
Y8195D01*
X6345D01*
Y8226D01*
X6409D01*
X6655Y7980D01*
Y7865D01*
X6855D01*
Y8005D01*
X6740D01*
X6452Y8292D01*
X6440Y8301D01*
X6425Y8304D01*
X6345D01*
Y8335D01*
D02*
G37*
G36*
X7345D02*
X7145D01*
Y8195D01*
X7345D01*
Y8226D01*
X7409D01*
X7655Y7980D01*
Y7865D01*
X7855D01*
Y8005D01*
X7740D01*
X7452Y8292D01*
X7440Y8301D01*
X7425Y8304D01*
X7345D01*
Y8335D01*
D02*
G37*
G36*
X5345D02*
X5145D01*
Y8195D01*
X5345D01*
Y8226D01*
X5409D01*
X5655Y7980D01*
Y7865D01*
X5855D01*
Y8005D01*
X5740D01*
X5452Y8292D01*
X5440Y8301D01*
X5425Y8304D01*
X5345D01*
Y8335D01*
D02*
G37*
G36*
X3345D02*
X3145D01*
Y8195D01*
X3345D01*
Y8226D01*
X3409D01*
X3655Y7980D01*
Y7865D01*
X3855D01*
Y8005D01*
X3740D01*
X3452Y8292D01*
X3440Y8301D01*
X3425Y8304D01*
X3345D01*
Y8335D01*
D02*
G37*
G36*
X4345D02*
X4145D01*
Y8195D01*
X4345D01*
Y8226D01*
X4409D01*
X4655Y7980D01*
Y7865D01*
X4855D01*
Y8005D01*
X4740D01*
X4452Y8292D01*
X4440Y8301D01*
X4425Y8304D01*
X4345D01*
Y8335D01*
D02*
G37*
G36*
X7067Y7770D02*
X7015D01*
Y7713D01*
X7067D01*
Y7770D01*
D02*
G37*
G36*
X10067Y7687D02*
X10015D01*
Y7630D01*
X10067D01*
Y7687D01*
D02*
G37*
G36*
X11067D02*
X11015D01*
Y7630D01*
X11067D01*
Y7687D01*
D02*
G37*
G36*
X9067D02*
X9015D01*
Y7630D01*
X9067D01*
Y7687D01*
D02*
G37*
G36*
X7067Y7687D02*
X7015D01*
Y7630D01*
X7067D01*
Y7687D01*
D02*
G37*
G36*
X8067Y7687D02*
X8015D01*
Y7630D01*
X8067D01*
Y7687D01*
D02*
G37*
G36*
X5067Y7770D02*
X5015D01*
Y7713D01*
X5067D01*
Y7770D01*
D02*
G37*
G36*
X6067D02*
X6015D01*
Y7713D01*
X6067D01*
Y7770D01*
D02*
G37*
G36*
X4067D02*
X4015D01*
Y7713D01*
X4067D01*
Y7770D01*
D02*
G37*
G36*
X12067Y7687D02*
X12015D01*
Y7630D01*
X12067D01*
Y7687D01*
D02*
G37*
G36*
X3067Y7770D02*
X3015D01*
Y7713D01*
X3067D01*
Y7770D01*
D02*
G37*
G36*
X8345Y8335D02*
X8145D01*
Y8195D01*
X8345D01*
Y8226D01*
X8409D01*
X8655Y7980D01*
Y7865D01*
X8855D01*
Y8005D01*
X8740D01*
X8452Y8292D01*
X8440Y8301D01*
X8425Y8304D01*
X8345D01*
Y8335D01*
D02*
G37*
G36*
X7855Y8252D02*
X7768D01*
Y8195D01*
X7855D01*
Y8252D01*
D02*
G37*
G36*
X8742D02*
X8655D01*
Y8195D01*
X8742D01*
Y8252D01*
D02*
G37*
G36*
X7742D02*
X7655D01*
Y8195D01*
X7742D01*
Y8252D01*
D02*
G37*
G36*
X6742D02*
X6655D01*
Y8195D01*
X6742D01*
Y8252D01*
D02*
G37*
G36*
X6855D02*
X6768D01*
Y8195D01*
X6855D01*
Y8252D01*
D02*
G37*
G36*
X10742D02*
X10655D01*
Y8195D01*
X10742D01*
Y8252D01*
D02*
G37*
G36*
X10855D02*
X10768D01*
Y8195D01*
X10855D01*
Y8252D01*
D02*
G37*
G36*
X9855D02*
X9768D01*
Y8195D01*
X9855D01*
Y8252D01*
D02*
G37*
G36*
X8855D02*
X8768D01*
Y8195D01*
X8855D01*
Y8252D01*
D02*
G37*
G36*
X9742D02*
X9655D01*
Y8195D01*
X9742D01*
Y8252D01*
D02*
G37*
G36*
X5855D02*
X5768D01*
Y8195D01*
X5855D01*
Y8252D01*
D02*
G37*
G36*
X2742D02*
X2655D01*
Y8195D01*
X2742D01*
Y8252D01*
D02*
G37*
G36*
X2855D02*
X2768D01*
Y8195D01*
X2855D01*
Y8252D01*
D02*
G37*
G36*
X11345Y8335D02*
X11145D01*
Y8195D01*
X11345D01*
Y8226D01*
X11409D01*
X11655Y7980D01*
Y7865D01*
X11855D01*
Y8005D01*
X11740D01*
X11452Y8292D01*
X11440Y8301D01*
X11425Y8304D01*
X11345D01*
Y8335D01*
D02*
G37*
G36*
X9345D02*
X9145D01*
Y8195D01*
X9345D01*
Y8226D01*
X9409D01*
X9655Y7980D01*
Y7865D01*
X9855D01*
Y8005D01*
X9740D01*
X9452Y8292D01*
X9440Y8301D01*
X9425Y8304D01*
X9345D01*
Y8335D01*
D02*
G37*
G36*
X10345D02*
X10145D01*
Y8195D01*
X10345D01*
Y8226D01*
X10409D01*
X10655Y7980D01*
Y7865D01*
X10855D01*
Y8005D01*
X10740D01*
X10452Y8292D01*
X10440Y8301D01*
X10425Y8304D01*
X10345D01*
Y8335D01*
D02*
G37*
G36*
X4855Y8252D02*
X4768D01*
Y8195D01*
X4855D01*
Y8252D01*
D02*
G37*
G36*
X5742D02*
X5655D01*
Y8195D01*
X5742D01*
Y8252D01*
D02*
G37*
G36*
X4742D02*
X4655D01*
Y8195D01*
X4742D01*
Y8252D01*
D02*
G37*
G36*
X3742D02*
X3655D01*
Y8195D01*
X3742D01*
Y8252D01*
D02*
G37*
G36*
X3855D02*
X3768D01*
Y8195D01*
X3855D01*
Y8252D01*
D02*
G37*
G36*
X10067Y9687D02*
X10015D01*
Y9630D01*
X10067D01*
Y9687D01*
D02*
G37*
G36*
X11067D02*
X11015D01*
Y9630D01*
X11067D01*
Y9687D01*
D02*
G37*
G36*
X9067D02*
X9015D01*
Y9630D01*
X9067D01*
Y9687D01*
D02*
G37*
G36*
X7067Y9687D02*
X7015D01*
Y9630D01*
X7067D01*
Y9687D01*
D02*
G37*
G36*
X8067Y9687D02*
X8015D01*
Y9630D01*
X8067D01*
Y9687D01*
D02*
G37*
G36*
X5067Y9770D02*
X5015D01*
Y9713D01*
X5067D01*
Y9770D01*
D02*
G37*
G36*
X6067D02*
X6015D01*
Y9713D01*
X6067D01*
Y9770D01*
D02*
G37*
G36*
X4067D02*
X4015D01*
Y9713D01*
X4067D01*
Y9770D01*
D02*
G37*
G36*
X12067Y9687D02*
X12015D01*
Y9630D01*
X12067D01*
Y9687D01*
D02*
G37*
G36*
X3067Y9770D02*
X3015D01*
Y9713D01*
X3067D01*
Y9770D01*
D02*
G37*
G36*
X6067Y9687D02*
X6015D01*
Y9630D01*
X6067D01*
Y9687D01*
D02*
G37*
G36*
X9855Y9335D02*
X9768D01*
Y9278D01*
X9855D01*
Y9335D01*
D02*
G37*
G36*
X3855D02*
X3768D01*
Y9278D01*
X3855D01*
Y9335D01*
D02*
G37*
G36*
X8855D02*
X8768D01*
Y9278D01*
X8855D01*
Y9335D01*
D02*
G37*
G36*
X6855D02*
X6768D01*
Y9278D01*
X6855D01*
Y9335D01*
D02*
G37*
G36*
X7855D02*
X7768D01*
Y9278D01*
X7855D01*
Y9335D01*
D02*
G37*
G36*
X4067Y9687D02*
X4015D01*
Y9630D01*
X4067D01*
Y9687D01*
D02*
G37*
G36*
X5067D02*
X5015D01*
Y9630D01*
X5067D01*
Y9687D01*
D02*
G37*
G36*
X3067D02*
X3015D01*
Y9630D01*
X3067D01*
Y9687D01*
D02*
G37*
G36*
X11855Y9335D02*
X11768D01*
Y9278D01*
X11855D01*
Y9335D01*
D02*
G37*
G36*
X2855Y10005D02*
X2655D01*
Y9865D01*
X2711D01*
Y9655D01*
X2705Y9653D01*
X2687Y9638D01*
X2672Y9620D01*
X2663Y9598D01*
X2660Y9575D01*
X2663Y9552D01*
X2672Y9530D01*
X2687Y9512D01*
X2705Y9497D01*
X2727Y9488D01*
X2750Y9485D01*
X2773Y9488D01*
X2795Y9497D01*
X2813Y9512D01*
X2828Y9530D01*
X2837Y9552D01*
X2840Y9575D01*
X2837Y9598D01*
X2828Y9620D01*
X2813Y9638D01*
X2795Y9653D01*
X2789Y9655D01*
Y9865D01*
X2855D01*
Y10005D01*
D02*
G37*
G36*
X7067Y9770D02*
X7015D01*
Y9713D01*
X7067D01*
Y9770D01*
D02*
G37*
G36*
X2742Y10252D02*
X2655D01*
Y10195D01*
X2742D01*
Y10252D01*
D02*
G37*
G36*
X2855D02*
X2768D01*
Y10195D01*
X2855D01*
Y10252D01*
D02*
G37*
G36*
X11345Y10335D02*
X11145D01*
Y10195D01*
X11345D01*
Y10226D01*
X11409D01*
X11655Y9980D01*
Y9865D01*
X11855D01*
Y10005D01*
X11740D01*
X11452Y10292D01*
X11440Y10301D01*
X11425Y10304D01*
X11345D01*
Y10335D01*
D02*
G37*
G36*
X9345D02*
X9145D01*
Y10195D01*
X9345D01*
Y10226D01*
X9409D01*
X9655Y9980D01*
Y9865D01*
X9855D01*
Y10005D01*
X9740D01*
X9452Y10292D01*
X9440Y10301D01*
X9425Y10304D01*
X9345D01*
Y10335D01*
D02*
G37*
G36*
X10345D02*
X10145D01*
Y10195D01*
X10345D01*
Y10226D01*
X10409D01*
X10655Y9980D01*
Y9865D01*
X10855D01*
Y10005D01*
X10740D01*
X10452Y10292D01*
X10440Y10301D01*
X10425Y10304D01*
X10345D01*
Y10335D01*
D02*
G37*
G36*
X4855Y10252D02*
X4768D01*
Y10195D01*
X4855D01*
Y10252D01*
D02*
G37*
G36*
X5742D02*
X5655D01*
Y10195D01*
X5742D01*
Y10252D01*
D02*
G37*
G36*
X4742D02*
X4655D01*
Y10195D01*
X4742D01*
Y10252D01*
D02*
G37*
G36*
X3742D02*
X3655D01*
Y10195D01*
X3742D01*
Y10252D01*
D02*
G37*
G36*
X3855D02*
X3768D01*
Y10195D01*
X3855D01*
Y10252D01*
D02*
G37*
G36*
X8345Y10335D02*
X8145D01*
Y10195D01*
X8345D01*
Y10226D01*
X8409D01*
X8655Y9980D01*
Y9865D01*
X8855D01*
Y10005D01*
X8740D01*
X8452Y10292D01*
X8440Y10301D01*
X8425Y10304D01*
X8345D01*
Y10335D01*
D02*
G37*
G36*
X11067Y9770D02*
X11015D01*
Y9713D01*
X11067D01*
Y9770D01*
D02*
G37*
G36*
X12067D02*
X12015D01*
Y9713D01*
X12067D01*
Y9770D01*
D02*
G37*
G36*
X10067D02*
X10015D01*
Y9713D01*
X10067D01*
Y9770D01*
D02*
G37*
G36*
X8067D02*
X8015D01*
Y9713D01*
X8067D01*
Y9770D01*
D02*
G37*
G36*
X9067D02*
X9015D01*
Y9713D01*
X9067D01*
Y9770D01*
D02*
G37*
G36*
X6345Y10335D02*
X6145D01*
Y10195D01*
X6345D01*
Y10226D01*
X6409D01*
X6655Y9980D01*
Y9865D01*
X6855D01*
Y10005D01*
X6740D01*
X6452Y10292D01*
X6440Y10301D01*
X6425Y10304D01*
X6345D01*
Y10335D01*
D02*
G37*
G36*
X7345D02*
X7145D01*
Y10195D01*
X7345D01*
Y10226D01*
X7409D01*
X7655Y9980D01*
Y9865D01*
X7855D01*
Y10005D01*
X7740D01*
X7452Y10292D01*
X7440Y10301D01*
X7425Y10304D01*
X7345D01*
Y10335D01*
D02*
G37*
G36*
X5345D02*
X5145D01*
Y10195D01*
X5345D01*
Y10226D01*
X5409D01*
X5655Y9980D01*
Y9865D01*
X5855D01*
Y10005D01*
X5740D01*
X5452Y10292D01*
X5440Y10301D01*
X5425Y10304D01*
X5345D01*
Y10335D01*
D02*
G37*
G36*
X3345D02*
X3145D01*
Y10195D01*
X3345D01*
Y10226D01*
X3409D01*
X3655Y9980D01*
Y9865D01*
X3855D01*
Y10005D01*
X3740D01*
X3452Y10292D01*
X3440Y10301D01*
X3425Y10304D01*
X3345D01*
Y10335D01*
D02*
G37*
G36*
X4345D02*
X4145D01*
Y10195D01*
X4345D01*
Y10226D01*
X4409D01*
X4655Y9980D01*
Y9865D01*
X4855D01*
Y10005D01*
X4740D01*
X4452Y10292D01*
X4440Y10301D01*
X4425Y10304D01*
X4345D01*
Y10335D01*
D02*
G37*
G36*
X4855Y9252D02*
X4768D01*
Y9195D01*
X4855D01*
Y9252D01*
D02*
G37*
G36*
X5742D02*
X5655D01*
Y9195D01*
X5742D01*
Y9252D01*
D02*
G37*
G36*
X4742D02*
X4655D01*
Y9195D01*
X4742D01*
Y9252D01*
D02*
G37*
G36*
X3742D02*
X3655D01*
Y9195D01*
X3742D01*
Y9252D01*
D02*
G37*
G36*
X3855D02*
X3768D01*
Y9195D01*
X3855D01*
Y9252D01*
D02*
G37*
G36*
X7742D02*
X7655D01*
Y9195D01*
X7742D01*
Y9252D01*
D02*
G37*
G36*
X7855D02*
X7768D01*
Y9195D01*
X7855D01*
Y9252D01*
D02*
G37*
G36*
X6855D02*
X6768D01*
Y9195D01*
X6855D01*
Y9252D01*
D02*
G37*
G36*
X5855D02*
X5768D01*
Y9195D01*
X5855D01*
Y9252D01*
D02*
G37*
G36*
X6742D02*
X6655D01*
Y9195D01*
X6742D01*
Y9252D01*
D02*
G37*
G36*
X2855D02*
X2768D01*
Y9195D01*
X2855D01*
Y9252D01*
D02*
G37*
G36*
X6345Y9335D02*
X6145D01*
Y9195D01*
X6345D01*
Y9226D01*
X6409D01*
X6655Y8980D01*
Y8865D01*
X6855D01*
Y9005D01*
X6740D01*
X6452Y9292D01*
X6440Y9301D01*
X6425Y9304D01*
X6345D01*
Y9335D01*
D02*
G37*
G36*
X7345D02*
X7145D01*
Y9195D01*
X7345D01*
Y9226D01*
X7409D01*
X7655Y8980D01*
Y8865D01*
X7855D01*
Y9005D01*
X7740D01*
X7452Y9292D01*
X7440Y9301D01*
X7425Y9304D01*
X7345D01*
Y9335D01*
D02*
G37*
G36*
X5345D02*
X5145D01*
Y9195D01*
X5345D01*
Y9226D01*
X5409D01*
X5655Y8980D01*
Y8865D01*
X5855D01*
Y9005D01*
X5740D01*
X5452Y9292D01*
X5440Y9301D01*
X5425Y9304D01*
X5345D01*
Y9335D01*
D02*
G37*
G36*
X3345D02*
X3145D01*
Y9195D01*
X3345D01*
Y9226D01*
X3409D01*
X3655Y8980D01*
Y8865D01*
X3855D01*
Y9005D01*
X3740D01*
X3452Y9292D01*
X3440Y9301D01*
X3425Y9304D01*
X3345D01*
Y9335D01*
D02*
G37*
G36*
X4345D02*
X4145D01*
Y9195D01*
X4345D01*
Y9226D01*
X4409D01*
X4655Y8980D01*
Y8865D01*
X4855D01*
Y9005D01*
X4740D01*
X4452Y9292D01*
X4440Y9301D01*
X4425Y9304D01*
X4345D01*
Y9335D01*
D02*
G37*
G36*
X11345D02*
X11145D01*
Y9195D01*
X11345D01*
Y9226D01*
X11409D01*
X11655Y8980D01*
Y8865D01*
X11855D01*
Y9005D01*
X11740D01*
X11452Y9292D01*
X11440Y9301D01*
X11425Y9304D01*
X11345D01*
Y9335D01*
D02*
G37*
G36*
X2742Y9252D02*
X2655D01*
Y9195D01*
X2742D01*
Y9252D01*
D02*
G37*
G36*
X10345Y9335D02*
X10145D01*
Y9195D01*
X10345D01*
Y9226D01*
X10409D01*
X10655Y8980D01*
Y8865D01*
X10855D01*
Y9005D01*
X10740D01*
X10452Y9292D01*
X10440Y9301D01*
X10425Y9304D01*
X10345D01*
Y9335D01*
D02*
G37*
G36*
X8345D02*
X8145D01*
Y9195D01*
X8345D01*
Y9226D01*
X8409D01*
X8655Y8980D01*
Y8865D01*
X8855D01*
Y9005D01*
X8740D01*
X8452Y9292D01*
X8440Y9301D01*
X8425Y9304D01*
X8345D01*
Y9335D01*
D02*
G37*
G36*
X9345D02*
X9145D01*
Y9195D01*
X9345D01*
Y9226D01*
X9409D01*
X9655Y8980D01*
Y8865D01*
X9855D01*
Y9005D01*
X9740D01*
X9452Y9292D01*
X9440Y9301D01*
X9425Y9304D01*
X9345D01*
Y9335D01*
D02*
G37*
G36*
X8742Y9252D02*
X8655D01*
Y9195D01*
X8742D01*
Y9252D01*
D02*
G37*
G36*
X9742Y9335D02*
X9655D01*
Y9278D01*
X9742D01*
Y9335D01*
D02*
G37*
G36*
X11742D02*
X11655D01*
Y9278D01*
X11742D01*
Y9335D01*
D02*
G37*
G36*
X7742D02*
X7655D01*
Y9278D01*
X7742D01*
Y9335D01*
D02*
G37*
G36*
X6742D02*
X6655D01*
Y9278D01*
X6742D01*
Y9335D01*
D02*
G37*
G36*
X8742D02*
X8655D01*
Y9278D01*
X8742D01*
Y9335D01*
D02*
G37*
G36*
X4855D02*
X4768D01*
Y9278D01*
X4855D01*
Y9335D01*
D02*
G37*
G36*
X5855D02*
X5768D01*
Y9278D01*
X5855D01*
Y9335D01*
D02*
G37*
G36*
X10855D02*
X10768D01*
Y9278D01*
X10855D01*
Y9335D01*
D02*
G37*
G36*
X3742D02*
X3655D01*
Y9278D01*
X3742D01*
Y9335D01*
D02*
G37*
G36*
X2855D02*
X2768D01*
Y9278D01*
X2855D01*
Y9335D01*
D02*
G37*
G36*
X5742D02*
X5655D01*
Y9278D01*
X5742D01*
Y9335D01*
D02*
G37*
G36*
X10742Y9252D02*
X10655D01*
Y9195D01*
X10742D01*
Y9252D01*
D02*
G37*
G36*
X10855D02*
X10768D01*
Y9195D01*
X10855D01*
Y9252D01*
D02*
G37*
G36*
X9855D02*
X9768D01*
Y9195D01*
X9855D01*
Y9252D01*
D02*
G37*
G36*
X8855D02*
X8768D01*
Y9195D01*
X8855D01*
Y9252D01*
D02*
G37*
G36*
X9742D02*
X9655D01*
Y9195D01*
X9742D01*
Y9252D01*
D02*
G37*
G36*
X2742Y9335D02*
X2655D01*
Y9278D01*
X2742D01*
Y9335D01*
D02*
G37*
G36*
X4742D02*
X4655D01*
Y9278D01*
X4742D01*
Y9335D01*
D02*
G37*
G36*
X10742D02*
X10655D01*
Y9278D01*
X10742D01*
Y9335D01*
D02*
G37*
G36*
X11742Y9252D02*
X11655D01*
Y9195D01*
X11742D01*
Y9252D01*
D02*
G37*
G36*
X11855D02*
X11768D01*
Y9195D01*
X11855D01*
Y9252D01*
D02*
G37*
%LPD*%
D10*
X12195Y11750D02*
D03*
X12055D02*
D03*
X11220Y11700D02*
D03*
X11080D02*
D03*
X10220D02*
D03*
X10080D02*
D03*
X9220D02*
D03*
X9080D02*
D03*
X8220D02*
D03*
X8080D02*
D03*
X7220D02*
D03*
X7080D02*
D03*
X6220D02*
D03*
X6080D02*
D03*
X5220D02*
D03*
X5080D02*
D03*
X4220D02*
D03*
X4080D02*
D03*
X3220D02*
D03*
X3080D02*
D03*
X12220Y10700D02*
D03*
X12080D02*
D03*
X11220D02*
D03*
X11080D02*
D03*
X10220D02*
D03*
X10080D02*
D03*
X9220D02*
D03*
X9080D02*
D03*
X8220D02*
D03*
X8080D02*
D03*
X6220D02*
D03*
X6080D02*
D03*
X5220D02*
D03*
X5080D02*
D03*
X4220D02*
D03*
X4080D02*
D03*
X3220D02*
D03*
X3080D02*
D03*
X12220Y9700D02*
D03*
X12080D02*
D03*
X11220D02*
D03*
X11080D02*
D03*
X10220D02*
D03*
X10080D02*
D03*
X9220D02*
D03*
X9080D02*
D03*
X8220D02*
D03*
X8080D02*
D03*
X7220D02*
D03*
X7080D02*
D03*
X6220D02*
D03*
X6080D02*
D03*
X5220D02*
D03*
X5080D02*
D03*
X4220D02*
D03*
X4080D02*
D03*
X3220D02*
D03*
X3080D02*
D03*
X12220Y8700D02*
D03*
X12080D02*
D03*
X11220D02*
D03*
X11080D02*
D03*
X10220D02*
D03*
X10080D02*
D03*
X9220D02*
D03*
X9080D02*
D03*
X8220D02*
D03*
X8080D02*
D03*
X7220D02*
D03*
X7080D02*
D03*
X6220D02*
D03*
X6080D02*
D03*
X5220D02*
D03*
X5080D02*
D03*
X4220D02*
D03*
X4080D02*
D03*
X3220D02*
D03*
X3080D02*
D03*
X12220Y7700D02*
D03*
X12080D02*
D03*
X11220D02*
D03*
X11080D02*
D03*
X10220D02*
D03*
X10080D02*
D03*
X9220D02*
D03*
X9080D02*
D03*
X8220D02*
D03*
X8080D02*
D03*
X7220D02*
D03*
X7080D02*
D03*
X6220D02*
D03*
X6080D02*
D03*
X5220D02*
D03*
X5080D02*
D03*
X4220D02*
D03*
X4080D02*
D03*
X3220D02*
D03*
X3080D02*
D03*
X12220Y6700D02*
D03*
X12080D02*
D03*
X11220D02*
D03*
X11080D02*
D03*
X10220D02*
D03*
X10080D02*
D03*
X9220D02*
D03*
X9080D02*
D03*
X8220D02*
D03*
X8080D02*
D03*
X7220D02*
D03*
X7080D02*
D03*
X6220D02*
D03*
X6080D02*
D03*
X5220D02*
D03*
X5080D02*
D03*
X4220D02*
D03*
X4080D02*
D03*
X3220D02*
D03*
X3080D02*
D03*
X12220Y5700D02*
D03*
X12080D02*
D03*
X11220D02*
D03*
X11080D02*
D03*
X10220D02*
D03*
X10080D02*
D03*
X9220D02*
D03*
X9080D02*
D03*
X8220D02*
D03*
X8080D02*
D03*
X7220D02*
D03*
X7080D02*
D03*
X6220D02*
D03*
X6080D02*
D03*
X5220D02*
D03*
X5080D02*
D03*
X4220D02*
D03*
X4080D02*
D03*
X3220D02*
D03*
X3080D02*
D03*
X12220Y4700D02*
D03*
X12080D02*
D03*
X11220D02*
D03*
X11080D02*
D03*
X10220D02*
D03*
X10080D02*
D03*
X9220D02*
D03*
X9080D02*
D03*
X8220D02*
D03*
X8080D02*
D03*
X7220D02*
D03*
X7080D02*
D03*
X6220D02*
D03*
X6080D02*
D03*
X5220D02*
D03*
X5080D02*
D03*
X4220D02*
D03*
X4080D02*
D03*
X3220D02*
D03*
X3080D02*
D03*
X12220Y3700D02*
D03*
X12080D02*
D03*
X11220D02*
D03*
X11080D02*
D03*
X10220D02*
D03*
X10080D02*
D03*
X9220D02*
D03*
X9080D02*
D03*
X8220D02*
D03*
X8080D02*
D03*
X7220D02*
D03*
X7080D02*
D03*
X6220D02*
D03*
X6080D02*
D03*
X5220D02*
D03*
X5080D02*
D03*
X4220D02*
D03*
X4080D02*
D03*
X3220D02*
D03*
X3080D02*
D03*
X12220Y2700D02*
D03*
X12080D02*
D03*
X11220D02*
D03*
X11080D02*
D03*
X10220D02*
D03*
X10080D02*
D03*
X9220D02*
D03*
X9080D02*
D03*
X8220D02*
D03*
X8080D02*
D03*
X7220D02*
D03*
X7080D02*
D03*
X6220D02*
D03*
X6080D02*
D03*
X5220D02*
D03*
X5080D02*
D03*
X4220D02*
D03*
X4080D02*
D03*
X3220D02*
D03*
X3080D02*
D03*
X7220Y10700D02*
D03*
X7080D02*
D03*
D11*
X3755Y3265D02*
D03*
Y2935D02*
D03*
X4245Y3265D02*
D03*
Y2935D02*
D03*
X2755Y12265D02*
D03*
Y11935D02*
D03*
X3245Y12265D02*
D03*
Y11935D02*
D03*
X11755Y12265D02*
D03*
Y11935D02*
D03*
X12245Y12265D02*
D03*
Y11935D02*
D03*
X10755Y12265D02*
D03*
Y11935D02*
D03*
X11245Y12265D02*
D03*
Y11935D02*
D03*
X9755Y12265D02*
D03*
Y11935D02*
D03*
X10245Y12265D02*
D03*
Y11935D02*
D03*
X8755Y12265D02*
D03*
Y11935D02*
D03*
X9245Y12265D02*
D03*
Y11935D02*
D03*
X7755Y12265D02*
D03*
Y11935D02*
D03*
X8245Y12265D02*
D03*
Y11935D02*
D03*
X6755Y12265D02*
D03*
Y11935D02*
D03*
X7245Y12265D02*
D03*
Y11935D02*
D03*
X5755Y12265D02*
D03*
Y11935D02*
D03*
X6245Y12265D02*
D03*
Y11935D02*
D03*
X4755Y12265D02*
D03*
Y11935D02*
D03*
X5245Y12265D02*
D03*
Y11935D02*
D03*
X3755Y12265D02*
D03*
Y11935D02*
D03*
X4245Y12265D02*
D03*
Y11935D02*
D03*
X2755Y11265D02*
D03*
Y10935D02*
D03*
X3245Y11265D02*
D03*
Y10935D02*
D03*
X11755Y11265D02*
D03*
Y10935D02*
D03*
X12245Y11265D02*
D03*
Y10935D02*
D03*
X10755Y11265D02*
D03*
Y10935D02*
D03*
X11245Y11265D02*
D03*
Y10935D02*
D03*
X9755Y11265D02*
D03*
Y10935D02*
D03*
X10245Y11265D02*
D03*
Y10935D02*
D03*
X8755Y11265D02*
D03*
Y10935D02*
D03*
X9245Y11265D02*
D03*
Y10935D02*
D03*
X7755Y11265D02*
D03*
Y10935D02*
D03*
X8245Y11265D02*
D03*
Y10935D02*
D03*
X6755Y11265D02*
D03*
Y10935D02*
D03*
X7245Y11265D02*
D03*
Y10935D02*
D03*
X5755Y11265D02*
D03*
Y10935D02*
D03*
X6245Y11265D02*
D03*
Y10935D02*
D03*
X4755Y11265D02*
D03*
Y10935D02*
D03*
X5245Y11265D02*
D03*
Y10935D02*
D03*
X3755Y11265D02*
D03*
Y10935D02*
D03*
X4245Y11265D02*
D03*
Y10935D02*
D03*
X2755Y10265D02*
D03*
Y9935D02*
D03*
X3245Y10265D02*
D03*
Y9935D02*
D03*
X11755Y10265D02*
D03*
Y9935D02*
D03*
X12245Y10265D02*
D03*
Y9935D02*
D03*
X10755Y10265D02*
D03*
Y9935D02*
D03*
X11245Y10265D02*
D03*
Y9935D02*
D03*
X9755Y10265D02*
D03*
Y9935D02*
D03*
X10245Y10265D02*
D03*
Y9935D02*
D03*
X8755Y10265D02*
D03*
Y9935D02*
D03*
X9245Y10265D02*
D03*
Y9935D02*
D03*
X7755Y10265D02*
D03*
Y9935D02*
D03*
X8245Y10265D02*
D03*
Y9935D02*
D03*
X6755Y10265D02*
D03*
Y9935D02*
D03*
X7245Y10265D02*
D03*
Y9935D02*
D03*
X5755Y10265D02*
D03*
Y9935D02*
D03*
X6245Y10265D02*
D03*
Y9935D02*
D03*
X4755Y10265D02*
D03*
Y9935D02*
D03*
X5245Y10265D02*
D03*
Y9935D02*
D03*
X3755Y10265D02*
D03*
Y9935D02*
D03*
X4245Y10265D02*
D03*
Y9935D02*
D03*
X2755Y9265D02*
D03*
Y8935D02*
D03*
X3245Y9265D02*
D03*
Y8935D02*
D03*
X11755Y9265D02*
D03*
Y8935D02*
D03*
X12245Y9265D02*
D03*
Y8935D02*
D03*
X10755Y9265D02*
D03*
Y8935D02*
D03*
X11245Y9265D02*
D03*
Y8935D02*
D03*
X9755Y9265D02*
D03*
Y8935D02*
D03*
X10245Y9265D02*
D03*
Y8935D02*
D03*
X8755Y9265D02*
D03*
Y8935D02*
D03*
X9245Y9265D02*
D03*
Y8935D02*
D03*
X7755Y9265D02*
D03*
Y8935D02*
D03*
X8245Y9265D02*
D03*
Y8935D02*
D03*
X6755Y9265D02*
D03*
Y8935D02*
D03*
X7245Y9265D02*
D03*
Y8935D02*
D03*
X5755Y9265D02*
D03*
Y8935D02*
D03*
X6245Y9265D02*
D03*
Y8935D02*
D03*
X4755Y9265D02*
D03*
Y8935D02*
D03*
X5245Y9265D02*
D03*
Y8935D02*
D03*
X3755Y9265D02*
D03*
Y8935D02*
D03*
X4245Y9265D02*
D03*
Y8935D02*
D03*
X2755Y8265D02*
D03*
Y7935D02*
D03*
X3245Y8265D02*
D03*
Y7935D02*
D03*
X11755Y8265D02*
D03*
Y7935D02*
D03*
X12245Y8265D02*
D03*
Y7935D02*
D03*
X10755Y8265D02*
D03*
Y7935D02*
D03*
X11245Y8265D02*
D03*
Y7935D02*
D03*
X9755Y8265D02*
D03*
Y7935D02*
D03*
X10245Y8265D02*
D03*
Y7935D02*
D03*
X8755Y8265D02*
D03*
Y7935D02*
D03*
X9245Y8265D02*
D03*
Y7935D02*
D03*
X7755Y8265D02*
D03*
Y7935D02*
D03*
X8245Y8265D02*
D03*
Y7935D02*
D03*
X6755Y8265D02*
D03*
Y7935D02*
D03*
X7245Y8265D02*
D03*
Y7935D02*
D03*
X5755Y8265D02*
D03*
Y7935D02*
D03*
X6245Y8265D02*
D03*
Y7935D02*
D03*
X4755Y8265D02*
D03*
Y7935D02*
D03*
X5245Y8265D02*
D03*
Y7935D02*
D03*
X3755Y8265D02*
D03*
Y7935D02*
D03*
X4245Y8265D02*
D03*
Y7935D02*
D03*
X2755Y7265D02*
D03*
Y6935D02*
D03*
X3245Y7265D02*
D03*
Y6935D02*
D03*
X11755Y7265D02*
D03*
Y6935D02*
D03*
X12245Y7265D02*
D03*
Y6935D02*
D03*
X10755Y7265D02*
D03*
Y6935D02*
D03*
X11245Y7265D02*
D03*
Y6935D02*
D03*
X9755Y7265D02*
D03*
Y6935D02*
D03*
X10245Y7265D02*
D03*
Y6935D02*
D03*
X8755Y7265D02*
D03*
Y6935D02*
D03*
X9245Y7265D02*
D03*
Y6935D02*
D03*
X7755Y7265D02*
D03*
Y6935D02*
D03*
X8245Y7265D02*
D03*
Y6935D02*
D03*
X6755Y7265D02*
D03*
Y6935D02*
D03*
X7245Y7265D02*
D03*
Y6935D02*
D03*
X5755Y7265D02*
D03*
Y6935D02*
D03*
X6245Y7265D02*
D03*
Y6935D02*
D03*
X4755Y7265D02*
D03*
Y6935D02*
D03*
X5245Y7265D02*
D03*
Y6935D02*
D03*
X3755Y7265D02*
D03*
Y6935D02*
D03*
X4245Y7265D02*
D03*
Y6935D02*
D03*
X2755Y6265D02*
D03*
Y5935D02*
D03*
X3245Y6265D02*
D03*
Y5935D02*
D03*
X11755Y6265D02*
D03*
Y5935D02*
D03*
X12245Y6265D02*
D03*
Y5935D02*
D03*
X10755Y6265D02*
D03*
Y5935D02*
D03*
X11245Y6265D02*
D03*
Y5935D02*
D03*
X9755Y6265D02*
D03*
Y5935D02*
D03*
X10245Y6265D02*
D03*
Y5935D02*
D03*
X8755Y6265D02*
D03*
Y5935D02*
D03*
X9245Y6265D02*
D03*
Y5935D02*
D03*
X7755Y6265D02*
D03*
Y5935D02*
D03*
X8245Y6265D02*
D03*
Y5935D02*
D03*
X6755Y6265D02*
D03*
Y5935D02*
D03*
X7245Y6265D02*
D03*
Y5935D02*
D03*
X5755Y6265D02*
D03*
Y5935D02*
D03*
X6245Y6265D02*
D03*
Y5935D02*
D03*
X4755Y6265D02*
D03*
Y5935D02*
D03*
X5245Y6265D02*
D03*
Y5935D02*
D03*
X3755Y6265D02*
D03*
Y5935D02*
D03*
X4245Y6265D02*
D03*
Y5935D02*
D03*
X2755Y5265D02*
D03*
Y4935D02*
D03*
X3245Y5265D02*
D03*
Y4935D02*
D03*
X11755Y5265D02*
D03*
Y4935D02*
D03*
X12245Y5265D02*
D03*
Y4935D02*
D03*
X10755Y5265D02*
D03*
Y4935D02*
D03*
X11245Y5265D02*
D03*
Y4935D02*
D03*
X9755Y5265D02*
D03*
Y4935D02*
D03*
X10245Y5265D02*
D03*
Y4935D02*
D03*
X8755Y5265D02*
D03*
Y4935D02*
D03*
X9245Y5265D02*
D03*
Y4935D02*
D03*
X7755Y5265D02*
D03*
Y4935D02*
D03*
X8245Y5265D02*
D03*
Y4935D02*
D03*
X6755Y5265D02*
D03*
Y4935D02*
D03*
X7245Y5265D02*
D03*
Y4935D02*
D03*
X5755Y5265D02*
D03*
Y4935D02*
D03*
X6245Y5265D02*
D03*
Y4935D02*
D03*
X4755Y5265D02*
D03*
Y4935D02*
D03*
X5245Y5265D02*
D03*
Y4935D02*
D03*
X3755Y5265D02*
D03*
Y4935D02*
D03*
X4245Y5265D02*
D03*
Y4935D02*
D03*
X2755Y4265D02*
D03*
Y3935D02*
D03*
X3245Y4265D02*
D03*
Y3935D02*
D03*
X11755Y4265D02*
D03*
Y3935D02*
D03*
X12245Y4265D02*
D03*
Y3935D02*
D03*
X10755Y4265D02*
D03*
Y3935D02*
D03*
X11245Y4265D02*
D03*
Y3935D02*
D03*
X9755Y4265D02*
D03*
Y3935D02*
D03*
X10245Y4265D02*
D03*
Y3935D02*
D03*
X8755Y4265D02*
D03*
Y3935D02*
D03*
X9245Y4265D02*
D03*
Y3935D02*
D03*
X7755Y4265D02*
D03*
Y3935D02*
D03*
X8245Y4265D02*
D03*
Y3935D02*
D03*
X6755Y4265D02*
D03*
Y3935D02*
D03*
X7245Y4265D02*
D03*
Y3935D02*
D03*
X5755Y4265D02*
D03*
Y3935D02*
D03*
X6245Y4265D02*
D03*
Y3935D02*
D03*
X4755Y4265D02*
D03*
Y3935D02*
D03*
X5245Y4265D02*
D03*
Y3935D02*
D03*
X3755Y4265D02*
D03*
Y3935D02*
D03*
X4245Y4265D02*
D03*
Y3935D02*
D03*
X2755Y3265D02*
D03*
Y2935D02*
D03*
X3245Y3265D02*
D03*
Y2935D02*
D03*
X11755Y3265D02*
D03*
Y2935D02*
D03*
X12245Y3265D02*
D03*
Y2935D02*
D03*
X10755Y3265D02*
D03*
Y2935D02*
D03*
X11245Y3265D02*
D03*
Y2935D02*
D03*
X9755Y3265D02*
D03*
Y2935D02*
D03*
X10245Y3265D02*
D03*
Y2935D02*
D03*
X8755Y3265D02*
D03*
Y2935D02*
D03*
X9245Y3265D02*
D03*
Y2935D02*
D03*
X7755Y3265D02*
D03*
Y2935D02*
D03*
X8245Y3265D02*
D03*
Y2935D02*
D03*
X6755Y3265D02*
D03*
Y2935D02*
D03*
X7245Y3265D02*
D03*
Y2935D02*
D03*
X5755Y3265D02*
D03*
Y2935D02*
D03*
X6245Y3265D02*
D03*
Y2935D02*
D03*
X4755Y3265D02*
D03*
Y2935D02*
D03*
X5245Y3265D02*
D03*
Y2935D02*
D03*
D12*
X11035Y11500D02*
X11235Y11700D01*
X11245Y11461D02*
Y11675D01*
X11295Y11625D01*
X11227Y11693D02*
X11245Y11675D01*
X11220Y11700D02*
X11227Y11693D01*
X12070Y11625D02*
X12195Y11750D01*
X11295Y11625D02*
X12070D01*
X12046Y11475D02*
X12054Y11483D01*
X12075Y12075D02*
X12245Y12245D01*
X12135Y2600D02*
X12235Y2700D01*
X11335Y2600D02*
X12135D01*
X11235Y2700D02*
X11335Y2600D01*
X11135D02*
X11235Y2700D01*
X10335Y2600D02*
X11135D01*
X10235Y2700D02*
X10335Y2600D01*
X10135D02*
X10235Y2700D01*
X9335Y2600D02*
X10135D01*
X9235Y2700D02*
X9335Y2600D01*
X9135D02*
X9235Y2700D01*
X8335Y2600D02*
X9135D01*
X8235Y2700D02*
X8335Y2600D01*
X8135D02*
X8235Y2700D01*
X7335Y2600D02*
X8135D01*
X7235Y2700D02*
X7335Y2600D01*
X7135D02*
X7235Y2700D01*
X6335Y2600D02*
X7135D01*
X6235Y2700D02*
X6335Y2600D01*
X4135D02*
X4235Y2700D01*
X3335Y2600D02*
X4135D01*
X3235Y2700D02*
X3335Y2600D01*
X5135D02*
X5235Y2700D01*
X4335Y2600D02*
X5135D01*
X4235Y2700D02*
X4335Y2600D01*
X6135D02*
X6235Y2700D01*
X5335Y2600D02*
X6135D01*
X5235Y2700D02*
X5335Y2600D01*
X12195Y11580D02*
X12358Y11417D01*
X12195Y11580D02*
Y11750D01*
Y11885D02*
X12245Y11935D01*
X12195Y11750D02*
Y11885D01*
X12358Y11204D02*
Y11417D01*
X12054Y11475D02*
Y11483D01*
X6425Y3265D02*
X6755Y2935D01*
X6245Y3265D02*
X6425D01*
X2879Y3059D02*
Y3500D01*
X2755Y2935D02*
X2879Y3059D01*
X3245Y3265D02*
X3425D01*
X3755Y2935D01*
X4235Y2700D02*
Y2925D01*
X4245Y2935D01*
Y3265D02*
X4425D01*
X4755Y2935D01*
X5235Y2700D02*
Y2925D01*
X5245Y2935D01*
Y3265D02*
X5425D01*
X5755Y2935D01*
X6235Y2700D02*
Y2925D01*
X7235Y2700D02*
Y2925D01*
X7245Y3265D02*
X7425D01*
X7755Y2935D01*
X8245Y2710D02*
Y2935D01*
X9245Y2710D02*
Y2935D01*
X10245Y2710D02*
Y2935D01*
X11245Y2710D02*
Y2935D01*
X4285Y2650D02*
X4525Y2725D01*
X8245Y3265D02*
X8425D01*
X8755Y2935D01*
X9245Y3265D02*
X9425D01*
X9755Y2935D01*
X10245Y3265D02*
X10425D01*
X10755Y2935D01*
X11245Y3265D02*
X11425D01*
X11755Y2935D01*
X12010Y3265D02*
X12245D01*
X2750Y3725D02*
Y3930D01*
X3245Y4265D02*
X3425D01*
X3755Y3935D01*
X4245Y4265D02*
X4425D01*
X4755Y3935D01*
X5245Y4265D02*
X5425D01*
X5755Y3935D01*
X6245Y4265D02*
X6425D01*
X6755Y3935D01*
X4245Y3710D02*
Y3935D01*
X5245Y3710D02*
Y3935D01*
X6245Y3710D02*
Y3935D01*
X7245Y3710D02*
Y3935D01*
X8245Y3710D02*
Y3935D01*
X9245Y3710D02*
Y3935D01*
X10245Y3710D02*
Y3935D01*
X11245Y3710D02*
Y3935D01*
X12245Y2935D02*
Y3091D01*
X12358Y3204D01*
Y3577D01*
X7245Y4265D02*
X7425D01*
X7755Y3935D01*
X8245Y4265D02*
X8425D01*
X8755Y3935D01*
X9245Y4265D02*
X9425D01*
X9755Y3935D01*
X10245Y4265D02*
X10425D01*
X10755Y3935D01*
X11245Y4265D02*
X11425D01*
X11755Y3935D01*
X12235Y2700D02*
Y2925D01*
X3133Y3500D02*
Y3598D01*
X3235Y3700D01*
X12010Y4265D02*
X12245D01*
X2725Y4550D02*
Y4905D01*
X12245Y3935D02*
Y4091D01*
X12358Y4204D01*
Y4577D01*
X12235Y4700D02*
X12358Y4577D01*
X12235Y4700D02*
Y4925D01*
X12245Y4935D02*
Y5091D01*
X12358Y5204D01*
Y5577D01*
X12235Y5700D02*
X12358Y5577D01*
X12235Y5700D02*
X12245Y5710D01*
Y5935D01*
X3245Y5265D02*
X3425D01*
X3755Y4935D01*
X11245Y5265D02*
X11425D01*
X11755Y4935D01*
X10245Y5265D02*
X10425D01*
X10755Y4935D01*
X9245Y5265D02*
X9425D01*
X9755Y4935D01*
X8245Y5265D02*
X8425D01*
X8755Y4935D01*
X7245Y5265D02*
X7425D01*
X7755Y4935D01*
X6245Y5265D02*
X6425D01*
X6755Y4935D01*
X5245Y5265D02*
X5425D01*
X5755Y4935D01*
X4245Y5265D02*
X4425D01*
X4755Y4935D01*
X3235Y4700D02*
Y4925D01*
X11235Y4700D02*
Y4925D01*
X10235Y4700D02*
Y4925D01*
X9235Y4700D02*
Y4925D01*
X8235Y4700D02*
Y4925D01*
X7235Y4700D02*
Y4925D01*
X6235Y4700D02*
Y4925D01*
X5235Y4700D02*
Y4925D01*
X4235Y4700D02*
Y4925D01*
X3245Y6265D02*
X3425D01*
X3755Y5935D01*
X4245Y6265D02*
X4425D01*
X4755Y5935D01*
X5245Y6265D02*
X5425D01*
X5755Y5935D01*
X6245Y6265D02*
X6425D01*
X6755Y5935D01*
X7245Y6265D02*
X7425D01*
X7755Y5935D01*
X8245Y6265D02*
X8425D01*
X8755Y5935D01*
X9245Y6265D02*
X9425D01*
X9755Y5935D01*
X10245Y6265D02*
X10425D01*
X10755Y5935D01*
X11245Y6265D02*
X11425D01*
X11755Y5935D01*
X11235Y5700D02*
Y5925D01*
X10235Y5700D02*
Y5925D01*
X9235Y5700D02*
Y5925D01*
X8235Y5700D02*
Y5925D01*
X7235Y5700D02*
Y5925D01*
X6235Y5700D02*
Y5925D01*
X5235Y5700D02*
Y5925D01*
X4235Y5700D02*
Y5925D01*
X3235Y5700D02*
Y5925D01*
Y5700D02*
X3435Y5500D01*
X4035D01*
X4235Y5700D01*
X4435Y5500D01*
X5035D01*
X5235Y5700D01*
X5435Y5500D01*
X6035D01*
X6235Y5700D01*
X6435Y5500D01*
X7035D01*
X7235Y5700D01*
X7435Y5500D01*
X8035D01*
X8235Y5700D01*
X8435Y5500D01*
X9035D01*
X9235Y5700D01*
X9435Y5500D01*
X10035D01*
X10235Y5700D01*
X10435Y5500D01*
X11035D01*
X11235Y5700D01*
X11435Y5500D01*
X12035D01*
X12235Y5700D01*
X12010Y5265D02*
X12245D01*
X2750Y5575D02*
Y5930D01*
X12010Y6265D02*
X12245D01*
X2750Y6575D02*
Y6930D01*
X3245Y7265D02*
X3425D01*
X3755Y6935D01*
X4245Y7265D02*
X4425D01*
X4755Y6935D01*
X5245Y7265D02*
X5425D01*
X5755Y6935D01*
X6245Y7265D02*
X6425D01*
X6755Y6935D01*
X7245Y7265D02*
X7425D01*
X7755Y6935D01*
X8245Y7265D02*
X8425D01*
X8755Y6935D01*
X9245Y7265D02*
X9425D01*
X9755Y6935D01*
X10245Y7265D02*
X10425D01*
X10755Y6935D01*
X11245Y7265D02*
X11425D01*
X11755Y6935D01*
X12245Y5935D02*
Y6091D01*
X12358Y6204D01*
Y6577D01*
X12235Y6700D02*
X12358Y6577D01*
X12235Y6700D02*
X12245Y6710D01*
Y6935D01*
X11235Y6700D02*
Y6925D01*
X10235Y6700D02*
Y6925D01*
X9235Y6700D02*
Y6925D01*
X8235Y6700D02*
Y6925D01*
X7235Y6700D02*
Y6925D01*
X6235Y6700D02*
Y6925D01*
X5235Y6700D02*
Y6925D01*
X4235Y6700D02*
Y6925D01*
X3235Y6700D02*
Y6925D01*
Y6700D02*
X3435Y6500D01*
X4035D01*
X4235Y6700D01*
X4435Y6500D01*
X5035D01*
X5235Y6700D01*
X5435Y6500D01*
X6035D01*
X6235Y6700D01*
X6435Y6500D01*
X7035D01*
X7235Y6700D01*
X7435Y6500D01*
X8035D01*
X8235Y6700D01*
X8435Y6500D01*
X9035D01*
X9235Y6700D01*
X9435Y6500D01*
X10035D01*
X10235Y6700D01*
X10435Y6500D01*
X11035D01*
X11235Y6700D01*
X11435Y6500D01*
X12035D01*
X12235Y6700D01*
X12010Y7265D02*
X12245D01*
X2750Y7575D02*
Y7930D01*
X3245Y8265D02*
X3425D01*
X3755Y7935D01*
X4245Y8265D02*
X4425D01*
X4755Y7935D01*
X5245Y8265D02*
X5425D01*
X5755Y7935D01*
X6245Y8265D02*
X6425D01*
X6755Y7935D01*
X7245Y8265D02*
X7425D01*
X7755Y7935D01*
X8245Y8265D02*
X8425D01*
X8755Y7935D01*
X9245Y8265D02*
X9425D01*
X9755Y7935D01*
X10245Y8265D02*
X10425D01*
X10755Y7935D01*
X11245Y8265D02*
X11425D01*
X11755Y7935D01*
X12245Y6935D02*
Y7091D01*
X12358Y7204D01*
Y7577D01*
X12235Y7700D02*
X12358Y7577D01*
X12235Y7700D02*
Y7925D01*
X11235Y7700D02*
Y7925D01*
X10235Y7700D02*
Y7925D01*
X9235Y7700D02*
Y7925D01*
X8235Y7700D02*
Y7925D01*
X7235Y7700D02*
Y7925D01*
X6235Y7700D02*
Y7925D01*
X5235Y7700D02*
Y7925D01*
X4235Y7700D02*
Y7925D01*
X3235Y7700D02*
Y7925D01*
Y7700D02*
X3435Y7500D01*
X4035D01*
X4235Y7700D01*
X4435Y7500D01*
X5035D01*
X5235Y7700D01*
X5435Y7500D01*
X6035D01*
X6235Y7700D01*
X6435Y7500D01*
X7035D01*
X7235Y7700D01*
X7435Y7500D01*
X8035D01*
X8235Y7700D01*
X8435Y7500D01*
X9035D01*
X9235Y7700D01*
X9435Y7500D01*
X10035D01*
X10235Y7700D01*
X10435Y7500D01*
X11035D01*
X11235Y7700D01*
X11435Y7500D01*
X12035D01*
X12235Y7700D01*
X12010Y8265D02*
X12245D01*
X2750Y8575D02*
Y8930D01*
X3245Y9265D02*
X3425D01*
X3755Y8935D01*
X4245Y9265D02*
X4425D01*
X4755Y8935D01*
X5245Y9265D02*
X5425D01*
X5755Y8935D01*
X6245Y9265D02*
X6425D01*
X6755Y8935D01*
X7245Y9265D02*
X7425D01*
X7755Y8935D01*
X8245Y9265D02*
X8425D01*
X8755Y8935D01*
X9245Y9265D02*
X9425D01*
X9755Y8935D01*
X10245Y9265D02*
X10425D01*
X10755Y8935D01*
X11245Y9265D02*
X11425D01*
X11755Y8935D01*
X12235Y8700D02*
Y8925D01*
X12245Y7935D02*
Y8091D01*
X12358Y8204D01*
Y8577D01*
X12235Y8700D02*
X12358Y8577D01*
X11235Y8700D02*
Y8925D01*
X10235Y8700D02*
Y8925D01*
X9235Y8700D02*
Y8925D01*
X8235Y8700D02*
Y8925D01*
X7235Y8700D02*
Y8925D01*
X6235Y8700D02*
Y8925D01*
X5235Y8700D02*
Y8925D01*
X4235Y8700D02*
Y8925D01*
X3235Y8700D02*
Y8925D01*
Y8700D02*
X3435Y8500D01*
X4035D01*
X4235Y8700D01*
X4435Y8500D01*
X5035D01*
X5235Y8700D01*
X5435Y8500D01*
X6035D01*
X6235Y8700D01*
X6435Y8500D01*
X7035D01*
X7235Y8700D01*
X7435Y8500D01*
X8035D01*
X8235Y8700D01*
X8435Y8500D01*
X9035D01*
X9235Y8700D01*
X9435Y8500D01*
X10035D01*
X10235Y8700D01*
X10435Y8500D01*
X11035D01*
X11235Y8700D01*
X11435Y8500D01*
X12035D01*
X12235Y8700D01*
X12015Y9265D02*
X12245D01*
X2750Y9575D02*
Y9930D01*
X3245Y10265D02*
X3425D01*
X3755Y9935D01*
X4245Y10265D02*
X4425D01*
X4755Y9935D01*
X5245Y10265D02*
X5425D01*
X5755Y9935D01*
X6245Y10265D02*
X6425D01*
X6755Y9935D01*
X7245Y10265D02*
X7425D01*
X7755Y9935D01*
X8245Y10265D02*
X8425D01*
X8755Y9935D01*
X9245Y10265D02*
X9425D01*
X9755Y9935D01*
X10245Y10265D02*
X10425D01*
X10755Y9935D01*
X11245Y10265D02*
X11425D01*
X11755Y9935D01*
X12245Y8935D02*
Y9091D01*
X12358Y9204D01*
Y9577D01*
X12235Y9700D02*
X12358Y9577D01*
X12235Y9700D02*
Y9925D01*
X11235Y9700D02*
Y9925D01*
X10235Y9700D02*
Y9925D01*
X9235Y9700D02*
Y9925D01*
X8235Y9700D02*
Y9925D01*
X7235Y9700D02*
Y9925D01*
X6235Y9700D02*
Y9925D01*
X5235Y9700D02*
Y9925D01*
X4235Y9700D02*
Y9925D01*
X3235Y9700D02*
Y9925D01*
Y9700D02*
X3435Y9500D01*
X4035D01*
X4235Y9700D01*
X4435Y9500D01*
X5035D01*
X5235Y9700D01*
X5435Y9500D01*
X6035D01*
X6235Y9700D01*
X6435Y9500D01*
X7035D01*
X7235Y9700D01*
X7435Y9500D01*
X8035D01*
X8235Y9700D01*
X8435Y9500D01*
X9035D01*
X9235Y9700D01*
X9435Y9500D01*
X10035D01*
X10235Y9700D01*
X10435Y9500D01*
X11035D01*
X11235Y9700D01*
X11435Y9500D01*
X12035D01*
X12235Y9700D01*
X12010Y10265D02*
X12245D01*
X2750Y10575D02*
Y10930D01*
X3245Y11265D02*
X3425D01*
X3755Y10935D01*
X4245Y11265D02*
X4425D01*
X4755Y10935D01*
X5245Y11265D02*
X5425D01*
X5755Y10935D01*
X6245Y11265D02*
X6425D01*
X6755Y10935D01*
X7245Y11265D02*
X7425D01*
X7755Y10935D01*
X8245Y11265D02*
X8425D01*
X8755Y10935D01*
X9245Y11265D02*
X9425D01*
X9755Y10935D01*
X10245Y11265D02*
X10425D01*
X10755Y10935D01*
X12245Y9935D02*
Y10091D01*
X12358Y10204D01*
Y10577D01*
X12235Y10700D02*
X12358Y10577D01*
X11235Y10700D02*
Y10925D01*
X10235Y10700D02*
Y10925D01*
X9235Y10700D02*
Y10925D01*
X8235Y10700D02*
Y10925D01*
X7235Y10700D02*
Y10925D01*
X6235Y10700D02*
Y10925D01*
X5235Y10700D02*
Y10925D01*
X4235Y10700D02*
Y10925D01*
X3235Y10700D02*
Y10925D01*
Y10700D02*
X3435Y10500D01*
X4035D01*
X4235Y10700D01*
X4435Y10500D01*
X5035D01*
X5235Y10700D01*
X5435Y10500D01*
X6035D01*
X6235Y10700D01*
X6435Y10500D01*
X7035D01*
X7235Y10700D01*
X7435Y10500D01*
X8035D01*
X8235Y10700D01*
X8435Y10500D01*
X9035D01*
X9235Y10700D01*
X9435Y10500D01*
X10035D01*
X10235Y10700D01*
X10435Y10500D01*
X11035D01*
X11235Y10700D01*
X11435Y10500D01*
X12035D01*
X12235Y10700D01*
X3245Y12265D02*
X3425D01*
X3755Y11935D01*
X4245Y12265D02*
X4425D01*
X4755Y11935D01*
X5245Y12265D02*
X5425D01*
X5755Y11935D01*
X6245Y12265D02*
X6425D01*
X6755Y11935D01*
X7245Y12265D02*
X7425D01*
X7755Y11935D01*
X8245Y12265D02*
X8425D01*
X8755Y11935D01*
X9245Y12265D02*
X9425D01*
X9755Y11935D01*
X10245Y12265D02*
X10425D01*
X10755Y11935D01*
X11245Y12265D02*
X11425D01*
X11755Y11935D01*
X11235Y11700D02*
Y11925D01*
X10235Y11700D02*
Y11925D01*
X9235Y11700D02*
Y11925D01*
X8235Y11700D02*
Y11925D01*
X7235Y11700D02*
Y11925D01*
X6235Y11700D02*
Y11925D01*
X5235Y11700D02*
Y11925D01*
X4235Y11700D02*
Y11925D01*
X3235Y11700D02*
Y11925D01*
Y11700D02*
X3435Y11500D01*
X4035D01*
X4235Y11700D01*
X4435Y11500D01*
X5035D01*
X5235Y11700D01*
X5435Y11500D01*
X6035D01*
X6235Y11700D01*
X6435Y11500D01*
X7035D01*
X7235Y11700D01*
X7435Y11500D01*
X8035D01*
X8235Y11700D01*
X8435Y11500D01*
X9035D01*
X9235Y11700D01*
X9435Y11500D01*
X10035D01*
X10235Y11700D01*
X10435Y11500D01*
X11035D01*
X12245Y11091D02*
X12358Y11204D01*
X12245Y10935D02*
Y11091D01*
X12235Y10700D02*
Y10925D01*
X11425Y11265D02*
X11755Y10935D01*
X11245Y11265D02*
X11425D01*
X12140D02*
X12245D01*
X12000Y11125D02*
X12140Y11265D01*
X2750Y11575D02*
Y11930D01*
X11245Y10935D02*
Y11091D01*
X11132Y11204D02*
X11245Y11091D01*
X11132Y11204D02*
Y11348D01*
X11245Y11461D01*
X12245Y3710D02*
Y3935D01*
X12235Y3700D02*
X12358Y3577D01*
X3235Y4700D02*
X3435Y4500D01*
X4035D01*
X4235Y4700D01*
X4435Y4500D01*
X5035D01*
X5235Y4700D01*
X5435Y4500D01*
X6035D01*
X6235Y4700D01*
X6435Y4500D01*
X7035D01*
X7235Y4700D01*
X7435Y4500D01*
X8035D01*
X8235Y4700D01*
X8435Y4500D01*
X9035D01*
X9235Y4700D01*
X9435Y4500D01*
X10035D01*
X10235Y4700D01*
X10435Y4500D01*
X11035D01*
X11235Y4700D01*
X11435Y4500D01*
X12035D01*
X12235Y4700D01*
X3235Y3700D02*
X3435Y3500D01*
X4035D01*
X4235Y3700D01*
X4435Y3500D01*
X5035D01*
X5235Y3700D01*
X5435Y3500D01*
X6035D01*
X6235Y3700D01*
X6435Y3500D01*
X7035D01*
X7235Y3700D01*
X7435Y3500D01*
X8035D01*
X8235Y3700D01*
X8435Y3500D01*
X9035D01*
X9235Y3700D01*
X9435Y3500D01*
X10035D01*
X10235Y3700D01*
X10435Y3500D01*
X11035D01*
X11235Y3700D01*
X11435Y3500D01*
X12035D01*
X12235Y3700D01*
X3235D02*
Y3925D01*
Y2700D02*
Y2925D01*
D13*
X11800Y11475D02*
D03*
X2675Y3475D02*
D03*
D14*
X12054Y11475D02*
D03*
X12308D02*
D03*
X2929Y3475D02*
D03*
X3183D02*
D03*
D15*
X4525Y2725D02*
D03*
D16*
X3750D02*
D03*
D17*
X12075Y12075D02*
D03*
X12010Y3265D02*
D03*
X2750Y3725D02*
D03*
X12010Y4265D02*
D03*
X2725Y4550D02*
D03*
X12010Y5265D02*
D03*
X2750Y5575D02*
D03*
X12010Y6265D02*
D03*
X2750Y6575D02*
D03*
X12010Y7265D02*
D03*
X2750Y7575D02*
D03*
X12010Y8265D02*
D03*
X2750Y8575D02*
D03*
X12015Y9265D02*
D03*
X2750Y9575D02*
D03*
X12010Y10265D02*
D03*
X2750Y10575D02*
D03*
X12000Y11125D02*
D03*
X2750Y11575D02*
D03*
M02*
