G04*
G04 #@! TF.GenerationSoftware,Altium Limited,CircuitStudio,1.5.2 (30)*
G04*
G04 Layer_Physical_Order=2*
G04 Layer_Color=12500520*
%FSLAX42Y42*%
%MOMM*%
G71*
G01*
G75*
%ADD12C,0.25*%
%ADD13R,1.50X1.50*%
%ADD14C,1.50*%
%ADD15R,1.20X1.20*%
%ADD16C,1.20*%
%ADD17C,1.27*%
D12*
X12054Y12054D02*
X12075Y12075D01*
X12054Y11475D02*
Y12054D01*
X2750Y3725D02*
X11550D01*
X12010Y3265D01*
X11850Y4425D02*
X12010Y4265D01*
X2850Y4425D02*
X11850D01*
X2725Y4550D02*
X2850Y4425D01*
X11850Y5425D02*
X12010Y5265D01*
X2900Y5425D02*
X11850D01*
X2750Y5575D02*
X2900Y5425D01*
X11850Y6425D02*
X12010Y6265D01*
X2900Y6425D02*
X11850D01*
X2750Y6575D02*
X2900Y6425D01*
X11850Y7425D02*
X12010Y7265D01*
X2900Y7425D02*
X11850D01*
X2750Y7575D02*
X2900Y7425D01*
X11850Y8425D02*
X12010Y8265D01*
X2900Y8425D02*
X11850D01*
X2750Y8575D02*
X2900Y8425D01*
X11855Y9425D02*
X12015Y9265D01*
X2900Y9425D02*
X11855D01*
X2750Y9575D02*
X2900Y9425D01*
X11850Y10425D02*
X12010Y10265D01*
X2900Y10425D02*
X11850D01*
X2750Y10575D02*
X2900Y10425D01*
X11750Y11125D02*
X12000D01*
X11450Y11425D02*
X11750Y11125D01*
X2900Y11425D02*
X11450D01*
X2750Y11575D02*
X2900Y11425D01*
D13*
X11800Y11475D02*
D03*
X2675Y3475D02*
D03*
D14*
X12054Y11475D02*
D03*
X12308D02*
D03*
X2929Y3475D02*
D03*
X3183D02*
D03*
D15*
X4525Y2725D02*
D03*
D16*
X3750D02*
D03*
D17*
X12075Y12075D02*
D03*
X12010Y3265D02*
D03*
X2750Y3725D02*
D03*
X12010Y4265D02*
D03*
X2725Y4550D02*
D03*
X12010Y5265D02*
D03*
X2750Y5575D02*
D03*
X12010Y6265D02*
D03*
X2750Y6575D02*
D03*
X12010Y7265D02*
D03*
X2750Y7575D02*
D03*
X12010Y8265D02*
D03*
X2750Y8575D02*
D03*
X12015Y9265D02*
D03*
X2750Y9575D02*
D03*
X12010Y10265D02*
D03*
X2750Y10575D02*
D03*
X12000Y11125D02*
D03*
X2750Y11575D02*
D03*
M02*
